<ttFont>
    <TTGlyph name=".notdef" xMin="54" yMin="-50" xMax="969" yMax="1434">
      <contour>
        <pt x="969" y="-50" on="1"/>
        <pt x="54" y="-50" on="1"/>
        <pt x="54" y="1434" on="1"/>
        <pt x="969" y="1434" on="1"/>
      </contour>
      <contour>
        <pt x="290" y="1028" on="1"/>
        <pt x="514" y="809" on="1"/>
        <pt x="733" y="1023" on="1"/>
        <pt x="733" y="1200" on="1"/>
        <pt x="290" y="1200" on="1"/>
      </contour>
      <contour>
        <pt x="290" y="591" on="1"/>
        <pt x="392" y="691" on="1"/>
        <pt x="290" y="790" on="1"/>
      </contour>
      <contour>
        <pt x="733" y="596" on="1"/>
        <pt x="733" y="785" on="1"/>
        <pt x="636" y="691" on="1"/>
      </contour>
      <contour>
        <pt x="733" y="358" on="1"/>
        <pt x="514" y="572" on="1"/>
        <pt x="290" y="353" on="1"/>
        <pt x="290" y="185" on="1"/>
        <pt x="733" y="185" on="1"/>
      </contour>
    </TTGlyph>
    <TTGlyph name="A" xMin="-45" yMin="0" xMax="1532" yMax="1419">
      <contour>
        <pt x="1502" y="0" on="1"/>
        <pt x="801" y="0" on="1"/>
        <pt x="816" y="83" on="1"/>
        <pt x="973" y="159" on="1"/>
        <pt x="899" y="395" on="1"/>
        <pt x="676" y="383" on="0"/>
        <pt x="451" y="383" on="1"/>
        <pt x="414" y="383" on="1"/>
        <pt x="337" y="159" on="1"/>
        <pt x="510" y="80" on="1"/>
        <pt x="494" y="0" on="1"/>
        <pt x="-45" y="0" on="1"/>
        <pt x="-28" y="93" on="1"/>
        <pt x="136" y="164" on="1"/>
        <pt x="579" y="1384" on="1"/>
        <pt x="881" y="1419" on="1"/>
        <pt x="1370" y="159" on="1"/>
        <pt x="1532" y="95" on="1"/>
      </contour>
      <contour>
        <pt x="663" y="1155" on="1"/>
        <pt x="652" y="1088" on="0"/>
        <pt x="477" y="568" on="1"/>
        <pt x="846" y="568" on="1"/>
      </contour>
    </TTGlyph>
    <TTGlyph name="AE" xMin="-51" yMin="0" xMax="1969" yMax="1397">
      <contour>
        <pt x="435" y="383" on="1"/>
        <pt x="318" y="159" on="1"/>
        <pt x="495" y="82" on="1"/>
        <pt x="476" y="0" on="1"/>
        <pt x="-51" y="0" on="1"/>
        <pt x="-34" y="91" on="1"/>
        <pt x="117" y="157" on="1"/>
        <pt x="667" y="1246" on="1"/>
        <pt x="539" y="1304" on="1"/>
        <pt x="557" y="1384" on="1"/>
        <pt x="1709" y="1384" on="1"/>
        <pt x="1855" y="1397" on="1"/>
        <pt x="1894" y="1046" on="1"/>
        <pt x="1753" y="1021" on="1"/>
        <pt x="1658" y="1227" on="1"/>
        <pt x="1463" y="1256" on="0"/>
        <pt x="1235" y="1296" on="1"/>
        <pt x="1235" y="741" on="1"/>
        <pt x="1274" y="753" on="0"/>
        <pt x="1446" y="780" on="0"/>
        <pt x="1473" y="781" on="1"/>
        <pt x="1539" y="951" on="1"/>
        <pt x="1642" y="928" on="1"/>
        <pt x="1625" y="448" on="1"/>
        <pt x="1520" y="462" on="1"/>
        <pt x="1473" y="622" on="1"/>
        <pt x="1452" y="622" on="0"/>
        <pt x="1269" y="649" on="0"/>
        <pt x="1235" y="659" on="1"/>
        <pt x="1235" y="99" on="1"/>
        <pt x="1272" y="109" on="0"/>
        <pt x="1628" y="163" on="0"/>
        <pt x="1713" y="171" on="1"/>
        <pt x="1834" y="371" on="1"/>
        <pt x="1969" y="354" on="1"/>
        <pt x="1888" y="0" on="1"/>
        <pt x="688" y="0" on="1"/>
        <pt x="703" y="89" on="1"/>
        <pt x="879" y="165" on="1"/>
        <pt x="879" y="396" on="1"/>
        <pt x="804" y="387" on="0"/>
        <pt x="597" y="383" on="0"/>
      </contour>
      <contour>
        <pt x="823" y="1155" on="1"/>
        <pt x="528" y="568" on="1"/>
        <pt x="879" y="568" on="1"/>
        <pt x="879" y="1155" on="1"/>
      </contour>
    </TTGlyph>
    <TTGlyph name="Aacute" xMin="-45" yMin="0" xMax="1532" yMax="1811">
      <contour>
        <pt x="520" y="1596" on="1"/>
        <pt x="859" y="1811" on="1"/>
        <pt x="1031" y="1811" on="1"/>
        <pt x="1067" y="1637" on="1"/>
        <pt x="547" y="1486" on="1"/>
      </contour>
      <contour>
        <pt x="1502" y="0" on="1"/>
        <pt x="801" y="0" on="1"/>
        <pt x="816" y="83" on="1"/>
        <pt x="973" y="159" on="1"/>
        <pt x="899" y="395" on="1"/>
        <pt x="676" y="383" on="0"/>
        <pt x="451" y="383" on="1"/>
        <pt x="414" y="383" on="1"/>
        <pt x="337" y="159" on="1"/>
        <pt x="510" y="80" on="1"/>
        <pt x="494" y="0" on="1"/>
        <pt x="-45" y="0" on="1"/>
        <pt x="-28" y="93" on="1"/>
        <pt x="136" y="164" on="1"/>
        <pt x="579" y="1384" on="1"/>
        <pt x="881" y="1419" on="1"/>
        <pt x="1370" y="159" on="1"/>
        <pt x="1532" y="95" on="1"/>
      </contour>
      <contour>
        <pt x="663" y="1155" on="1"/>
        <pt x="652" y="1088" on="0"/>
        <pt x="477" y="568" on="1"/>
        <pt x="846" y="568" on="1"/>
      </contour>
    </TTGlyph>
    <TTGlyph name="Abreve" xMin="-45" yMin="0" xMax="1532" yMax="1810">
      <contour>
        <pt x="395" y="1729" on="1"/>
        <pt x="395" y="1760" on="0"/>
        <pt x="408" y="1804" on="0"/>
        <pt x="421" y="1810" on="1"/>
        <pt x="558" y="1810" on="1"/>
        <pt x="582" y="1716" on="0"/>
        <pt x="661" y="1640" on="0"/>
        <pt x="731" y="1640" on="1"/>
        <pt x="796" y="1640" on="0"/>
        <pt x="871" y="1717" on="0"/>
        <pt x="894" y="1810" on="1"/>
        <pt x="1031" y="1810" on="1"/>
        <pt x="1041" y="1804" on="0"/>
        <pt x="1055" y="1766" on="0"/>
        <pt x="1055" y="1738" on="1"/>
        <pt x="1055" y="1658" on="0"/>
        <pt x="968" y="1536" on="0"/>
        <pt x="820" y="1470" on="0"/>
        <pt x="731" y="1470" on="1"/>
        <pt x="637" y="1470" on="0"/>
        <pt x="484" y="1534" on="0"/>
        <pt x="395" y="1652" on="0"/>
      </contour>
      <contour>
        <pt x="1502" y="0" on="1"/>
        <pt x="801" y="0" on="1"/>
        <pt x="816" y="83" on="1"/>
        <pt x="973" y="159" on="1"/>
        <pt x="899" y="395" on="1"/>
        <pt x="676" y="383" on="0"/>
        <pt x="451" y="383" on="1"/>
        <pt x="414" y="383" on="1"/>
        <pt x="337" y="159" on="1"/>
        <pt x="510" y="80" on="1"/>
        <pt x="494" y="0" on="1"/>
        <pt x="-45" y="0" on="1"/>
        <pt x="-28" y="93" on="1"/>
        <pt x="136" y="164" on="1"/>
        <pt x="579" y="1384" on="1"/>
        <pt x="881" y="1419" on="1"/>
        <pt x="1370" y="159" on="1"/>
        <pt x="1532" y="95" on="1"/>
      </contour>
      <contour>
        <pt x="663" y="1155" on="1"/>
        <pt x="652" y="1088" on="0"/>
        <pt x="477" y="568" on="1"/>
        <pt x="846" y="568" on="1"/>
      </contour>
    </TTGlyph>
    <TTGlyph name="Acircumflex" xMin="-45" yMin="0" xMax="1532" yMax="1805">
      <contour>
        <pt x="367" y="1554" on="1"/>
        <pt x="662" y="1805" on="1"/>
        <pt x="791" y="1805" on="1"/>
        <pt x="1087" y="1554" on="1"/>
        <pt x="988" y="1475" on="1"/>
        <pt x="727" y="1598" on="1"/>
        <pt x="466" y="1475" on="1"/>
      </contour>
      <contour>
        <pt x="1502" y="0" on="1"/>
        <pt x="801" y="0" on="1"/>
        <pt x="816" y="83" on="1"/>
        <pt x="973" y="159" on="1"/>
        <pt x="899" y="395" on="1"/>
        <pt x="676" y="383" on="0"/>
        <pt x="451" y="383" on="1"/>
        <pt x="414" y="383" on="1"/>
        <pt x="337" y="159" on="1"/>
        <pt x="510" y="80" on="1"/>
        <pt x="494" y="0" on="1"/>
        <pt x="-45" y="0" on="1"/>
        <pt x="-28" y="93" on="1"/>
        <pt x="136" y="164" on="1"/>
        <pt x="579" y="1384" on="1"/>
        <pt x="881" y="1419" on="1"/>
        <pt x="1370" y="159" on="1"/>
        <pt x="1532" y="95" on="1"/>
      </contour>
      <contour>
        <pt x="663" y="1155" on="1"/>
        <pt x="652" y="1088" on="0"/>
        <pt x="477" y="568" on="1"/>
        <pt x="846" y="568" on="1"/>
      </contour>
    </TTGlyph>
    <TTGlyph name="Adieresis" xMin="-45" yMin="0" xMax="1532" yMax="1831">
      <contour>
        <pt x="293" y="1660" on="1"/>
        <pt x="293" y="1684" on="0"/>
        <pt x="359" y="1766" on="0"/>
        <pt x="443" y="1831" on="0"/>
        <pt x="469" y="1831" on="1"/>
        <pt x="490" y="1831" on="0"/>
        <pt x="573" y="1765" on="0"/>
        <pt x="639" y="1682" on="0"/>
        <pt x="639" y="1658" on="1"/>
        <pt x="639" y="1635" on="0"/>
        <pt x="574" y="1551" on="0"/>
        <pt x="489" y="1485" on="0"/>
        <pt x="463" y="1485" on="1"/>
        <pt x="441" y="1485" on="0"/>
        <pt x="359" y="1552" on="0"/>
        <pt x="293" y="1637" on="0"/>
      </contour>
      <contour>
        <pt x="812" y="1660" on="1"/>
        <pt x="812" y="1684" on="0"/>
        <pt x="878" y="1766" on="0"/>
        <pt x="962" y="1831" on="0"/>
        <pt x="988" y="1831" on="1"/>
        <pt x="1009" y="1831" on="0"/>
        <pt x="1092" y="1765" on="0"/>
        <pt x="1158" y="1682" on="0"/>
        <pt x="1158" y="1658" on="1"/>
        <pt x="1158" y="1635" on="0"/>
        <pt x="1093" y="1551" on="0"/>
        <pt x="1008" y="1485" on="0"/>
        <pt x="982" y="1485" on="1"/>
        <pt x="960" y="1485" on="0"/>
        <pt x="878" y="1552" on="0"/>
        <pt x="812" y="1637" on="0"/>
      </contour>
      <contour>
        <pt x="1502" y="0" on="1"/>
        <pt x="801" y="0" on="1"/>
        <pt x="816" y="83" on="1"/>
        <pt x="973" y="159" on="1"/>
        <pt x="899" y="395" on="1"/>
        <pt x="676" y="383" on="0"/>
        <pt x="451" y="383" on="1"/>
        <pt x="414" y="383" on="1"/>
        <pt x="337" y="159" on="1"/>
        <pt x="510" y="80" on="1"/>
        <pt x="494" y="0" on="1"/>
        <pt x="-45" y="0" on="1"/>
        <pt x="-28" y="93" on="1"/>
        <pt x="136" y="164" on="1"/>
        <pt x="579" y="1384" on="1"/>
        <pt x="881" y="1419" on="1"/>
        <pt x="1370" y="159" on="1"/>
        <pt x="1532" y="95" on="1"/>
      </contour>
      <contour>
        <pt x="663" y="1155" on="1"/>
        <pt x="652" y="1088" on="0"/>
        <pt x="477" y="568" on="1"/>
        <pt x="846" y="568" on="1"/>
      </contour>
    </TTGlyph>
    <TTGlyph name="Agrave" xMin="-45" yMin="0" xMax="1532" yMax="1811">
      <contour>
        <pt x="452" y="1638" on="1"/>
        <pt x="488" y="1811" on="1"/>
        <pt x="661" y="1811" on="1"/>
        <pt x="997" y="1598" on="1"/>
        <pt x="973" y="1484" on="1"/>
      </contour>
      <contour>
        <pt x="1502" y="0" on="1"/>
        <pt x="801" y="0" on="1"/>
        <pt x="816" y="83" on="1"/>
        <pt x="973" y="159" on="1"/>
        <pt x="899" y="395" on="1"/>
        <pt x="676" y="383" on="0"/>
        <pt x="451" y="383" on="1"/>
        <pt x="414" y="383" on="1"/>
        <pt x="337" y="159" on="1"/>
        <pt x="510" y="80" on="1"/>
        <pt x="494" y="0" on="1"/>
        <pt x="-45" y="0" on="1"/>
        <pt x="-28" y="93" on="1"/>
        <pt x="136" y="164" on="1"/>
        <pt x="579" y="1384" on="1"/>
        <pt x="881" y="1419" on="1"/>
        <pt x="1370" y="159" on="1"/>
        <pt x="1532" y="95" on="1"/>
      </contour>
      <contour>
        <pt x="663" y="1155" on="1"/>
        <pt x="652" y="1088" on="0"/>
        <pt x="477" y="568" on="1"/>
        <pt x="846" y="568" on="1"/>
      </contour>
    </TTGlyph>
    <TTGlyph name="Amacron" xMin="-45" yMin="0" xMax="1532" yMax="1717">
      <contour>
        <pt x="389" y="1528" on="1"/>
        <pt x="424" y="1717" on="1"/>
        <pt x="1061" y="1717" on="1"/>
        <pt x="1029" y="1540" on="1"/>
        <pt x="908" y="1534" on="0"/>
        <pt x="528" y="1528" on="0"/>
      </contour>
      <contour>
        <pt x="1502" y="0" on="1"/>
        <pt x="801" y="0" on="1"/>
        <pt x="816" y="83" on="1"/>
        <pt x="973" y="159" on="1"/>
        <pt x="899" y="395" on="1"/>
        <pt x="676" y="383" on="0"/>
        <pt x="451" y="383" on="1"/>
        <pt x="414" y="383" on="1"/>
        <pt x="337" y="159" on="1"/>
        <pt x="510" y="80" on="1"/>
        <pt x="494" y="0" on="1"/>
        <pt x="-45" y="0" on="1"/>
        <pt x="-28" y="93" on="1"/>
        <pt x="136" y="164" on="1"/>
        <pt x="579" y="1384" on="1"/>
        <pt x="881" y="1419" on="1"/>
        <pt x="1370" y="159" on="1"/>
        <pt x="1532" y="95" on="1"/>
      </contour>
      <contour>
        <pt x="663" y="1155" on="1"/>
        <pt x="652" y="1088" on="0"/>
        <pt x="477" y="568" on="1"/>
        <pt x="846" y="568" on="1"/>
      </contour>
    </TTGlyph>
    <TTGlyph name="Aogonek" xMin="-46" yMin="-504" xMax="1534" yMax="1419">
      <contour>
        <pt x="940" y="-226" on="1"/>
        <pt x="940" y="-263" on="0"/>
        <pt x="975" y="-333" on="0"/>
        <pt x="1005" y="-347" on="1"/>
        <pt x="1023" y="-355" on="0"/>
        <pt x="1039" y="-355" on="1"/>
        <pt x="1071" y="-355" on="0"/>
        <pt x="1169" y="-328" on="0"/>
        <pt x="1213" y="-306" on="1"/>
        <pt x="1244" y="-352" on="1"/>
        <pt x="1181" y="-426" on="0"/>
        <pt x="1022" y="-504" on="0"/>
        <pt x="934" y="-504" on="1"/>
        <pt x="865" y="-504" on="0"/>
        <pt x="745" y="-456" on="0"/>
        <pt x="671" y="-354" on="0"/>
        <pt x="671" y="-277" on="1"/>
        <pt x="671" y="-223" on="0"/>
        <pt x="722" y="-137" on="0"/>
        <pt x="793" y="-77" on="0"/>
        <pt x="851" y="-36" on="1"/>
        <pt x="876" y="-18" on="0"/>
        <pt x="926" y="19" on="0"/>
        <pt x="942" y="35" on="1"/>
        <pt x="982" y="77" on="0"/>
        <pt x="982" y="118" on="1"/>
        <pt x="982" y="130" on="0"/>
        <pt x="972" y="162" on="1"/>
        <pt x="899" y="396" on="1"/>
        <pt x="766" y="383" on="0"/>
        <pt x="568" y="383" on="1"/>
        <pt x="500" y="383" on="0"/>
        <pt x="466" y="384" on="1"/>
        <pt x="434" y="384" on="0"/>
        <pt x="418" y="385" on="1"/>
        <pt x="381" y="277" on="0"/>
        <pt x="337" y="159" on="1"/>
        <pt x="510" y="81" on="1"/>
        <pt x="493" y="0" on="1"/>
        <pt x="-46" y="0" on="1"/>
        <pt x="-27" y="93" on="1"/>
        <pt x="136" y="164" on="1"/>
        <pt x="579" y="1384" on="1"/>
        <pt x="881" y="1419" on="1"/>
        <pt x="1370" y="159" on="1"/>
        <pt x="1534" y="96" on="1"/>
        <pt x="1503" y="0" on="1"/>
        <pt x="1215" y="0" on="1"/>
        <pt x="1177" y="0" on="0"/>
        <pt x="1110" y="-25" on="0"/>
        <pt x="1075" y="-48" on="1"/>
        <pt x="1018" y="-87" on="0"/>
        <pt x="940" y="-193" on="0"/>
      </contour>
      <contour>
        <pt x="663" y="1155" on="1"/>
        <pt x="589" y="880" on="0"/>
        <pt x="482" y="568" on="1"/>
        <pt x="846" y="568" on="1"/>
      </contour>
    </TTGlyph>
    <TTGlyph name="Aring" xMin="-45" yMin="0" xMax="1532" yMax="1723">
      <contour>
        <pt x="1502" y="0" on="1"/>
        <pt x="801" y="0" on="1"/>
        <pt x="816" y="83" on="1"/>
        <pt x="973" y="159" on="1"/>
        <pt x="899" y="395" on="1"/>
        <pt x="676" y="383" on="0"/>
        <pt x="451" y="383" on="1"/>
        <pt x="414" y="383" on="1"/>
        <pt x="337" y="159" on="1"/>
        <pt x="510" y="80" on="1"/>
        <pt x="494" y="0" on="1"/>
        <pt x="-45" y="0" on="1"/>
        <pt x="-28" y="93" on="1"/>
        <pt x="136" y="164" on="1"/>
        <pt x="576" y="1376" on="1"/>
        <pt x="548" y="1401" on="0"/>
        <pt x="516" y="1472" on="0"/>
        <pt x="516" y="1514" on="1"/>
        <pt x="516" y="1573" on="0"/>
        <pt x="569" y="1669" on="0"/>
        <pt x="667" y="1723" on="0"/>
        <pt x="731" y="1723" on="1"/>
        <pt x="784" y="1723" on="0"/>
        <pt x="877" y="1675" on="0"/>
        <pt x="934" y="1588" on="0"/>
        <pt x="934" y="1532" on="1"/>
        <pt x="934" y="1452" on="0"/>
        <pt x="889" y="1398" on="1"/>
        <pt x="1370" y="159" on="1"/>
        <pt x="1532" y="95" on="1"/>
      </contour>
      <contour>
        <pt x="656" y="1531" on="1"/>
        <pt x="656" y="1498" on="0"/>
        <pt x="695" y="1451" on="0"/>
        <pt x="731" y="1451" on="1"/>
        <pt x="759" y="1451" on="0"/>
        <pt x="792" y="1488" on="0"/>
        <pt x="792" y="1516" on="1"/>
        <pt x="792" y="1551" on="0"/>
        <pt x="752" y="1599" on="0"/>
        <pt x="717" y="1599" on="1"/>
        <pt x="690" y="1599" on="0"/>
        <pt x="656" y="1559" on="0"/>
      </contour>
      <contour>
        <pt x="663" y="1155" on="1"/>
        <pt x="652" y="1088" on="0"/>
        <pt x="477" y="568" on="1"/>
        <pt x="846" y="568" on="1"/>
      </contour>
    </TTGlyph>
    <TTGlyph name="Atilde" xMin="-45" yMin="0" xMax="1532" yMax="1856">
      <contour>
        <pt x="361" y="1533" on="1"/>
        <pt x="333" y="1680" on="1"/>
        <pt x="386" y="1740" on="0"/>
        <pt x="458" y="1810" on="0"/>
        <pt x="545" y="1856" on="0"/>
        <pt x="595" y="1856" on="1"/>
        <pt x="650" y="1856" on="0"/>
        <pt x="736" y="1808" on="0"/>
        <pt x="786" y="1765" on="1"/>
        <pt x="819" y="1738" on="0"/>
        <pt x="854" y="1715" on="0"/>
        <pt x="871" y="1715" on="1"/>
        <pt x="905" y="1715" on="0"/>
        <pt x="1028" y="1780" on="0"/>
        <pt x="1093" y="1833" on="1"/>
        <pt x="1116" y="1686" on="1"/>
        <pt x="1063" y="1627" on="0"/>
        <pt x="992" y="1559" on="0"/>
        <pt x="903" y="1512" on="0"/>
        <pt x="853" y="1512" on="1"/>
        <pt x="799" y="1512" on="0"/>
        <pt x="717" y="1559" on="0"/>
        <pt x="665" y="1602" on="1"/>
        <pt x="635" y="1628" on="0"/>
        <pt x="598" y="1653" on="0"/>
        <pt x="580" y="1653" on="1"/>
        <pt x="544" y="1653" on="0"/>
        <pt x="419" y="1585" on="0"/>
      </contour>
      <contour>
        <pt x="1502" y="0" on="1"/>
        <pt x="801" y="0" on="1"/>
        <pt x="816" y="83" on="1"/>
        <pt x="973" y="159" on="1"/>
        <pt x="899" y="395" on="1"/>
        <pt x="676" y="383" on="0"/>
        <pt x="451" y="383" on="1"/>
        <pt x="414" y="383" on="1"/>
        <pt x="337" y="159" on="1"/>
        <pt x="510" y="80" on="1"/>
        <pt x="494" y="0" on="1"/>
        <pt x="-45" y="0" on="1"/>
        <pt x="-28" y="93" on="1"/>
        <pt x="136" y="164" on="1"/>
        <pt x="579" y="1384" on="1"/>
        <pt x="881" y="1419" on="1"/>
        <pt x="1370" y="159" on="1"/>
        <pt x="1532" y="95" on="1"/>
      </contour>
      <contour>
        <pt x="663" y="1155" on="1"/>
        <pt x="652" y="1088" on="0"/>
        <pt x="477" y="568" on="1"/>
        <pt x="846" y="568" on="1"/>
      </contour>
    </TTGlyph>
    <TTGlyph name="B" xMin="52" yMin="0" xMax="1380" yMax="1384">
      <contour>
        <pt x="244" y="164" on="1"/>
        <pt x="244" y="1221" on="1"/>
        <pt x="57" y="1305" on="1"/>
        <pt x="74" y="1384" on="1"/>
        <pt x="495" y="1384" on="1"/>
        <pt x="788" y="1384" on="0"/>
        <pt x="1110" y="1352" on="0"/>
        <pt x="1318" y="1212" on="0"/>
        <pt x="1318" y="1060" on="1"/>
        <pt x="1318" y="924" on="0"/>
        <pt x="1133" y="761" on="0"/>
        <pt x="988" y="736" on="1"/>
        <pt x="1100" y="727" on="0"/>
        <pt x="1279" y="637" on="0"/>
        <pt x="1380" y="484" on="0"/>
        <pt x="1380" y="387" on="1"/>
        <pt x="1380" y="255" on="0"/>
        <pt x="1247" y="86" on="0"/>
        <pt x="943" y="0" on="0"/>
        <pt x="686" y="0" on="1"/>
        <pt x="52" y="0" on="1"/>
        <pt x="69" y="85" on="1"/>
      </contour>
      <contour>
        <pt x="613" y="1305" on="1"/>
        <pt x="613" y="81" on="1"/>
        <pt x="736" y="101" on="0"/>
        <pt x="901" y="166" on="0"/>
        <pt x="998" y="288" on="0"/>
        <pt x="998" y="387" on="1"/>
        <pt x="998" y="473" on="0"/>
        <pt x="918" y="600" on="0"/>
        <pt x="795" y="677" on="0"/>
        <pt x="725" y="695" on="1"/>
        <pt x="733" y="754" on="1"/>
        <pt x="836" y="794" on="0"/>
        <pt x="945" y="945" on="0"/>
        <pt x="945" y="1051" on="1"/>
        <pt x="945" y="1176" on="0"/>
        <pt x="756" y="1289" on="0"/>
      </contour>
    </TTGlyph>
    <TTGlyph name="C" xMin="70" yMin="-35" xMax="1267" yMax="1419">
      <contour>
        <pt x="70" y="659" on="1"/>
        <pt x="70" y="845" on="0"/>
        <pt x="203" y="1149" on="0"/>
        <pt x="325" y="1251" on="1"/>
        <pt x="422" y="1332" on="0"/>
        <pt x="675" y="1419" on="0"/>
        <pt x="820" y="1419" on="1"/>
        <pt x="866" y="1419" on="0"/>
        <pt x="993" y="1409" on="0"/>
        <pt x="1041" y="1401" on="1"/>
        <pt x="1198" y="1406" on="1"/>
        <pt x="1223" y="1019" on="1"/>
        <pt x="1085" y="997" on="1"/>
        <pt x="1002" y="1201" on="1"/>
        <pt x="950" y="1235" on="0"/>
        <pt x="813" y="1262" on="0"/>
        <pt x="731" y="1262" on="1"/>
        <pt x="592" y="1262" on="0"/>
        <pt x="557" y="1223" on="1"/>
        <pt x="508" y="1168" on="0"/>
        <pt x="459" y="910" on="0"/>
        <pt x="459" y="766" on="1"/>
        <pt x="459" y="617" on="0"/>
        <pt x="523" y="411" on="0"/>
        <pt x="583" y="330" on="1"/>
        <pt x="636" y="259" on="0"/>
        <pt x="778" y="187" on="0"/>
        <pt x="840" y="187" on="1"/>
        <pt x="884" y="187" on="0"/>
        <pt x="1183" y="213" on="0"/>
        <pt x="1236" y="222" on="1"/>
        <pt x="1267" y="163" on="1"/>
        <pt x="1192" y="67" on="0"/>
        <pt x="921" y="-35" on="0"/>
        <pt x="756" y="-35" on="1"/>
        <pt x="553" y="-35" on="0"/>
        <pt x="243" y="122" on="0"/>
        <pt x="70" y="434" on="0"/>
      </contour>
    </TTGlyph>
    <TTGlyph name="Cacute" xMin="70" yMin="-35" xMax="1267" yMax="1811">
      <contour>
        <pt x="889" y="1811" on="1"/>
        <pt x="1061" y="1811" on="1"/>
        <pt x="1097" y="1637" on="1"/>
        <pt x="577" y="1486" on="1"/>
        <pt x="550" y="1596" on="1"/>
      </contour>
      <contour>
        <pt x="70" y="659" on="1"/>
        <pt x="70" y="845" on="0"/>
        <pt x="203" y="1149" on="0"/>
        <pt x="325" y="1251" on="1"/>
        <pt x="422" y="1332" on="0"/>
        <pt x="675" y="1419" on="0"/>
        <pt x="820" y="1419" on="1"/>
        <pt x="866" y="1419" on="0"/>
        <pt x="993" y="1409" on="0"/>
        <pt x="1041" y="1401" on="1"/>
        <pt x="1198" y="1406" on="1"/>
        <pt x="1223" y="1019" on="1"/>
        <pt x="1085" y="997" on="1"/>
        <pt x="1002" y="1201" on="1"/>
        <pt x="950" y="1235" on="0"/>
        <pt x="813" y="1262" on="0"/>
        <pt x="731" y="1262" on="1"/>
        <pt x="592" y="1262" on="0"/>
        <pt x="557" y="1223" on="1"/>
        <pt x="508" y="1168" on="0"/>
        <pt x="459" y="910" on="0"/>
        <pt x="459" y="766" on="1"/>
        <pt x="459" y="617" on="0"/>
        <pt x="523" y="411" on="0"/>
        <pt x="583" y="330" on="1"/>
        <pt x="636" y="259" on="0"/>
        <pt x="778" y="187" on="0"/>
        <pt x="840" y="187" on="1"/>
        <pt x="884" y="187" on="0"/>
        <pt x="1183" y="213" on="0"/>
        <pt x="1236" y="222" on="1"/>
        <pt x="1267" y="163" on="1"/>
        <pt x="1192" y="67" on="0"/>
        <pt x="921" y="-35" on="0"/>
        <pt x="756" y="-35" on="1"/>
        <pt x="553" y="-35" on="0"/>
        <pt x="243" y="122" on="0"/>
        <pt x="70" y="434" on="0"/>
      </contour>
    </TTGlyph>
    <TTGlyph name="Ccaron" xMin="70" yMin="-35" xMax="1267" yMax="1827">
      <contour>
        <pt x="493" y="1827" on="1"/>
        <pt x="755" y="1702" on="1"/>
        <pt x="1018" y="1827" on="1"/>
        <pt x="1112" y="1748" on="1"/>
        <pt x="828" y="1515" on="1"/>
        <pt x="683" y="1515" on="1"/>
        <pt x="399" y="1748" on="1"/>
      </contour>
      <contour>
        <pt x="70" y="659" on="1"/>
        <pt x="70" y="845" on="0"/>
        <pt x="203" y="1149" on="0"/>
        <pt x="325" y="1251" on="1"/>
        <pt x="422" y="1332" on="0"/>
        <pt x="675" y="1419" on="0"/>
        <pt x="820" y="1419" on="1"/>
        <pt x="866" y="1419" on="0"/>
        <pt x="993" y="1409" on="0"/>
        <pt x="1041" y="1401" on="1"/>
        <pt x="1198" y="1406" on="1"/>
        <pt x="1223" y="1019" on="1"/>
        <pt x="1085" y="997" on="1"/>
        <pt x="1002" y="1201" on="1"/>
        <pt x="950" y="1235" on="0"/>
        <pt x="813" y="1262" on="0"/>
        <pt x="731" y="1262" on="1"/>
        <pt x="592" y="1262" on="0"/>
        <pt x="557" y="1223" on="1"/>
        <pt x="508" y="1168" on="0"/>
        <pt x="459" y="910" on="0"/>
        <pt x="459" y="766" on="1"/>
        <pt x="459" y="617" on="0"/>
        <pt x="523" y="411" on="0"/>
        <pt x="583" y="330" on="1"/>
        <pt x="636" y="259" on="0"/>
        <pt x="778" y="187" on="0"/>
        <pt x="840" y="187" on="1"/>
        <pt x="884" y="187" on="0"/>
        <pt x="1183" y="213" on="0"/>
        <pt x="1236" y="222" on="1"/>
        <pt x="1267" y="163" on="1"/>
        <pt x="1192" y="67" on="0"/>
        <pt x="921" y="-35" on="0"/>
        <pt x="756" y="-35" on="1"/>
        <pt x="553" y="-35" on="0"/>
        <pt x="243" y="122" on="0"/>
        <pt x="70" y="434" on="0"/>
      </contour>
    </TTGlyph>
    <TTGlyph name="Ccedilla" xMin="70" yMin="-500" xMax="1267" yMax="1419">
      <contour>
        <pt x="799" y="-34" on="1"/>
        <pt x="782" y="-94" on="1"/>
        <pt x="832" y="-94" on="0"/>
        <pt x="927" y="-133" on="0"/>
        <pt x="987" y="-206" on="0"/>
        <pt x="987" y="-254" on="1"/>
        <pt x="987" y="-336" on="0"/>
        <pt x="862" y="-447" on="0"/>
        <pt x="670" y="-500" on="0"/>
        <pt x="568" y="-500" on="1"/>
        <pt x="552" y="-420" on="1"/>
        <pt x="695" y="-375" on="0"/>
        <pt x="786" y="-306" on="0"/>
        <pt x="786" y="-278" on="1"/>
        <pt x="786" y="-247" on="0"/>
        <pt x="665" y="-209" on="0"/>
        <pt x="554" y="-201" on="1"/>
        <pt x="575" y="-105" on="0"/>
        <pt x="652" y="-30" on="1"/>
        <pt x="477" y="-11" on="0"/>
        <pt x="215" y="158" on="0"/>
        <pt x="70" y="454" on="0"/>
        <pt x="70" y="659" on="1"/>
        <pt x="70" y="845" on="0"/>
        <pt x="203" y="1149" on="0"/>
        <pt x="325" y="1251" on="1"/>
        <pt x="422" y="1332" on="0"/>
        <pt x="675" y="1419" on="0"/>
        <pt x="820" y="1419" on="1"/>
        <pt x="866" y="1419" on="0"/>
        <pt x="993" y="1409" on="0"/>
        <pt x="1041" y="1401" on="1"/>
        <pt x="1198" y="1406" on="1"/>
        <pt x="1223" y="1019" on="1"/>
        <pt x="1085" y="997" on="1"/>
        <pt x="1002" y="1201" on="1"/>
        <pt x="950" y="1235" on="0"/>
        <pt x="813" y="1262" on="0"/>
        <pt x="731" y="1262" on="1"/>
        <pt x="592" y="1262" on="0"/>
        <pt x="557" y="1223" on="1"/>
        <pt x="508" y="1168" on="0"/>
        <pt x="459" y="910" on="0"/>
        <pt x="459" y="766" on="1"/>
        <pt x="459" y="617" on="0"/>
        <pt x="523" y="411" on="0"/>
        <pt x="583" y="330" on="1"/>
        <pt x="636" y="259" on="0"/>
        <pt x="778" y="187" on="0"/>
        <pt x="840" y="187" on="1"/>
        <pt x="884" y="187" on="0"/>
        <pt x="1183" y="213" on="0"/>
        <pt x="1236" y="222" on="1"/>
        <pt x="1267" y="163" on="1"/>
        <pt x="1197" y="73" on="0"/>
        <pt x="951" y="-28" on="0"/>
      </contour>
    </TTGlyph>
    <TTGlyph name="D" xMin="52" yMin="0" xMax="1495" yMax="1384">
      <contour>
        <pt x="245" y="1221" on="1"/>
        <pt x="58" y="1303" on="1"/>
        <pt x="75" y="1384" on="1"/>
        <pt x="564" y="1384" on="1"/>
        <pt x="705" y="1384" on="0"/>
        <pt x="915" y="1373" on="0"/>
        <pt x="1124" y="1328" on="0"/>
        <pt x="1203" y="1282" on="1"/>
        <pt x="1358" y="1192" on="0"/>
        <pt x="1495" y="889" on="0"/>
        <pt x="1495" y="699" on="1"/>
        <pt x="1495" y="385" on="0"/>
        <pt x="1340" y="219" on="1"/>
        <pt x="1227" y="96" on="0"/>
        <pt x="853" y="0" on="0"/>
        <pt x="591" y="0" on="1"/>
        <pt x="52" y="0" on="1"/>
        <pt x="69" y="84" on="1"/>
        <pt x="245" y="164" on="1"/>
      </contour>
      <contour>
        <pt x="1110" y="697" on="1"/>
        <pt x="1110" y="1002" on="0"/>
        <pt x="925" y="1156" on="1"/>
        <pt x="872" y="1201" on="0"/>
        <pt x="705" y="1266" on="0"/>
        <pt x="614" y="1280" on="1"/>
        <pt x="614" y="107" on="1"/>
        <pt x="774" y="132" on="0"/>
        <pt x="991" y="257" on="0"/>
        <pt x="1110" y="501" on="0"/>
      </contour>
    </TTGlyph>
    <TTGlyph name="Dcaron" xMin="52" yMin="0" xMax="1495" yMax="1827">
      <contour>
        <pt x="453" y="1827" on="1"/>
        <pt x="715" y="1702" on="1"/>
        <pt x="978" y="1827" on="1"/>
        <pt x="1072" y="1748" on="1"/>
        <pt x="788" y="1515" on="1"/>
        <pt x="643" y="1515" on="1"/>
        <pt x="359" y="1748" on="1"/>
      </contour>
      <contour>
        <pt x="245" y="1221" on="1"/>
        <pt x="58" y="1303" on="1"/>
        <pt x="75" y="1384" on="1"/>
        <pt x="564" y="1384" on="1"/>
        <pt x="705" y="1384" on="0"/>
        <pt x="915" y="1373" on="0"/>
        <pt x="1124" y="1328" on="0"/>
        <pt x="1203" y="1282" on="1"/>
        <pt x="1358" y="1192" on="0"/>
        <pt x="1495" y="889" on="0"/>
        <pt x="1495" y="699" on="1"/>
        <pt x="1495" y="385" on="0"/>
        <pt x="1340" y="219" on="1"/>
        <pt x="1227" y="96" on="0"/>
        <pt x="853" y="0" on="0"/>
        <pt x="591" y="0" on="1"/>
        <pt x="52" y="0" on="1"/>
        <pt x="69" y="84" on="1"/>
        <pt x="245" y="164" on="1"/>
      </contour>
      <contour>
        <pt x="1110" y="697" on="1"/>
        <pt x="1110" y="1002" on="0"/>
        <pt x="925" y="1156" on="1"/>
        <pt x="872" y="1201" on="0"/>
        <pt x="705" y="1266" on="0"/>
        <pt x="614" y="1280" on="1"/>
        <pt x="614" y="107" on="1"/>
        <pt x="774" y="132" on="0"/>
        <pt x="991" y="257" on="0"/>
        <pt x="1110" y="501" on="0"/>
      </contour>
    </TTGlyph>
    <TTGlyph name="Dcroat" xMin="21" yMin="0" xMax="1496" yMax="1384">
      <contour>
        <pt x="1496" y="699" on="1"/>
        <pt x="1496" y="385" on="0"/>
        <pt x="1341" y="219" on="1"/>
        <pt x="1228" y="96" on="0"/>
        <pt x="854" y="0" on="0"/>
        <pt x="592" y="0" on="1"/>
        <pt x="53" y="0" on="1"/>
        <pt x="70" y="84" on="1"/>
        <pt x="246" y="164" on="1"/>
        <pt x="246" y="597" on="1"/>
        <pt x="21" y="590" on="1"/>
        <pt x="59" y="791" on="1"/>
        <pt x="246" y="791" on="1"/>
        <pt x="246" y="1221" on="1"/>
        <pt x="59" y="1303" on="1"/>
        <pt x="76" y="1384" on="1"/>
        <pt x="565" y="1384" on="1"/>
        <pt x="706" y="1384" on="0"/>
        <pt x="916" y="1373" on="0"/>
        <pt x="1125" y="1328" on="0"/>
        <pt x="1204" y="1282" on="1"/>
        <pt x="1359" y="1192" on="0"/>
        <pt x="1496" y="889" on="0"/>
      </contour>
      <contour>
        <pt x="1111" y="697" on="1"/>
        <pt x="1111" y="1002" on="0"/>
        <pt x="926" y="1156" on="1"/>
        <pt x="873" y="1201" on="0"/>
        <pt x="706" y="1266" on="0"/>
        <pt x="615" y="1280" on="1"/>
        <pt x="615" y="791" on="1"/>
        <pt x="907" y="791" on="1"/>
        <pt x="866" y="617" on="1"/>
        <pt x="615" y="609" on="1"/>
        <pt x="615" y="107" on="1"/>
        <pt x="775" y="132" on="0"/>
        <pt x="992" y="257" on="0"/>
        <pt x="1111" y="501" on="0"/>
      </contour>
    </TTGlyph>
    <TTGlyph name="Delta" xMin="75" yMin="0" xMax="1324" yMax="1419">
      <contour>
        <pt x="810" y="1419" on="1"/>
        <pt x="1324" y="90" on="1"/>
        <pt x="1302" y="0" on="1"/>
        <pt x="97" y="0" on="1"/>
        <pt x="75" y="91" on="1"/>
        <pt x="658" y="1419" on="1"/>
      </contour>
      <contour>
        <pt x="663" y="949" on="1"/>
        <pt x="358" y="248" on="1"/>
        <pt x="910" y="267" on="1"/>
      </contour>
    </TTGlyph>
    <TTGlyph name="E" xMin="46" yMin="0" xMax="1346" yMax="1397">
      <contour>
        <pt x="1214" y="371" on="1"/>
        <pt x="1346" y="354" on="1"/>
        <pt x="1268" y="0" on="1"/>
        <pt x="46" y="0" on="1"/>
        <pt x="63" y="90" on="1"/>
        <pt x="246" y="166" on="1"/>
        <pt x="246" y="1221" on="1"/>
        <pt x="59" y="1304" on="1"/>
        <pt x="77" y="1384" on="1"/>
        <pt x="1089" y="1384" on="1"/>
        <pt x="1234" y="1397" on="1"/>
        <pt x="1273" y="1046" on="1"/>
        <pt x="1132" y="1020" on="1"/>
        <pt x="1038" y="1227" on="1"/>
        <pt x="615" y="1296" on="1"/>
        <pt x="615" y="741" on="1"/>
        <pt x="739" y="768" on="0"/>
        <pt x="853" y="781" on="1"/>
        <pt x="920" y="950" on="1"/>
        <pt x="1022" y="930" on="1"/>
        <pt x="1005" y="447" on="1"/>
        <pt x="900" y="464" on="1"/>
        <pt x="853" y="622" on="1"/>
        <pt x="719" y="634" on="0"/>
        <pt x="615" y="659" on="1"/>
        <pt x="615" y="99" on="1"/>
        <pt x="1093" y="171" on="1"/>
      </contour>
    </TTGlyph>
    <TTGlyph name="Eacute" xMin="46" yMin="0" xMax="1346" yMax="1811">
      <contour>
        <pt x="819" y="1811" on="1"/>
        <pt x="991" y="1811" on="1"/>
        <pt x="1027" y="1637" on="1"/>
        <pt x="507" y="1486" on="1"/>
        <pt x="480" y="1596" on="1"/>
      </contour>
      <contour>
        <pt x="1214" y="371" on="1"/>
        <pt x="1346" y="354" on="1"/>
        <pt x="1268" y="0" on="1"/>
        <pt x="46" y="0" on="1"/>
        <pt x="63" y="90" on="1"/>
        <pt x="246" y="166" on="1"/>
        <pt x="246" y="1221" on="1"/>
        <pt x="59" y="1304" on="1"/>
        <pt x="77" y="1384" on="1"/>
        <pt x="1089" y="1384" on="1"/>
        <pt x="1234" y="1397" on="1"/>
        <pt x="1273" y="1046" on="1"/>
        <pt x="1132" y="1020" on="1"/>
        <pt x="1038" y="1227" on="1"/>
        <pt x="615" y="1296" on="1"/>
        <pt x="615" y="741" on="1"/>
        <pt x="739" y="768" on="0"/>
        <pt x="853" y="781" on="1"/>
        <pt x="920" y="950" on="1"/>
        <pt x="1022" y="930" on="1"/>
        <pt x="1005" y="447" on="1"/>
        <pt x="900" y="464" on="1"/>
        <pt x="853" y="622" on="1"/>
        <pt x="719" y="634" on="0"/>
        <pt x="615" y="659" on="1"/>
        <pt x="615" y="99" on="1"/>
        <pt x="1093" y="171" on="1"/>
      </contour>
    </TTGlyph>
    <TTGlyph name="Ecaron" xMin="46" yMin="0" xMax="1346" yMax="1827">
      <contour>
        <pt x="423" y="1827" on="1"/>
        <pt x="685" y="1702" on="1"/>
        <pt x="948" y="1827" on="1"/>
        <pt x="1042" y="1748" on="1"/>
        <pt x="758" y="1515" on="1"/>
        <pt x="613" y="1515" on="1"/>
        <pt x="329" y="1748" on="1"/>
      </contour>
      <contour>
        <pt x="1214" y="371" on="1"/>
        <pt x="1346" y="354" on="1"/>
        <pt x="1268" y="0" on="1"/>
        <pt x="46" y="0" on="1"/>
        <pt x="63" y="90" on="1"/>
        <pt x="246" y="166" on="1"/>
        <pt x="246" y="1221" on="1"/>
        <pt x="59" y="1304" on="1"/>
        <pt x="77" y="1384" on="1"/>
        <pt x="1089" y="1384" on="1"/>
        <pt x="1234" y="1397" on="1"/>
        <pt x="1273" y="1046" on="1"/>
        <pt x="1132" y="1020" on="1"/>
        <pt x="1038" y="1227" on="1"/>
        <pt x="615" y="1296" on="1"/>
        <pt x="615" y="741" on="1"/>
        <pt x="739" y="768" on="0"/>
        <pt x="853" y="781" on="1"/>
        <pt x="920" y="950" on="1"/>
        <pt x="1022" y="930" on="1"/>
        <pt x="1005" y="447" on="1"/>
        <pt x="900" y="464" on="1"/>
        <pt x="853" y="622" on="1"/>
        <pt x="719" y="634" on="0"/>
        <pt x="615" y="659" on="1"/>
        <pt x="615" y="99" on="1"/>
        <pt x="1093" y="171" on="1"/>
      </contour>
    </TTGlyph>
    <TTGlyph name="Ecircumflex" xMin="46" yMin="0" xMax="1346" yMax="1805">
      <contour>
        <pt x="622" y="1805" on="1"/>
        <pt x="751" y="1805" on="1"/>
        <pt x="1047" y="1554" on="1"/>
        <pt x="948" y="1475" on="1"/>
        <pt x="687" y="1598" on="1"/>
        <pt x="426" y="1475" on="1"/>
        <pt x="327" y="1554" on="1"/>
      </contour>
      <contour>
        <pt x="1214" y="371" on="1"/>
        <pt x="1346" y="354" on="1"/>
        <pt x="1268" y="0" on="1"/>
        <pt x="46" y="0" on="1"/>
        <pt x="63" y="90" on="1"/>
        <pt x="246" y="166" on="1"/>
        <pt x="246" y="1221" on="1"/>
        <pt x="59" y="1304" on="1"/>
        <pt x="77" y="1384" on="1"/>
        <pt x="1089" y="1384" on="1"/>
        <pt x="1234" y="1397" on="1"/>
        <pt x="1273" y="1046" on="1"/>
        <pt x="1132" y="1020" on="1"/>
        <pt x="1038" y="1227" on="1"/>
        <pt x="615" y="1296" on="1"/>
        <pt x="615" y="741" on="1"/>
        <pt x="739" y="768" on="0"/>
        <pt x="853" y="781" on="1"/>
        <pt x="920" y="950" on="1"/>
        <pt x="1022" y="930" on="1"/>
        <pt x="1005" y="447" on="1"/>
        <pt x="900" y="464" on="1"/>
        <pt x="853" y="622" on="1"/>
        <pt x="719" y="634" on="0"/>
        <pt x="615" y="659" on="1"/>
        <pt x="615" y="99" on="1"/>
        <pt x="1093" y="171" on="1"/>
      </contour>
    </TTGlyph>
    <TTGlyph name="Edieresis" xMin="46" yMin="0" xMax="1346" yMax="1831">
      <contour>
        <pt x="429" y="1831" on="1"/>
        <pt x="450" y="1831" on="0"/>
        <pt x="533" y="1765" on="0"/>
        <pt x="599" y="1682" on="0"/>
        <pt x="599" y="1658" on="1"/>
        <pt x="599" y="1635" on="0"/>
        <pt x="534" y="1551" on="0"/>
        <pt x="449" y="1485" on="0"/>
        <pt x="423" y="1485" on="1"/>
        <pt x="401" y="1485" on="0"/>
        <pt x="319" y="1552" on="0"/>
        <pt x="253" y="1637" on="0"/>
        <pt x="253" y="1660" on="1"/>
        <pt x="253" y="1684" on="0"/>
        <pt x="319" y="1766" on="0"/>
        <pt x="403" y="1831" on="0"/>
      </contour>
      <contour>
        <pt x="948" y="1831" on="1"/>
        <pt x="969" y="1831" on="0"/>
        <pt x="1052" y="1765" on="0"/>
        <pt x="1118" y="1682" on="0"/>
        <pt x="1118" y="1658" on="1"/>
        <pt x="1118" y="1635" on="0"/>
        <pt x="1053" y="1551" on="0"/>
        <pt x="968" y="1485" on="0"/>
        <pt x="942" y="1485" on="1"/>
        <pt x="920" y="1485" on="0"/>
        <pt x="838" y="1552" on="0"/>
        <pt x="772" y="1637" on="0"/>
        <pt x="772" y="1660" on="1"/>
        <pt x="772" y="1684" on="0"/>
        <pt x="838" y="1766" on="0"/>
        <pt x="922" y="1831" on="0"/>
      </contour>
      <contour>
        <pt x="1214" y="371" on="1"/>
        <pt x="1346" y="354" on="1"/>
        <pt x="1268" y="0" on="1"/>
        <pt x="46" y="0" on="1"/>
        <pt x="63" y="90" on="1"/>
        <pt x="246" y="166" on="1"/>
        <pt x="246" y="1221" on="1"/>
        <pt x="59" y="1304" on="1"/>
        <pt x="77" y="1384" on="1"/>
        <pt x="1089" y="1384" on="1"/>
        <pt x="1234" y="1397" on="1"/>
        <pt x="1273" y="1046" on="1"/>
        <pt x="1132" y="1020" on="1"/>
        <pt x="1038" y="1227" on="1"/>
        <pt x="615" y="1296" on="1"/>
        <pt x="615" y="741" on="1"/>
        <pt x="739" y="768" on="0"/>
        <pt x="853" y="781" on="1"/>
        <pt x="920" y="950" on="1"/>
        <pt x="1022" y="930" on="1"/>
        <pt x="1005" y="447" on="1"/>
        <pt x="900" y="464" on="1"/>
        <pt x="853" y="622" on="1"/>
        <pt x="719" y="634" on="0"/>
        <pt x="615" y="659" on="1"/>
        <pt x="615" y="99" on="1"/>
        <pt x="1093" y="171" on="1"/>
      </contour>
    </TTGlyph>
    <TTGlyph name="Edotaccent" xMin="46" yMin="0" xMax="1346" yMax="1831">
      <contour>
        <pt x="508" y="1660" on="1"/>
        <pt x="508" y="1684" on="0"/>
        <pt x="574" y="1766" on="0"/>
        <pt x="658" y="1831" on="0"/>
        <pt x="684" y="1831" on="1"/>
        <pt x="705" y="1831" on="0"/>
        <pt x="788" y="1765" on="0"/>
        <pt x="854" y="1682" on="0"/>
        <pt x="854" y="1658" on="1"/>
        <pt x="854" y="1635" on="0"/>
        <pt x="789" y="1551" on="0"/>
        <pt x="704" y="1485" on="0"/>
        <pt x="678" y="1485" on="1"/>
        <pt x="656" y="1485" on="0"/>
        <pt x="574" y="1552" on="0"/>
        <pt x="508" y="1637" on="0"/>
      </contour>
      <contour>
        <pt x="1214" y="371" on="1"/>
        <pt x="1346" y="354" on="1"/>
        <pt x="1268" y="0" on="1"/>
        <pt x="46" y="0" on="1"/>
        <pt x="63" y="90" on="1"/>
        <pt x="246" y="166" on="1"/>
        <pt x="246" y="1221" on="1"/>
        <pt x="59" y="1304" on="1"/>
        <pt x="77" y="1384" on="1"/>
        <pt x="1089" y="1384" on="1"/>
        <pt x="1234" y="1397" on="1"/>
        <pt x="1273" y="1046" on="1"/>
        <pt x="1132" y="1020" on="1"/>
        <pt x="1038" y="1227" on="1"/>
        <pt x="615" y="1296" on="1"/>
        <pt x="615" y="741" on="1"/>
        <pt x="739" y="768" on="0"/>
        <pt x="853" y="781" on="1"/>
        <pt x="920" y="950" on="1"/>
        <pt x="1022" y="930" on="1"/>
        <pt x="1005" y="447" on="1"/>
        <pt x="900" y="464" on="1"/>
        <pt x="853" y="622" on="1"/>
        <pt x="719" y="634" on="0"/>
        <pt x="615" y="659" on="1"/>
        <pt x="615" y="99" on="1"/>
        <pt x="1093" y="171" on="1"/>
      </contour>
    </TTGlyph>
    <TTGlyph name="Egrave" xMin="46" yMin="0" xMax="1346" yMax="1811">
      <contour>
        <pt x="448" y="1811" on="1"/>
        <pt x="621" y="1811" on="1"/>
        <pt x="957" y="1598" on="1"/>
        <pt x="933" y="1484" on="1"/>
        <pt x="412" y="1638" on="1"/>
      </contour>
      <contour>
        <pt x="1214" y="371" on="1"/>
        <pt x="1346" y="354" on="1"/>
        <pt x="1268" y="0" on="1"/>
        <pt x="46" y="0" on="1"/>
        <pt x="63" y="90" on="1"/>
        <pt x="246" y="166" on="1"/>
        <pt x="246" y="1221" on="1"/>
        <pt x="59" y="1304" on="1"/>
        <pt x="77" y="1384" on="1"/>
        <pt x="1089" y="1384" on="1"/>
        <pt x="1234" y="1397" on="1"/>
        <pt x="1273" y="1046" on="1"/>
        <pt x="1132" y="1020" on="1"/>
        <pt x="1038" y="1227" on="1"/>
        <pt x="615" y="1296" on="1"/>
        <pt x="615" y="741" on="1"/>
        <pt x="739" y="768" on="0"/>
        <pt x="853" y="781" on="1"/>
        <pt x="920" y="950" on="1"/>
        <pt x="1022" y="930" on="1"/>
        <pt x="1005" y="447" on="1"/>
        <pt x="900" y="464" on="1"/>
        <pt x="853" y="622" on="1"/>
        <pt x="719" y="634" on="0"/>
        <pt x="615" y="659" on="1"/>
        <pt x="615" y="99" on="1"/>
        <pt x="1093" y="171" on="1"/>
      </contour>
    </TTGlyph>
    <TTGlyph name="Emacron" xMin="46" yMin="0" xMax="1346" yMax="1717">
      <contour>
        <pt x="1021" y="1717" on="1"/>
        <pt x="989" y="1540" on="1"/>
        <pt x="868" y="1534" on="0"/>
        <pt x="488" y="1528" on="0"/>
        <pt x="349" y="1528" on="1"/>
        <pt x="384" y="1717" on="1"/>
      </contour>
      <contour>
        <pt x="1214" y="371" on="1"/>
        <pt x="1346" y="354" on="1"/>
        <pt x="1268" y="0" on="1"/>
        <pt x="46" y="0" on="1"/>
        <pt x="63" y="90" on="1"/>
        <pt x="246" y="166" on="1"/>
        <pt x="246" y="1221" on="1"/>
        <pt x="59" y="1304" on="1"/>
        <pt x="77" y="1384" on="1"/>
        <pt x="1089" y="1384" on="1"/>
        <pt x="1234" y="1397" on="1"/>
        <pt x="1273" y="1046" on="1"/>
        <pt x="1132" y="1020" on="1"/>
        <pt x="1038" y="1227" on="1"/>
        <pt x="615" y="1296" on="1"/>
        <pt x="615" y="741" on="1"/>
        <pt x="739" y="768" on="0"/>
        <pt x="853" y="781" on="1"/>
        <pt x="920" y="950" on="1"/>
        <pt x="1022" y="930" on="1"/>
        <pt x="1005" y="447" on="1"/>
        <pt x="900" y="464" on="1"/>
        <pt x="853" y="622" on="1"/>
        <pt x="719" y="634" on="0"/>
        <pt x="615" y="659" on="1"/>
        <pt x="615" y="99" on="1"/>
        <pt x="1093" y="171" on="1"/>
      </contour>
    </TTGlyph>
    <TTGlyph name="Eogonek" xMin="46" yMin="-504" xMax="1346" yMax="1397">
      <contour>
        <pt x="1268" y="-307" on="1"/>
        <pt x="1296" y="-352" on="1"/>
        <pt x="1234" y="-426" on="0"/>
        <pt x="1074" y="-504" on="0"/>
        <pt x="986" y="-504" on="1"/>
        <pt x="917" y="-504" on="0"/>
        <pt x="797" y="-456" on="0"/>
        <pt x="723" y="-354" on="0"/>
        <pt x="723" y="-277" on="1"/>
        <pt x="723" y="-180" on="0"/>
        <pt x="820" y="-97" on="1"/>
        <pt x="884" y="-42" on="0"/>
        <pt x="974" y="0" on="1"/>
        <pt x="46" y="0" on="1"/>
        <pt x="63" y="90" on="1"/>
        <pt x="246" y="166" on="1"/>
        <pt x="246" y="1221" on="1"/>
        <pt x="59" y="1304" on="1"/>
        <pt x="77" y="1384" on="1"/>
        <pt x="1089" y="1384" on="1"/>
        <pt x="1234" y="1397" on="1"/>
        <pt x="1273" y="1046" on="1"/>
        <pt x="1132" y="1020" on="1"/>
        <pt x="1038" y="1227" on="1"/>
        <pt x="615" y="1296" on="1"/>
        <pt x="615" y="741" on="1"/>
        <pt x="739" y="768" on="0"/>
        <pt x="853" y="781" on="1"/>
        <pt x="920" y="950" on="1"/>
        <pt x="1022" y="930" on="1"/>
        <pt x="1005" y="447" on="1"/>
        <pt x="900" y="464" on="1"/>
        <pt x="853" y="622" on="1"/>
        <pt x="719" y="634" on="0"/>
        <pt x="615" y="659" on="1"/>
        <pt x="615" y="99" on="1"/>
        <pt x="1093" y="171" on="1"/>
        <pt x="1214" y="371" on="1"/>
        <pt x="1346" y="354" on="1"/>
        <pt x="1268" y="0" on="1"/>
        <pt x="1179" y="0" on="1"/>
        <pt x="1076" y="-83" on="0"/>
        <pt x="992" y="-179" on="0"/>
        <pt x="992" y="-226" on="1"/>
        <pt x="992" y="-263" on="0"/>
        <pt x="1027" y="-333" on="0"/>
        <pt x="1057" y="-347" on="1"/>
        <pt x="1073" y="-355" on="0"/>
        <pt x="1091" y="-355" on="1"/>
        <pt x="1121" y="-355" on="0"/>
        <pt x="1219" y="-328" on="0"/>
      </contour>
    </TTGlyph>
    <TTGlyph name="Eth" xMin="20" yMin="0" xMax="1495" yMax="1384">
      <contour>
        <pt x="1495" y="699" on="1"/>
        <pt x="1495" y="385" on="0"/>
        <pt x="1340" y="219" on="1"/>
        <pt x="1227" y="96" on="0"/>
        <pt x="853" y="0" on="0"/>
        <pt x="591" y="0" on="1"/>
        <pt x="52" y="0" on="1"/>
        <pt x="69" y="84" on="1"/>
        <pt x="245" y="164" on="1"/>
        <pt x="245" y="597" on="1"/>
        <pt x="20" y="590" on="1"/>
        <pt x="58" y="791" on="1"/>
        <pt x="245" y="791" on="1"/>
        <pt x="245" y="1221" on="1"/>
        <pt x="58" y="1303" on="1"/>
        <pt x="75" y="1384" on="1"/>
        <pt x="564" y="1384" on="1"/>
        <pt x="705" y="1384" on="0"/>
        <pt x="915" y="1373" on="0"/>
        <pt x="1124" y="1328" on="0"/>
        <pt x="1203" y="1282" on="1"/>
        <pt x="1358" y="1192" on="0"/>
        <pt x="1495" y="889" on="0"/>
      </contour>
      <contour>
        <pt x="1110" y="697" on="1"/>
        <pt x="1110" y="1002" on="0"/>
        <pt x="925" y="1156" on="1"/>
        <pt x="872" y="1201" on="0"/>
        <pt x="705" y="1266" on="0"/>
        <pt x="614" y="1280" on="1"/>
        <pt x="614" y="791" on="1"/>
        <pt x="906" y="791" on="1"/>
        <pt x="865" y="617" on="1"/>
        <pt x="614" y="609" on="1"/>
        <pt x="614" y="107" on="1"/>
        <pt x="774" y="132" on="0"/>
        <pt x="991" y="257" on="0"/>
        <pt x="1110" y="501" on="0"/>
      </contour>
    </TTGlyph>
    <TTGlyph name="Euro" xMin="43" yMin="-26" xMax="1169" yMax="1339">
      <contour>
        <pt x="1136" y="73" on="1"/>
        <pt x="931" y="-26" on="0"/>
        <pt x="744" y="-26" on="1"/>
        <pt x="605" y="-26" on="0"/>
        <pt x="369" y="86" on="0"/>
        <pt x="209" y="295" on="0"/>
        <pt x="181" y="436" on="1"/>
        <pt x="111" y="440" on="0"/>
        <pt x="43" y="452" on="1"/>
        <pt x="63" y="562" on="1"/>
        <pt x="168" y="562" on="1"/>
        <pt x="168" y="576" on="1"/>
        <pt x="168" y="644" on="0"/>
        <pt x="173" y="719" on="1"/>
        <pt x="98" y="724" on="0"/>
        <pt x="43" y="734" on="1"/>
        <pt x="63" y="844" on="1"/>
        <pt x="189" y="844" on="1"/>
        <pt x="214" y="979" on="0"/>
        <pt x="325" y="1171" on="0"/>
        <pt x="415" y="1231" on="1"/>
        <pt x="494" y="1283" on="0"/>
        <pt x="707" y="1339" on="0"/>
        <pt x="820" y="1339" on="1"/>
        <pt x="994" y="1339" on="0"/>
        <pt x="1132" y="1268" on="1"/>
        <pt x="1165" y="992" on="1"/>
        <pt x="1085" y="974" on="1"/>
        <pt x="996" y="1137" on="1"/>
        <pt x="965" y="1170" on="0"/>
        <pt x="859" y="1202" on="0"/>
        <pt x="798" y="1202" on="1"/>
        <pt x="749" y="1202" on="0"/>
        <pt x="661" y="1184" on="0"/>
        <pt x="634" y="1165" on="1"/>
        <pt x="601" y="1143" on="0"/>
        <pt x="540" y="977" on="0"/>
        <pt x="526" y="844" on="1"/>
        <pt x="862" y="844" on="1"/>
        <pt x="844" y="745" on="1"/>
        <pt x="703" y="726" on="0"/>
        <pt x="517" y="717" on="1"/>
        <pt x="516" y="694" on="0"/>
        <pt x="516" y="646" on="1"/>
        <pt x="516" y="601" on="0"/>
        <pt x="520" y="562" on="1"/>
        <pt x="862" y="562" on="1"/>
        <pt x="844" y="463" on="1"/>
        <pt x="720" y="446" on="0"/>
        <pt x="539" y="436" on="1"/>
        <pt x="558" y="355" on="0"/>
        <pt x="582" y="306" on="1"/>
        <pt x="602" y="266" on="0"/>
        <pt x="672" y="170" on="0"/>
        <pt x="758" y="100" on="0"/>
        <pt x="798" y="100" on="1"/>
        <pt x="845" y="100" on="0"/>
        <pt x="954" y="129" on="0"/>
        <pt x="986" y="151" on="1"/>
        <pt x="1074" y="323" on="1"/>
        <pt x="1169" y="302" on="1"/>
      </contour>
    </TTGlyph>
    <TTGlyph name="F" xMin="39" yMin="0" xMax="1299" yMax="1397">
      <contour>
        <pt x="66" y="1384" on="1"/>
        <pt x="1136" y="1384" on="1"/>
        <pt x="1263" y="1397" on="1"/>
        <pt x="1299" y="1042" on="1"/>
        <pt x="1161" y="1022" on="1"/>
        <pt x="1065" y="1227" on="1"/>
        <pt x="604" y="1296" on="1"/>
        <pt x="604" y="741" on="1"/>
        <pt x="719" y="761" on="0"/>
        <pt x="880" y="782" on="1"/>
        <pt x="947" y="950" on="1"/>
        <pt x="1050" y="928" on="1"/>
        <pt x="1032" y="443" on="1"/>
        <pt x="926" y="458" on="1"/>
        <pt x="880" y="622" on="1"/>
        <pt x="747" y="629" on="0"/>
        <pt x="604" y="647" on="1"/>
        <pt x="604" y="157" on="1"/>
        <pt x="899" y="102" on="1"/>
        <pt x="860" y="0" on="1"/>
        <pt x="39" y="0" on="1"/>
        <pt x="56" y="87" on="1"/>
        <pt x="235" y="166" on="1"/>
        <pt x="235" y="1221" on="1"/>
        <pt x="48" y="1303" on="1"/>
      </contour>
    </TTGlyph>
    <TTGlyph name="G" xMin="70" yMin="-35" xMax="1513" yMax="1418">
      <contour>
        <pt x="751" y="666" on="1"/>
        <pt x="1513" y="666" on="1"/>
        <pt x="1499" y="577" on="1"/>
        <pt x="1377" y="490" on="1"/>
        <pt x="1376" y="214" on="1"/>
        <pt x="1326" y="149" on="0"/>
        <pt x="1147" y="35" on="0"/>
        <pt x="921" y="-35" on="0"/>
        <pt x="806" y="-35" on="1"/>
        <pt x="628" y="-35" on="0"/>
        <pt x="348" y="58" on="0"/>
        <pt x="253" y="150" on="1"/>
        <pt x="164" y="237" on="0"/>
        <pt x="70" y="489" on="0"/>
        <pt x="70" y="653" on="1"/>
        <pt x="70" y="849" on="0"/>
        <pt x="213" y="1167" on="0"/>
        <pt x="344" y="1269" on="1"/>
        <pt x="437" y="1341" on="0"/>
        <pt x="670" y="1418" on="0"/>
        <pt x="805" y="1418" on="1"/>
        <pt x="969" y="1418" on="0"/>
        <pt x="1122" y="1386" on="1"/>
        <pt x="1284" y="1399" on="1"/>
        <pt x="1327" y="1018" on="1"/>
        <pt x="1187" y="998" on="1"/>
        <pt x="1118" y="1164" on="1"/>
        <pt x="1054" y="1216" on="0"/>
        <pt x="869" y="1271" on="0"/>
        <pt x="776" y="1271" on="1"/>
        <pt x="710" y="1271" on="0"/>
        <pt x="591" y="1251" on="0"/>
        <pt x="567" y="1231" on="1"/>
        <pt x="509" y="1182" on="0"/>
        <pt x="451" y="906" on="0"/>
        <pt x="451" y="722" on="1"/>
        <pt x="451" y="556" on="0"/>
        <pt x="522" y="314" on="0"/>
        <pt x="583" y="241" on="1"/>
        <pt x="682" y="121" on="0"/>
        <pt x="850" y="121" on="1"/>
        <pt x="892" y="121" on="0"/>
        <pt x="986" y="137" on="0"/>
        <pt x="1014" y="151" on="1"/>
        <pt x="1014" y="498" on="1"/>
        <pt x="736" y="584" on="1"/>
      </contour>
    </TTGlyph>
    <TTGlyph name="Gbreve" xMin="70" yMin="-35" xMax="1513" yMax="1808">
      <contour>
        <pt x="465" y="1727" on="1"/>
        <pt x="465" y="1758" on="0"/>
        <pt x="478" y="1802" on="0"/>
        <pt x="491" y="1808" on="1"/>
        <pt x="628" y="1808" on="1"/>
        <pt x="652" y="1714" on="0"/>
        <pt x="731" y="1638" on="0"/>
        <pt x="801" y="1638" on="1"/>
        <pt x="866" y="1638" on="0"/>
        <pt x="941" y="1715" on="0"/>
        <pt x="964" y="1808" on="1"/>
        <pt x="1101" y="1808" on="1"/>
        <pt x="1111" y="1802" on="0"/>
        <pt x="1125" y="1764" on="0"/>
        <pt x="1125" y="1736" on="1"/>
        <pt x="1125" y="1656" on="0"/>
        <pt x="1038" y="1534" on="0"/>
        <pt x="890" y="1468" on="0"/>
        <pt x="801" y="1468" on="1"/>
        <pt x="707" y="1468" on="0"/>
        <pt x="554" y="1532" on="0"/>
        <pt x="465" y="1650" on="0"/>
      </contour>
      <contour>
        <pt x="751" y="666" on="1"/>
        <pt x="1513" y="666" on="1"/>
        <pt x="1499" y="577" on="1"/>
        <pt x="1377" y="490" on="1"/>
        <pt x="1376" y="214" on="1"/>
        <pt x="1326" y="149" on="0"/>
        <pt x="1147" y="35" on="0"/>
        <pt x="921" y="-35" on="0"/>
        <pt x="806" y="-35" on="1"/>
        <pt x="628" y="-35" on="0"/>
        <pt x="348" y="58" on="0"/>
        <pt x="253" y="150" on="1"/>
        <pt x="164" y="237" on="0"/>
        <pt x="70" y="489" on="0"/>
        <pt x="70" y="653" on="1"/>
        <pt x="70" y="849" on="0"/>
        <pt x="213" y="1167" on="0"/>
        <pt x="344" y="1269" on="1"/>
        <pt x="437" y="1341" on="0"/>
        <pt x="670" y="1418" on="0"/>
        <pt x="805" y="1418" on="1"/>
        <pt x="969" y="1418" on="0"/>
        <pt x="1122" y="1386" on="1"/>
        <pt x="1284" y="1399" on="1"/>
        <pt x="1327" y="1018" on="1"/>
        <pt x="1187" y="998" on="1"/>
        <pt x="1118" y="1164" on="1"/>
        <pt x="1054" y="1216" on="0"/>
        <pt x="869" y="1271" on="0"/>
        <pt x="776" y="1271" on="1"/>
        <pt x="710" y="1271" on="0"/>
        <pt x="591" y="1251" on="0"/>
        <pt x="567" y="1231" on="1"/>
        <pt x="509" y="1182" on="0"/>
        <pt x="451" y="906" on="0"/>
        <pt x="451" y="722" on="1"/>
        <pt x="451" y="556" on="0"/>
        <pt x="522" y="314" on="0"/>
        <pt x="583" y="241" on="1"/>
        <pt x="682" y="121" on="0"/>
        <pt x="850" y="121" on="1"/>
        <pt x="892" y="121" on="0"/>
        <pt x="986" y="137" on="0"/>
        <pt x="1014" y="151" on="1"/>
        <pt x="1014" y="498" on="1"/>
        <pt x="736" y="584" on="1"/>
      </contour>
    </TTGlyph>
    <TTGlyph name="Gcommaaccent" xMin="70" yMin="-561" xMax="1513" yMax="1418">
      <contour>
        <pt x="751" y="666" on="1"/>
        <pt x="1513" y="666" on="1"/>
        <pt x="1499" y="577" on="1"/>
        <pt x="1377" y="490" on="1"/>
        <pt x="1376" y="214" on="1"/>
        <pt x="1326" y="149" on="0"/>
        <pt x="1147" y="35" on="0"/>
        <pt x="921" y="-35" on="0"/>
        <pt x="806" y="-35" on="1"/>
        <pt x="628" y="-35" on="0"/>
        <pt x="348" y="58" on="0"/>
        <pt x="253" y="150" on="1"/>
        <pt x="164" y="237" on="0"/>
        <pt x="70" y="489" on="0"/>
        <pt x="70" y="653" on="1"/>
        <pt x="70" y="849" on="0"/>
        <pt x="213" y="1167" on="0"/>
        <pt x="344" y="1269" on="1"/>
        <pt x="437" y="1341" on="0"/>
        <pt x="670" y="1418" on="0"/>
        <pt x="805" y="1418" on="1"/>
        <pt x="969" y="1418" on="0"/>
        <pt x="1122" y="1386" on="1"/>
        <pt x="1284" y="1399" on="1"/>
        <pt x="1327" y="1018" on="1"/>
        <pt x="1187" y="998" on="1"/>
        <pt x="1118" y="1164" on="1"/>
        <pt x="1054" y="1216" on="0"/>
        <pt x="869" y="1271" on="0"/>
        <pt x="776" y="1271" on="1"/>
        <pt x="710" y="1271" on="0"/>
        <pt x="591" y="1251" on="0"/>
        <pt x="567" y="1231" on="1"/>
        <pt x="509" y="1182" on="0"/>
        <pt x="451" y="906" on="0"/>
        <pt x="451" y="722" on="1"/>
        <pt x="451" y="556" on="0"/>
        <pt x="522" y="314" on="0"/>
        <pt x="583" y="241" on="1"/>
        <pt x="682" y="121" on="0"/>
        <pt x="850" y="121" on="1"/>
        <pt x="892" y="121" on="0"/>
        <pt x="986" y="137" on="0"/>
        <pt x="1014" y="151" on="1"/>
        <pt x="1014" y="498" on="1"/>
        <pt x="736" y="584" on="1"/>
      </contour>
      <contour>
        <pt x="940" y="-176" on="1"/>
        <pt x="975" y="-205" on="0"/>
        <pt x="1008" y="-274" on="0"/>
        <pt x="1008" y="-319" on="1"/>
        <pt x="1008" y="-394" on="0"/>
        <pt x="904" y="-504" on="0"/>
        <pt x="759" y="-561" on="0"/>
        <pt x="702" y="-561" on="1"/>
        <pt x="672" y="-479" on="1"/>
        <pt x="737" y="-437" on="0"/>
        <pt x="797" y="-390" on="0"/>
        <pt x="816" y="-363" on="0"/>
        <pt x="815" y="-348" on="1"/>
        <pt x="814" y="-328" on="0"/>
        <pt x="743" y="-294" on="0"/>
        <pt x="681" y="-282" on="1"/>
        <pt x="721" y="-106" on="1"/>
        <pt x="782" y="-106" on="0"/>
        <pt x="897" y="-140" on="0"/>
      </contour>
    </TTGlyph>
    <TTGlyph name="H" xMin="49" yMin="0" xMax="1695" yMax="1384">
      <contour>
        <pt x="791" y="0" on="1"/>
        <pt x="49" y="0" on="1"/>
        <pt x="67" y="86" on="1"/>
        <pt x="245" y="166" on="1"/>
        <pt x="245" y="1221" on="1"/>
        <pt x="58" y="1304" on="1"/>
        <pt x="75" y="1384" on="1"/>
        <pt x="788" y="1384" on="1"/>
        <pt x="769" y="1295" on="1"/>
        <pt x="605" y="1215" on="1"/>
        <pt x="605" y="782" on="1"/>
        <pt x="1138" y="782" on="1"/>
        <pt x="1138" y="1221" on="1"/>
        <pt x="964" y="1304" on="1"/>
        <pt x="981" y="1384" on="1"/>
        <pt x="1695" y="1384" on="1"/>
        <pt x="1678" y="1301" on="1"/>
        <pt x="1498" y="1220" on="1"/>
        <pt x="1498" y="163" on="1"/>
        <pt x="1686" y="80" on="1"/>
        <pt x="1669" y="0" on="1"/>
        <pt x="927" y="0" on="1"/>
        <pt x="944" y="86" on="1"/>
        <pt x="1138" y="166" on="1"/>
        <pt x="1138" y="610" on="1"/>
        <pt x="923" y="598" on="0"/>
        <pt x="605" y="589" on="1"/>
        <pt x="605" y="168" on="1"/>
        <pt x="811" y="86" on="1"/>
      </contour>
    </TTGlyph>
    <TTGlyph name="I" xMin="50" yMin="0" xMax="811" yMax="1384">
      <contour>
        <pt x="245" y="1221" on="1"/>
        <pt x="58" y="1303" on="1"/>
        <pt x="75" y="1384" on="1"/>
        <pt x="811" y="1384" on="1"/>
        <pt x="796" y="1301" on="1"/>
        <pt x="614" y="1219" on="1"/>
        <pt x="614" y="165" on="1"/>
        <pt x="805" y="81" on="1"/>
        <pt x="788" y="0" on="1"/>
        <pt x="50" y="0" on="1"/>
        <pt x="68" y="85" on="1"/>
        <pt x="245" y="165" on="1"/>
      </contour>
    </TTGlyph>
    <TTGlyph name="Iacute" xMin="50" yMin="0" xMax="811" yMax="1811">
      <contour>
        <pt x="564" y="1811" on="1"/>
        <pt x="736" y="1811" on="1"/>
        <pt x="772" y="1637" on="1"/>
        <pt x="252" y="1486" on="1"/>
        <pt x="225" y="1596" on="1"/>
      </contour>
      <contour>
        <pt x="245" y="1221" on="1"/>
        <pt x="58" y="1303" on="1"/>
        <pt x="75" y="1384" on="1"/>
        <pt x="811" y="1384" on="1"/>
        <pt x="796" y="1301" on="1"/>
        <pt x="614" y="1219" on="1"/>
        <pt x="614" y="165" on="1"/>
        <pt x="805" y="81" on="1"/>
        <pt x="788" y="0" on="1"/>
        <pt x="50" y="0" on="1"/>
        <pt x="68" y="85" on="1"/>
        <pt x="245" y="165" on="1"/>
      </contour>
    </TTGlyph>
    <TTGlyph name="Icircumflex" xMin="50" yMin="0" xMax="811" yMax="1805">
      <contour>
        <pt x="366" y="1805" on="1"/>
        <pt x="495" y="1805" on="1"/>
        <pt x="791" y="1554" on="1"/>
        <pt x="692" y="1475" on="1"/>
        <pt x="431" y="1598" on="1"/>
        <pt x="170" y="1475" on="1"/>
        <pt x="71" y="1554" on="1"/>
      </contour>
      <contour>
        <pt x="245" y="1221" on="1"/>
        <pt x="58" y="1303" on="1"/>
        <pt x="75" y="1384" on="1"/>
        <pt x="811" y="1384" on="1"/>
        <pt x="796" y="1301" on="1"/>
        <pt x="614" y="1219" on="1"/>
        <pt x="614" y="165" on="1"/>
        <pt x="805" y="81" on="1"/>
        <pt x="788" y="0" on="1"/>
        <pt x="50" y="0" on="1"/>
        <pt x="68" y="85" on="1"/>
        <pt x="245" y="165" on="1"/>
      </contour>
    </TTGlyph>
    <TTGlyph name="Idieresis" xMin="-2" yMin="0" xMax="863" yMax="1831">
      <contour>
        <pt x="174" y="1831" on="1"/>
        <pt x="195" y="1831" on="0"/>
        <pt x="278" y="1765" on="0"/>
        <pt x="344" y="1682" on="0"/>
        <pt x="344" y="1658" on="1"/>
        <pt x="344" y="1635" on="0"/>
        <pt x="279" y="1551" on="0"/>
        <pt x="194" y="1485" on="0"/>
        <pt x="168" y="1485" on="1"/>
        <pt x="146" y="1485" on="0"/>
        <pt x="64" y="1552" on="0"/>
        <pt x="-2" y="1637" on="0"/>
        <pt x="-2" y="1660" on="1"/>
        <pt x="-2" y="1684" on="0"/>
        <pt x="64" y="1766" on="0"/>
        <pt x="148" y="1831" on="0"/>
      </contour>
      <contour>
        <pt x="693" y="1831" on="1"/>
        <pt x="714" y="1831" on="0"/>
        <pt x="797" y="1765" on="0"/>
        <pt x="863" y="1682" on="0"/>
        <pt x="863" y="1658" on="1"/>
        <pt x="863" y="1635" on="0"/>
        <pt x="798" y="1551" on="0"/>
        <pt x="713" y="1485" on="0"/>
        <pt x="687" y="1485" on="1"/>
        <pt x="665" y="1485" on="0"/>
        <pt x="583" y="1552" on="0"/>
        <pt x="517" y="1637" on="0"/>
        <pt x="517" y="1660" on="1"/>
        <pt x="517" y="1684" on="0"/>
        <pt x="583" y="1766" on="0"/>
        <pt x="667" y="1831" on="0"/>
      </contour>
      <contour>
        <pt x="246" y="1221" on="1"/>
        <pt x="59" y="1303" on="1"/>
        <pt x="76" y="1384" on="1"/>
        <pt x="812" y="1384" on="1"/>
        <pt x="797" y="1301" on="1"/>
        <pt x="615" y="1219" on="1"/>
        <pt x="615" y="165" on="1"/>
        <pt x="806" y="81" on="1"/>
        <pt x="789" y="0" on="1"/>
        <pt x="51" y="0" on="1"/>
        <pt x="69" y="85" on="1"/>
        <pt x="246" y="165" on="1"/>
      </contour>
    </TTGlyph>
    <TTGlyph name="Idotaccent" xMin="50" yMin="0" xMax="811" yMax="1831">
      <contour>
        <pt x="253" y="1660" on="1"/>
        <pt x="253" y="1684" on="0"/>
        <pt x="319" y="1766" on="0"/>
        <pt x="403" y="1831" on="0"/>
        <pt x="429" y="1831" on="1"/>
        <pt x="450" y="1831" on="0"/>
        <pt x="533" y="1765" on="0"/>
        <pt x="599" y="1682" on="0"/>
        <pt x="599" y="1658" on="1"/>
        <pt x="599" y="1635" on="0"/>
        <pt x="534" y="1551" on="0"/>
        <pt x="449" y="1485" on="0"/>
        <pt x="423" y="1485" on="1"/>
        <pt x="401" y="1485" on="0"/>
        <pt x="319" y="1552" on="0"/>
        <pt x="253" y="1637" on="0"/>
      </contour>
      <contour>
        <pt x="245" y="1221" on="1"/>
        <pt x="58" y="1303" on="1"/>
        <pt x="75" y="1384" on="1"/>
        <pt x="811" y="1384" on="1"/>
        <pt x="796" y="1301" on="1"/>
        <pt x="614" y="1219" on="1"/>
        <pt x="614" y="165" on="1"/>
        <pt x="805" y="81" on="1"/>
        <pt x="788" y="0" on="1"/>
        <pt x="50" y="0" on="1"/>
        <pt x="68" y="85" on="1"/>
        <pt x="245" y="165" on="1"/>
      </contour>
    </TTGlyph>
    <TTGlyph name="Igrave" xMin="50" yMin="0" xMax="811" yMax="1811">
      <contour>
        <pt x="192" y="1811" on="1"/>
        <pt x="365" y="1811" on="1"/>
        <pt x="701" y="1598" on="1"/>
        <pt x="677" y="1484" on="1"/>
        <pt x="156" y="1638" on="1"/>
      </contour>
      <contour>
        <pt x="245" y="1221" on="1"/>
        <pt x="58" y="1303" on="1"/>
        <pt x="75" y="1384" on="1"/>
        <pt x="811" y="1384" on="1"/>
        <pt x="796" y="1301" on="1"/>
        <pt x="614" y="1219" on="1"/>
        <pt x="614" y="165" on="1"/>
        <pt x="805" y="81" on="1"/>
        <pt x="788" y="0" on="1"/>
        <pt x="50" y="0" on="1"/>
        <pt x="68" y="85" on="1"/>
        <pt x="245" y="165" on="1"/>
      </contour>
    </TTGlyph>
    <TTGlyph name="Imacron" xMin="50" yMin="0" xMax="811" yMax="1717">
      <contour>
        <pt x="766" y="1717" on="1"/>
        <pt x="734" y="1540" on="1"/>
        <pt x="613" y="1534" on="0"/>
        <pt x="233" y="1528" on="0"/>
        <pt x="94" y="1528" on="1"/>
        <pt x="129" y="1717" on="1"/>
      </contour>
      <contour>
        <pt x="245" y="1221" on="1"/>
        <pt x="58" y="1303" on="1"/>
        <pt x="75" y="1384" on="1"/>
        <pt x="811" y="1384" on="1"/>
        <pt x="796" y="1301" on="1"/>
        <pt x="614" y="1219" on="1"/>
        <pt x="614" y="165" on="1"/>
        <pt x="805" y="81" on="1"/>
        <pt x="788" y="0" on="1"/>
        <pt x="50" y="0" on="1"/>
        <pt x="68" y="85" on="1"/>
        <pt x="245" y="165" on="1"/>
      </contour>
    </TTGlyph>
    <TTGlyph name="Iogonek" xMin="52" yMin="-504" xMax="812" yMax="1384">
      <contour>
        <pt x="245" y="1221" on="1"/>
        <pt x="58" y="1304" on="1"/>
        <pt x="76" y="1384" on="1"/>
        <pt x="812" y="1384" on="1"/>
        <pt x="794" y="1300" on="1"/>
        <pt x="614" y="1219" on="1"/>
        <pt x="614" y="165" on="1"/>
        <pt x="805" y="84" on="1"/>
        <pt x="788" y="0" on="1"/>
        <pt x="706" y="0" on="0"/>
        <pt x="564" y="-81" on="0"/>
        <pt x="478" y="-190" on="0"/>
        <pt x="478" y="-226" on="1"/>
        <pt x="478" y="-263" on="0"/>
        <pt x="513" y="-333" on="0"/>
        <pt x="543" y="-347" on="1"/>
        <pt x="559" y="-355" on="0"/>
        <pt x="577" y="-355" on="1"/>
        <pt x="610" y="-355" on="0"/>
        <pt x="714" y="-327" on="0"/>
        <pt x="753" y="-305" on="1"/>
        <pt x="782" y="-353" on="1"/>
        <pt x="744" y="-392" on="0"/>
        <pt x="666" y="-454" on="0"/>
        <pt x="546" y="-504" on="0"/>
        <pt x="472" y="-504" on="1"/>
        <pt x="403" y="-504" on="0"/>
        <pt x="283" y="-456" on="0"/>
        <pt x="209" y="-354" on="0"/>
        <pt x="209" y="-277" on="1"/>
        <pt x="209" y="-179" on="0"/>
        <pt x="378" y="-40" on="0"/>
        <pt x="495" y="0" on="1"/>
        <pt x="52" y="0" on="1"/>
        <pt x="66" y="87" on="1"/>
        <pt x="245" y="165" on="1"/>
      </contour>
    </TTGlyph>
    <TTGlyph name="J" xMin="28" yMin="-330" xMax="792" yMax="1384">
      <contour>
        <pt x="44" y="1384" on="1"/>
        <pt x="792" y="1384" on="1"/>
        <pt x="776" y="1300" on="1"/>
        <pt x="608" y="1220" on="1"/>
        <pt x="608" y="475" on="1"/>
        <pt x="608" y="269" on="0"/>
        <pt x="524" y="-23" on="0"/>
        <pt x="317" y="-245" on="0"/>
        <pt x="132" y="-330" on="1"/>
        <pt x="73" y="-283" on="1"/>
        <pt x="117" y="-186" on="0"/>
        <pt x="239" y="139" on="0"/>
        <pt x="239" y="175" on="1"/>
        <pt x="239" y="1221" on="1"/>
        <pt x="28" y="1303" on="1"/>
      </contour>
    </TTGlyph>
    <TTGlyph name="K" xMin="51" yMin="0" xMax="1618" yMax="1384">
      <contour>
        <pt x="246" y="1221" on="1"/>
        <pt x="58" y="1304" on="1"/>
        <pt x="76" y="1384" on="1"/>
        <pt x="775" y="1384" on="1"/>
        <pt x="758" y="1297" on="1"/>
        <pt x="615" y="1216" on="1"/>
        <pt x="615" y="165" on="1"/>
        <pt x="807" y="81" on="1"/>
        <pt x="789" y="0" on="1"/>
        <pt x="51" y="0" on="1"/>
        <pt x="67" y="86" on="1"/>
        <pt x="246" y="165" on="1"/>
      </contour>
      <contour>
        <pt x="1618" y="82" on="1"/>
        <pt x="1600" y="0" on="1"/>
        <pt x="1014" y="0" on="1"/>
        <pt x="1033" y="87" on="1"/>
        <pt x="685" y="701" on="1"/>
        <pt x="1045" y="1226" on="1"/>
        <pt x="921" y="1308" on="1"/>
        <pt x="940" y="1384" on="1"/>
        <pt x="1599" y="1384" on="1"/>
        <pt x="1580" y="1297" on="1"/>
        <pt x="1395" y="1226" on="1"/>
        <pt x="1054" y="751" on="1"/>
        <pt x="1429" y="162" on="1"/>
      </contour>
    </TTGlyph>
    <TTGlyph name="Kcommaaccent" xMin="51" yMin="-561" xMax="1618" yMax="1384">
      <contour>
        <pt x="246" y="1221" on="1"/>
        <pt x="58" y="1304" on="1"/>
        <pt x="76" y="1384" on="1"/>
        <pt x="775" y="1384" on="1"/>
        <pt x="758" y="1297" on="1"/>
        <pt x="615" y="1216" on="1"/>
        <pt x="615" y="165" on="1"/>
        <pt x="807" y="81" on="1"/>
        <pt x="789" y="0" on="1"/>
        <pt x="51" y="0" on="1"/>
        <pt x="67" y="86" on="1"/>
        <pt x="246" y="165" on="1"/>
      </contour>
      <contour>
        <pt x="1618" y="82" on="1"/>
        <pt x="1600" y="0" on="1"/>
        <pt x="1014" y="0" on="1"/>
        <pt x="1033" y="87" on="1"/>
        <pt x="685" y="701" on="1"/>
        <pt x="1045" y="1226" on="1"/>
        <pt x="921" y="1308" on="1"/>
        <pt x="940" y="1384" on="1"/>
        <pt x="1599" y="1384" on="1"/>
        <pt x="1580" y="1297" on="1"/>
        <pt x="1395" y="1226" on="1"/>
        <pt x="1054" y="751" on="1"/>
        <pt x="1429" y="162" on="1"/>
      </contour>
      <contour>
        <pt x="889" y="-176" on="1"/>
        <pt x="924" y="-205" on="0"/>
        <pt x="957" y="-274" on="0"/>
        <pt x="957" y="-319" on="1"/>
        <pt x="957" y="-394" on="0"/>
        <pt x="853" y="-504" on="0"/>
        <pt x="708" y="-561" on="0"/>
        <pt x="651" y="-561" on="1"/>
        <pt x="621" y="-479" on="1"/>
        <pt x="686" y="-437" on="0"/>
        <pt x="746" y="-390" on="0"/>
        <pt x="765" y="-363" on="0"/>
        <pt x="764" y="-348" on="1"/>
        <pt x="763" y="-328" on="0"/>
        <pt x="692" y="-294" on="0"/>
        <pt x="630" y="-282" on="1"/>
        <pt x="670" y="-106" on="1"/>
        <pt x="731" y="-106" on="0"/>
        <pt x="846" y="-140" on="0"/>
      </contour>
    </TTGlyph>
    <TTGlyph name="L" xMin="51" yMin="0" xMax="1289" yMax="1384">
      <contour>
        <pt x="1289" y="354" on="1"/>
        <pt x="1207" y="0" on="1"/>
        <pt x="51" y="0" on="1"/>
        <pt x="67" y="85" on="1"/>
        <pt x="246" y="166" on="1"/>
        <pt x="246" y="1221" on="1"/>
        <pt x="58" y="1303" on="1"/>
        <pt x="76" y="1384" on="1"/>
        <pt x="820" y="1384" on="1"/>
        <pt x="804" y="1299" on="1"/>
        <pt x="615" y="1218" on="1"/>
        <pt x="615" y="100" on="1"/>
        <pt x="1034" y="172" on="1"/>
        <pt x="1155" y="370" on="1"/>
      </contour>
    </TTGlyph>
    <TTGlyph name="Lacute" xMin="51" yMin="0" xMax="1289" yMax="1811">
      <contour>
        <pt x="585" y="1811" on="1"/>
        <pt x="757" y="1811" on="1"/>
        <pt x="793" y="1637" on="1"/>
        <pt x="273" y="1486" on="1"/>
        <pt x="246" y="1596" on="1"/>
      </contour>
      <contour>
        <pt x="1289" y="354" on="1"/>
        <pt x="1207" y="0" on="1"/>
        <pt x="51" y="0" on="1"/>
        <pt x="67" y="85" on="1"/>
        <pt x="246" y="166" on="1"/>
        <pt x="246" y="1221" on="1"/>
        <pt x="58" y="1303" on="1"/>
        <pt x="76" y="1384" on="1"/>
        <pt x="820" y="1384" on="1"/>
        <pt x="804" y="1299" on="1"/>
        <pt x="615" y="1218" on="1"/>
        <pt x="615" y="100" on="1"/>
        <pt x="1034" y="172" on="1"/>
        <pt x="1155" y="370" on="1"/>
      </contour>
    </TTGlyph>
    <TTGlyph name="Lcaron" xMin="51" yMin="0" xMax="1289" yMax="1398">
      <contour>
        <pt x="1040" y="1171" on="1"/>
        <pt x="921" y="1220" on="1"/>
        <pt x="943" y="1364" on="1"/>
        <pt x="1024" y="1380" on="0"/>
        <pt x="1165" y="1397" on="0"/>
        <pt x="1237" y="1398" on="1"/>
        <pt x="1254" y="1367" on="0"/>
        <pt x="1267" y="1311" on="0"/>
        <pt x="1267" y="1280" on="1"/>
        <pt x="1267" y="1213" on="0"/>
        <pt x="1195" y="1047" on="0"/>
        <pt x="1072" y="883" on="0"/>
        <pt x="998" y="818" on="1"/>
        <pt x="900" y="845" on="1"/>
        <pt x="986" y="1016" on="0"/>
      </contour>
      <contour>
        <pt x="1289" y="354" on="1"/>
        <pt x="1207" y="0" on="1"/>
        <pt x="51" y="0" on="1"/>
        <pt x="67" y="85" on="1"/>
        <pt x="246" y="166" on="1"/>
        <pt x="246" y="1221" on="1"/>
        <pt x="58" y="1303" on="1"/>
        <pt x="76" y="1384" on="1"/>
        <pt x="820" y="1384" on="1"/>
        <pt x="804" y="1299" on="1"/>
        <pt x="615" y="1218" on="1"/>
        <pt x="615" y="100" on="1"/>
        <pt x="1034" y="172" on="1"/>
        <pt x="1155" y="370" on="1"/>
      </contour>
    </TTGlyph>
    <TTGlyph name="Lcommaaccent" xMin="51" yMin="-561" xMax="1289" yMax="1384">
      <contour>
        <pt x="1289" y="354" on="1"/>
        <pt x="1207" y="0" on="1"/>
        <pt x="51" y="0" on="1"/>
        <pt x="67" y="85" on="1"/>
        <pt x="246" y="166" on="1"/>
        <pt x="246" y="1221" on="1"/>
        <pt x="58" y="1303" on="1"/>
        <pt x="76" y="1384" on="1"/>
        <pt x="820" y="1384" on="1"/>
        <pt x="804" y="1299" on="1"/>
        <pt x="615" y="1218" on="1"/>
        <pt x="615" y="100" on="1"/>
        <pt x="1034" y="172" on="1"/>
        <pt x="1155" y="370" on="1"/>
      </contour>
      <contour>
        <pt x="731" y="-176" on="1"/>
        <pt x="766" y="-205" on="0"/>
        <pt x="799" y="-274" on="0"/>
        <pt x="799" y="-319" on="1"/>
        <pt x="799" y="-394" on="0"/>
        <pt x="695" y="-504" on="0"/>
        <pt x="550" y="-561" on="0"/>
        <pt x="493" y="-561" on="1"/>
        <pt x="463" y="-479" on="1"/>
        <pt x="528" y="-437" on="0"/>
        <pt x="588" y="-390" on="0"/>
        <pt x="607" y="-363" on="0"/>
        <pt x="606" y="-348" on="1"/>
        <pt x="605" y="-328" on="0"/>
        <pt x="534" y="-294" on="0"/>
        <pt x="472" y="-282" on="1"/>
        <pt x="512" y="-106" on="1"/>
        <pt x="573" y="-106" on="0"/>
        <pt x="688" y="-140" on="0"/>
      </contour>
    </TTGlyph>
    <TTGlyph name="Lslash" xMin="-23" yMin="0" xMax="1290" yMax="1384">
      <contour>
        <pt x="1208" y="0" on="1"/>
        <pt x="52" y="0" on="1"/>
        <pt x="68" y="85" on="1"/>
        <pt x="247" y="166" on="1"/>
        <pt x="247" y="504" on="1"/>
        <pt x="22" y="399" on="1"/>
        <pt x="-23" y="613" on="1"/>
        <pt x="247" y="734" on="1"/>
        <pt x="247" y="1221" on="1"/>
        <pt x="59" y="1303" on="1"/>
        <pt x="77" y="1384" on="1"/>
        <pt x="821" y="1384" on="1"/>
        <pt x="805" y="1299" on="1"/>
        <pt x="616" y="1218" on="1"/>
        <pt x="616" y="900" on="1"/>
        <pt x="1045" y="1092" on="1"/>
        <pt x="1089" y="898" on="1"/>
        <pt x="616" y="677" on="1"/>
        <pt x="616" y="100" on="1"/>
        <pt x="1035" y="172" on="1"/>
        <pt x="1156" y="370" on="1"/>
        <pt x="1290" y="354" on="1"/>
      </contour>
    </TTGlyph>
    <TTGlyph name="M" xMin="53" yMin="-15" xMax="2074" yMax="1384">
      <contour>
        <pt x="79" y="1384" on="1"/>
        <pt x="646" y="1384" on="1"/>
        <pt x="1069" y="326" on="1"/>
        <pt x="1457" y="1384" on="1"/>
        <pt x="2074" y="1384" on="1"/>
        <pt x="2058" y="1291" on="1"/>
        <pt x="1878" y="1210" on="1"/>
        <pt x="1878" y="163" on="1"/>
        <pt x="2069" y="82" on="1"/>
        <pt x="2051" y="0" on="1"/>
        <pt x="1325" y="0" on="1"/>
        <pt x="1341" y="84" on="1"/>
        <pt x="1518" y="164" on="1"/>
        <pt x="1518" y="1149" on="1"/>
        <pt x="1449" y="889" on="0"/>
        <pt x="1260" y="345" on="0"/>
        <pt x="1136" y="25" on="1"/>
        <pt x="824" y="-15" on="1"/>
        <pt x="401" y="1143" on="1"/>
        <pt x="428" y="938" on="0"/>
        <pt x="444" y="524" on="0"/>
        <pt x="446" y="227" on="1"/>
        <pt x="447" y="206" on="0"/>
        <pt x="447" y="163" on="1"/>
        <pt x="625" y="81" on="1"/>
        <pt x="609" y="0" on="1"/>
        <pt x="53" y="0" on="1"/>
        <pt x="69" y="84" on="1"/>
        <pt x="244" y="164" on="1"/>
        <pt x="244" y="1221" on="1"/>
        <pt x="61" y="1303" on="1"/>
      </contour>
    </TTGlyph>
    <TTGlyph name="N" xMin="57" yMin="-25" xMax="1564" yMax="1384">
      <contour>
        <pt x="244" y="1221" on="1"/>
        <pt x="57" y="1302" on="1"/>
        <pt x="74" y="1384" on="1"/>
        <pt x="583" y="1384" on="1"/>
        <pt x="1212" y="369" on="1"/>
        <pt x="1187" y="558" on="0"/>
        <pt x="1174" y="937" on="0"/>
        <pt x="1174" y="1221" on="1"/>
        <pt x="972" y="1301" on="1"/>
        <pt x="988" y="1384" on="1"/>
        <pt x="1564" y="1384" on="1"/>
        <pt x="1548" y="1300" on="1"/>
        <pt x="1380" y="1220" on="1"/>
        <pt x="1380" y="15" on="1"/>
        <pt x="1057" y="-25" on="1"/>
        <pt x="408" y="1029" on="1"/>
        <pt x="434" y="836" on="0"/>
        <pt x="447" y="452" on="0"/>
        <pt x="447" y="163" on="1"/>
        <pt x="656" y="81" on="1"/>
        <pt x="638" y="0" on="1"/>
        <pt x="57" y="0" on="1"/>
        <pt x="72" y="83" on="1"/>
        <pt x="244" y="164" on="1"/>
      </contour>
    </TTGlyph>
    <TTGlyph name="Nacute" xMin="57" yMin="-25" xMax="1564" yMax="1811">
      <contour>
        <pt x="915" y="1811" on="1"/>
        <pt x="1087" y="1811" on="1"/>
        <pt x="1123" y="1637" on="1"/>
        <pt x="603" y="1486" on="1"/>
        <pt x="576" y="1596" on="1"/>
      </contour>
      <contour>
        <pt x="244" y="1221" on="1"/>
        <pt x="57" y="1302" on="1"/>
        <pt x="74" y="1384" on="1"/>
        <pt x="583" y="1384" on="1"/>
        <pt x="1212" y="369" on="1"/>
        <pt x="1187" y="558" on="0"/>
        <pt x="1174" y="937" on="0"/>
        <pt x="1174" y="1221" on="1"/>
        <pt x="972" y="1301" on="1"/>
        <pt x="988" y="1384" on="1"/>
        <pt x="1564" y="1384" on="1"/>
        <pt x="1548" y="1300" on="1"/>
        <pt x="1380" y="1220" on="1"/>
        <pt x="1380" y="15" on="1"/>
        <pt x="1057" y="-25" on="1"/>
        <pt x="408" y="1029" on="1"/>
        <pt x="434" y="836" on="0"/>
        <pt x="447" y="452" on="0"/>
        <pt x="447" y="163" on="1"/>
        <pt x="656" y="81" on="1"/>
        <pt x="638" y="0" on="1"/>
        <pt x="57" y="0" on="1"/>
        <pt x="72" y="83" on="1"/>
        <pt x="244" y="164" on="1"/>
      </contour>
    </TTGlyph>
    <TTGlyph name="Ncaron" xMin="57" yMin="-25" xMax="1564" yMax="1827">
      <contour>
        <pt x="519" y="1827" on="1"/>
        <pt x="781" y="1702" on="1"/>
        <pt x="1044" y="1827" on="1"/>
        <pt x="1138" y="1748" on="1"/>
        <pt x="854" y="1515" on="1"/>
        <pt x="709" y="1515" on="1"/>
        <pt x="425" y="1748" on="1"/>
      </contour>
      <contour>
        <pt x="244" y="1221" on="1"/>
        <pt x="57" y="1302" on="1"/>
        <pt x="74" y="1384" on="1"/>
        <pt x="583" y="1384" on="1"/>
        <pt x="1212" y="369" on="1"/>
        <pt x="1187" y="558" on="0"/>
        <pt x="1174" y="937" on="0"/>
        <pt x="1174" y="1221" on="1"/>
        <pt x="972" y="1301" on="1"/>
        <pt x="988" y="1384" on="1"/>
        <pt x="1564" y="1384" on="1"/>
        <pt x="1548" y="1300" on="1"/>
        <pt x="1380" y="1220" on="1"/>
        <pt x="1380" y="15" on="1"/>
        <pt x="1057" y="-25" on="1"/>
        <pt x="408" y="1029" on="1"/>
        <pt x="434" y="836" on="0"/>
        <pt x="447" y="452" on="0"/>
        <pt x="447" y="163" on="1"/>
        <pt x="656" y="81" on="1"/>
        <pt x="638" y="0" on="1"/>
        <pt x="57" y="0" on="1"/>
        <pt x="72" y="83" on="1"/>
        <pt x="244" y="164" on="1"/>
      </contour>
    </TTGlyph>
    <TTGlyph name="Ncommaaccent" xMin="57" yMin="-561" xMax="1564" yMax="1384">
      <contour>
        <pt x="244" y="1221" on="1"/>
        <pt x="57" y="1302" on="1"/>
        <pt x="74" y="1384" on="1"/>
        <pt x="583" y="1384" on="1"/>
        <pt x="1212" y="369" on="1"/>
        <pt x="1187" y="558" on="0"/>
        <pt x="1174" y="937" on="0"/>
        <pt x="1174" y="1221" on="1"/>
        <pt x="972" y="1301" on="1"/>
        <pt x="988" y="1384" on="1"/>
        <pt x="1564" y="1384" on="1"/>
        <pt x="1548" y="1300" on="1"/>
        <pt x="1380" y="1220" on="1"/>
        <pt x="1380" y="15" on="1"/>
        <pt x="1057" y="-25" on="1"/>
        <pt x="408" y="1029" on="1"/>
        <pt x="434" y="836" on="0"/>
        <pt x="447" y="452" on="0"/>
        <pt x="447" y="163" on="1"/>
        <pt x="656" y="81" on="1"/>
        <pt x="638" y="0" on="1"/>
        <pt x="57" y="0" on="1"/>
        <pt x="72" y="83" on="1"/>
        <pt x="244" y="164" on="1"/>
      </contour>
      <contour>
        <pt x="890" y="-176" on="1"/>
        <pt x="925" y="-205" on="0"/>
        <pt x="958" y="-274" on="0"/>
        <pt x="958" y="-319" on="1"/>
        <pt x="958" y="-394" on="0"/>
        <pt x="854" y="-504" on="0"/>
        <pt x="709" y="-561" on="0"/>
        <pt x="652" y="-561" on="1"/>
        <pt x="622" y="-479" on="1"/>
        <pt x="687" y="-437" on="0"/>
        <pt x="747" y="-390" on="0"/>
        <pt x="766" y="-363" on="0"/>
        <pt x="765" y="-348" on="1"/>
        <pt x="764" y="-328" on="0"/>
        <pt x="693" y="-294" on="0"/>
        <pt x="631" y="-282" on="1"/>
        <pt x="671" y="-106" on="1"/>
        <pt x="732" y="-106" on="0"/>
        <pt x="847" y="-140" on="0"/>
      </contour>
    </TTGlyph>
    <TTGlyph name="Ntilde" xMin="57" yMin="-25" xMax="1564" yMax="1856">
      <contour>
        <pt x="651" y="1856" on="1"/>
        <pt x="706" y="1856" on="0"/>
        <pt x="792" y="1808" on="0"/>
        <pt x="842" y="1765" on="1"/>
        <pt x="875" y="1738" on="0"/>
        <pt x="910" y="1715" on="0"/>
        <pt x="927" y="1715" on="1"/>
        <pt x="961" y="1715" on="0"/>
        <pt x="1084" y="1780" on="0"/>
        <pt x="1149" y="1833" on="1"/>
        <pt x="1172" y="1686" on="1"/>
        <pt x="1119" y="1627" on="0"/>
        <pt x="1048" y="1559" on="0"/>
        <pt x="959" y="1512" on="0"/>
        <pt x="909" y="1512" on="1"/>
        <pt x="855" y="1512" on="0"/>
        <pt x="773" y="1559" on="0"/>
        <pt x="721" y="1602" on="1"/>
        <pt x="691" y="1628" on="0"/>
        <pt x="654" y="1653" on="0"/>
        <pt x="636" y="1653" on="1"/>
        <pt x="600" y="1653" on="0"/>
        <pt x="475" y="1585" on="0"/>
        <pt x="417" y="1533" on="1"/>
        <pt x="389" y="1680" on="1"/>
        <pt x="442" y="1740" on="0"/>
        <pt x="514" y="1810" on="0"/>
        <pt x="601" y="1856" on="0"/>
      </contour>
      <contour>
        <pt x="244" y="1221" on="1"/>
        <pt x="57" y="1302" on="1"/>
        <pt x="74" y="1384" on="1"/>
        <pt x="583" y="1384" on="1"/>
        <pt x="1212" y="369" on="1"/>
        <pt x="1187" y="558" on="0"/>
        <pt x="1174" y="937" on="0"/>
        <pt x="1174" y="1221" on="1"/>
        <pt x="972" y="1301" on="1"/>
        <pt x="988" y="1384" on="1"/>
        <pt x="1564" y="1384" on="1"/>
        <pt x="1548" y="1300" on="1"/>
        <pt x="1380" y="1220" on="1"/>
        <pt x="1380" y="15" on="1"/>
        <pt x="1057" y="-25" on="1"/>
        <pt x="408" y="1029" on="1"/>
        <pt x="434" y="836" on="0"/>
        <pt x="447" y="452" on="0"/>
        <pt x="447" y="163" on="1"/>
        <pt x="656" y="81" on="1"/>
        <pt x="638" y="0" on="1"/>
        <pt x="57" y="0" on="1"/>
        <pt x="72" y="83" on="1"/>
        <pt x="244" y="164" on="1"/>
      </contour>
    </TTGlyph>
    <TTGlyph name="O" xMin="68" yMin="-35" xMax="1472" yMax="1419">
      <contour>
        <pt x="815" y="1419" on="1"/>
        <pt x="994" y="1419" on="0"/>
        <pt x="1295" y="1260" on="0"/>
        <pt x="1472" y="961" on="0"/>
        <pt x="1472" y="762" on="1"/>
        <pt x="1472" y="546" on="0"/>
        <pt x="1294" y="182" on="0"/>
        <pt x="963" y="-35" on="0"/>
        <pt x="744" y="-35" on="1"/>
        <pt x="553" y="-35" on="0"/>
        <pt x="246" y="124" on="0"/>
        <pt x="68" y="422" on="0"/>
        <pt x="68" y="623" on="1"/>
        <pt x="68" y="837" on="0"/>
        <pt x="241" y="1201" on="0"/>
        <pt x="579" y="1419" on="0"/>
      </contour>
      <contour>
        <pt x="839" y="126" on="1"/>
        <pt x="890" y="126" on="0"/>
        <pt x="985" y="155" on="0"/>
        <pt x="1010" y="188" on="1"/>
        <pt x="1047" y="237" on="0"/>
        <pt x="1089" y="503" on="0"/>
        <pt x="1089" y="618" on="1"/>
        <pt x="1089" y="751" on="0"/>
        <pt x="1073" y="914" on="0"/>
        <pt x="1049" y="986" on="1"/>
        <pt x="1021" y="1067" on="0"/>
        <pt x="914" y="1191" on="0"/>
        <pt x="775" y="1258" on="0"/>
        <pt x="699" y="1258" on="1"/>
        <pt x="649" y="1258" on="0"/>
        <pt x="574" y="1244" on="0"/>
        <pt x="549" y="1219" on="1"/>
        <pt x="498" y="1169" on="0"/>
        <pt x="451" y="897" on="0"/>
        <pt x="451" y="767" on="1"/>
        <pt x="451" y="598" on="0"/>
        <pt x="488" y="371" on="0"/>
        <pt x="547" y="284" on="1"/>
        <pt x="598" y="209" on="0"/>
        <pt x="750" y="126" on="0"/>
      </contour>
    </TTGlyph>
    <TTGlyph name="OE" xMin="68" yMin="-35" xMax="2039" yMax="1419">
      <contour>
        <pt x="744" y="-35" on="1"/>
        <pt x="553" y="-35" on="0"/>
        <pt x="246" y="124" on="0"/>
        <pt x="68" y="422" on="0"/>
        <pt x="68" y="623" on="1"/>
        <pt x="68" y="837" on="0"/>
        <pt x="241" y="1201" on="0"/>
        <pt x="579" y="1419" on="0"/>
        <pt x="815" y="1419" on="1"/>
        <pt x="931" y="1419" on="0"/>
        <pt x="1038" y="1384" on="1"/>
        <pt x="1783" y="1384" on="1"/>
        <pt x="1929" y="1397" on="1"/>
        <pt x="1967" y="1044" on="1"/>
        <pt x="1827" y="1021" on="1"/>
        <pt x="1732" y="1227" on="1"/>
        <pt x="1339" y="1296" on="1"/>
        <pt x="1339" y="741" on="1"/>
        <pt x="1375" y="753" on="0"/>
        <pt x="1533" y="780" on="0"/>
        <pt x="1557" y="781" on="1"/>
        <pt x="1623" y="948" on="1"/>
        <pt x="1726" y="929" on="1"/>
        <pt x="1709" y="448" on="1"/>
        <pt x="1603" y="463" on="1"/>
        <pt x="1557" y="622" on="1"/>
        <pt x="1537" y="622" on="0"/>
        <pt x="1370" y="649" on="0"/>
        <pt x="1339" y="659" on="1"/>
        <pt x="1339" y="99" on="1"/>
        <pt x="1787" y="171" on="1"/>
        <pt x="1909" y="371" on="1"/>
        <pt x="2039" y="354" on="1"/>
        <pt x="1962" y="0" on="1"/>
        <pt x="973" y="0" on="1"/>
        <pt x="862" y="-35" on="0"/>
      </contour>
      <contour>
        <pt x="970" y="153" on="1"/>
        <pt x="970" y="1141" on="1"/>
        <pt x="917" y="1196" on="0"/>
        <pt x="775" y="1257" on="0"/>
        <pt x="699" y="1257" on="1"/>
        <pt x="649" y="1257" on="0"/>
        <pt x="574" y="1243" on="0"/>
        <pt x="549" y="1218" on="1"/>
        <pt x="498" y="1168" on="0"/>
        <pt x="451" y="896" on="0"/>
        <pt x="451" y="766" on="1"/>
        <pt x="451" y="597" on="0"/>
        <pt x="488" y="370" on="0"/>
        <pt x="547" y="283" on="1"/>
        <pt x="598" y="208" on="0"/>
        <pt x="750" y="125" on="0"/>
        <pt x="839" y="125" on="1"/>
        <pt x="873" y="125" on="0"/>
        <pt x="943" y="138" on="0"/>
      </contour>
    </TTGlyph>
    <TTGlyph name="Oacute" xMin="68" yMin="-35" xMax="1472" yMax="1811">
      <contour>
        <pt x="916" y="1811" on="1"/>
        <pt x="1088" y="1811" on="1"/>
        <pt x="1124" y="1637" on="1"/>
        <pt x="604" y="1486" on="1"/>
        <pt x="577" y="1596" on="1"/>
      </contour>
      <contour>
        <pt x="815" y="1419" on="1"/>
        <pt x="994" y="1419" on="0"/>
        <pt x="1295" y="1260" on="0"/>
        <pt x="1472" y="961" on="0"/>
        <pt x="1472" y="762" on="1"/>
        <pt x="1472" y="546" on="0"/>
        <pt x="1294" y="182" on="0"/>
        <pt x="963" y="-35" on="0"/>
        <pt x="744" y="-35" on="1"/>
        <pt x="553" y="-35" on="0"/>
        <pt x="246" y="124" on="0"/>
        <pt x="68" y="422" on="0"/>
        <pt x="68" y="623" on="1"/>
        <pt x="68" y="837" on="0"/>
        <pt x="241" y="1201" on="0"/>
        <pt x="579" y="1419" on="0"/>
      </contour>
      <contour>
        <pt x="839" y="126" on="1"/>
        <pt x="890" y="126" on="0"/>
        <pt x="985" y="155" on="0"/>
        <pt x="1010" y="188" on="1"/>
        <pt x="1047" y="237" on="0"/>
        <pt x="1089" y="503" on="0"/>
        <pt x="1089" y="618" on="1"/>
        <pt x="1089" y="751" on="0"/>
        <pt x="1073" y="914" on="0"/>
        <pt x="1049" y="986" on="1"/>
        <pt x="1021" y="1067" on="0"/>
        <pt x="914" y="1191" on="0"/>
        <pt x="775" y="1258" on="0"/>
        <pt x="699" y="1258" on="1"/>
        <pt x="649" y="1258" on="0"/>
        <pt x="574" y="1244" on="0"/>
        <pt x="549" y="1219" on="1"/>
        <pt x="498" y="1169" on="0"/>
        <pt x="451" y="897" on="0"/>
        <pt x="451" y="767" on="1"/>
        <pt x="451" y="598" on="0"/>
        <pt x="488" y="371" on="0"/>
        <pt x="547" y="284" on="1"/>
        <pt x="598" y="209" on="0"/>
        <pt x="750" y="126" on="0"/>
      </contour>
    </TTGlyph>
    <TTGlyph name="Ocircumflex" xMin="68" yMin="-35" xMax="1472" yMax="1805">
      <contour>
        <pt x="719" y="1805" on="1"/>
        <pt x="848" y="1805" on="1"/>
        <pt x="1144" y="1554" on="1"/>
        <pt x="1045" y="1475" on="1"/>
        <pt x="784" y="1598" on="1"/>
        <pt x="523" y="1475" on="1"/>
        <pt x="424" y="1554" on="1"/>
      </contour>
      <contour>
        <pt x="815" y="1419" on="1"/>
        <pt x="994" y="1419" on="0"/>
        <pt x="1295" y="1260" on="0"/>
        <pt x="1472" y="961" on="0"/>
        <pt x="1472" y="762" on="1"/>
        <pt x="1472" y="546" on="0"/>
        <pt x="1294" y="182" on="0"/>
        <pt x="963" y="-35" on="0"/>
        <pt x="744" y="-35" on="1"/>
        <pt x="553" y="-35" on="0"/>
        <pt x="246" y="124" on="0"/>
        <pt x="68" y="422" on="0"/>
        <pt x="68" y="623" on="1"/>
        <pt x="68" y="837" on="0"/>
        <pt x="241" y="1201" on="0"/>
        <pt x="579" y="1419" on="0"/>
      </contour>
      <contour>
        <pt x="839" y="126" on="1"/>
        <pt x="890" y="126" on="0"/>
        <pt x="985" y="155" on="0"/>
        <pt x="1010" y="188" on="1"/>
        <pt x="1047" y="237" on="0"/>
        <pt x="1089" y="503" on="0"/>
        <pt x="1089" y="618" on="1"/>
        <pt x="1089" y="751" on="0"/>
        <pt x="1073" y="914" on="0"/>
        <pt x="1049" y="986" on="1"/>
        <pt x="1021" y="1067" on="0"/>
        <pt x="914" y="1191" on="0"/>
        <pt x="775" y="1258" on="0"/>
        <pt x="699" y="1258" on="1"/>
        <pt x="649" y="1258" on="0"/>
        <pt x="574" y="1244" on="0"/>
        <pt x="549" y="1219" on="1"/>
        <pt x="498" y="1169" on="0"/>
        <pt x="451" y="897" on="0"/>
        <pt x="451" y="767" on="1"/>
        <pt x="451" y="598" on="0"/>
        <pt x="488" y="371" on="0"/>
        <pt x="547" y="284" on="1"/>
        <pt x="598" y="209" on="0"/>
        <pt x="750" y="126" on="0"/>
      </contour>
    </TTGlyph>
    <TTGlyph name="Odieresis" xMin="68" yMin="-35" xMax="1472" yMax="1831">
      <contour>
        <pt x="526" y="1831" on="1"/>
        <pt x="547" y="1831" on="0"/>
        <pt x="630" y="1765" on="0"/>
        <pt x="696" y="1682" on="0"/>
        <pt x="696" y="1658" on="1"/>
        <pt x="696" y="1635" on="0"/>
        <pt x="631" y="1551" on="0"/>
        <pt x="546" y="1485" on="0"/>
        <pt x="520" y="1485" on="1"/>
        <pt x="498" y="1485" on="0"/>
        <pt x="416" y="1552" on="0"/>
        <pt x="350" y="1637" on="0"/>
        <pt x="350" y="1660" on="1"/>
        <pt x="350" y="1684" on="0"/>
        <pt x="416" y="1766" on="0"/>
        <pt x="500" y="1831" on="0"/>
      </contour>
      <contour>
        <pt x="1045" y="1831" on="1"/>
        <pt x="1066" y="1831" on="0"/>
        <pt x="1149" y="1765" on="0"/>
        <pt x="1215" y="1682" on="0"/>
        <pt x="1215" y="1658" on="1"/>
        <pt x="1215" y="1635" on="0"/>
        <pt x="1150" y="1551" on="0"/>
        <pt x="1065" y="1485" on="0"/>
        <pt x="1039" y="1485" on="1"/>
        <pt x="1017" y="1485" on="0"/>
        <pt x="935" y="1552" on="0"/>
        <pt x="869" y="1637" on="0"/>
        <pt x="869" y="1660" on="1"/>
        <pt x="869" y="1684" on="0"/>
        <pt x="935" y="1766" on="0"/>
        <pt x="1019" y="1831" on="0"/>
      </contour>
      <contour>
        <pt x="815" y="1419" on="1"/>
        <pt x="994" y="1419" on="0"/>
        <pt x="1295" y="1260" on="0"/>
        <pt x="1472" y="961" on="0"/>
        <pt x="1472" y="762" on="1"/>
        <pt x="1472" y="546" on="0"/>
        <pt x="1294" y="182" on="0"/>
        <pt x="963" y="-35" on="0"/>
        <pt x="744" y="-35" on="1"/>
        <pt x="553" y="-35" on="0"/>
        <pt x="246" y="124" on="0"/>
        <pt x="68" y="422" on="0"/>
        <pt x="68" y="623" on="1"/>
        <pt x="68" y="837" on="0"/>
        <pt x="241" y="1201" on="0"/>
        <pt x="579" y="1419" on="0"/>
      </contour>
      <contour>
        <pt x="839" y="126" on="1"/>
        <pt x="890" y="126" on="0"/>
        <pt x="985" y="155" on="0"/>
        <pt x="1010" y="188" on="1"/>
        <pt x="1047" y="237" on="0"/>
        <pt x="1089" y="503" on="0"/>
        <pt x="1089" y="618" on="1"/>
        <pt x="1089" y="751" on="0"/>
        <pt x="1073" y="914" on="0"/>
        <pt x="1049" y="986" on="1"/>
        <pt x="1021" y="1067" on="0"/>
        <pt x="914" y="1191" on="0"/>
        <pt x="775" y="1258" on="0"/>
        <pt x="699" y="1258" on="1"/>
        <pt x="649" y="1258" on="0"/>
        <pt x="574" y="1244" on="0"/>
        <pt x="549" y="1219" on="1"/>
        <pt x="498" y="1169" on="0"/>
        <pt x="451" y="897" on="0"/>
        <pt x="451" y="767" on="1"/>
        <pt x="451" y="598" on="0"/>
        <pt x="488" y="371" on="0"/>
        <pt x="547" y="284" on="1"/>
        <pt x="598" y="209" on="0"/>
        <pt x="750" y="126" on="0"/>
      </contour>
    </TTGlyph>
    <TTGlyph name="Ograve" xMin="68" yMin="-35" xMax="1472" yMax="1811">
      <contour>
        <pt x="545" y="1811" on="1"/>
        <pt x="718" y="1811" on="1"/>
        <pt x="1054" y="1598" on="1"/>
        <pt x="1030" y="1484" on="1"/>
        <pt x="509" y="1638" on="1"/>
      </contour>
      <contour>
        <pt x="815" y="1419" on="1"/>
        <pt x="994" y="1419" on="0"/>
        <pt x="1295" y="1260" on="0"/>
        <pt x="1472" y="961" on="0"/>
        <pt x="1472" y="762" on="1"/>
        <pt x="1472" y="546" on="0"/>
        <pt x="1294" y="182" on="0"/>
        <pt x="963" y="-35" on="0"/>
        <pt x="744" y="-35" on="1"/>
        <pt x="553" y="-35" on="0"/>
        <pt x="246" y="124" on="0"/>
        <pt x="68" y="422" on="0"/>
        <pt x="68" y="623" on="1"/>
        <pt x="68" y="837" on="0"/>
        <pt x="241" y="1201" on="0"/>
        <pt x="579" y="1419" on="0"/>
      </contour>
      <contour>
        <pt x="839" y="126" on="1"/>
        <pt x="890" y="126" on="0"/>
        <pt x="985" y="155" on="0"/>
        <pt x="1010" y="188" on="1"/>
        <pt x="1047" y="237" on="0"/>
        <pt x="1089" y="503" on="0"/>
        <pt x="1089" y="618" on="1"/>
        <pt x="1089" y="751" on="0"/>
        <pt x="1073" y="914" on="0"/>
        <pt x="1049" y="986" on="1"/>
        <pt x="1021" y="1067" on="0"/>
        <pt x="914" y="1191" on="0"/>
        <pt x="775" y="1258" on="0"/>
        <pt x="699" y="1258" on="1"/>
        <pt x="649" y="1258" on="0"/>
        <pt x="574" y="1244" on="0"/>
        <pt x="549" y="1219" on="1"/>
        <pt x="498" y="1169" on="0"/>
        <pt x="451" y="897" on="0"/>
        <pt x="451" y="767" on="1"/>
        <pt x="451" y="598" on="0"/>
        <pt x="488" y="371" on="0"/>
        <pt x="547" y="284" on="1"/>
        <pt x="598" y="209" on="0"/>
        <pt x="750" y="126" on="0"/>
      </contour>
    </TTGlyph>
    <TTGlyph name="Ohm" xMin="68" yMin="0" xMax="1726" yMax="1419">
      <contour>
        <pt x="346" y="169" on="1"/>
        <pt x="607" y="134" on="1"/>
        <pt x="509" y="226" on="0"/>
        <pt x="345" y="455" on="0"/>
        <pt x="243" y="714" on="0"/>
        <pt x="243" y="842" on="1"/>
        <pt x="243" y="1010" on="0"/>
        <pt x="404" y="1272" on="0"/>
        <pt x="700" y="1419" on="0"/>
        <pt x="898" y="1419" on="1"/>
        <pt x="1095" y="1419" on="0"/>
        <pt x="1391" y="1272" on="0"/>
        <pt x="1551" y="1010" on="0"/>
        <pt x="1551" y="842" on="1"/>
        <pt x="1551" y="714" on="0"/>
        <pt x="1453" y="454" on="0"/>
        <pt x="1293" y="225" on="0"/>
        <pt x="1197" y="134" on="1"/>
        <pt x="1448" y="169" on="1"/>
        <pt x="1589" y="375" on="1"/>
        <pt x="1726" y="359" on="1"/>
        <pt x="1639" y="0" on="1"/>
        <pt x="1035" y="0" on="1"/>
        <pt x="991" y="158" on="1"/>
        <pt x="1059" y="254" on="0"/>
        <pt x="1168" y="486" on="0"/>
        <pt x="1229" y="713" on="0"/>
        <pt x="1229" y="801" on="1"/>
        <pt x="1229" y="1028" on="0"/>
        <pt x="1043" y="1227" on="0"/>
        <pt x="897" y="1227" on="1"/>
        <pt x="751" y="1227" on="0"/>
        <pt x="566" y="1028" on="0"/>
        <pt x="566" y="801" on="1"/>
        <pt x="566" y="714" on="0"/>
        <pt x="626" y="489" on="0"/>
        <pt x="734" y="256" on="0"/>
        <pt x="804" y="158" on="1"/>
        <pt x="761" y="0" on="1"/>
        <pt x="165" y="0" on="1"/>
        <pt x="68" y="360" on="1"/>
        <pt x="205" y="376" on="1"/>
      </contour>
    </TTGlyph>
    <TTGlyph name="Ohungarumlaut" xMin="68" yMin="-35" xMax="1472" yMax="1820">
      <contour>
        <pt x="853" y="1820" on="1"/>
        <pt x="874" y="1717" on="1"/>
        <pt x="544" y="1470" on="1"/>
        <pt x="461" y="1601" on="1"/>
        <pt x="663" y="1820" on="1"/>
      </contour>
      <contour>
        <pt x="1232" y="1820" on="1"/>
        <pt x="1253" y="1717" on="1"/>
        <pt x="923" y="1470" on="1"/>
        <pt x="840" y="1601" on="1"/>
        <pt x="1042" y="1820" on="1"/>
      </contour>
      <contour>
        <pt x="815" y="1419" on="1"/>
        <pt x="994" y="1419" on="0"/>
        <pt x="1295" y="1260" on="0"/>
        <pt x="1472" y="961" on="0"/>
        <pt x="1472" y="762" on="1"/>
        <pt x="1472" y="546" on="0"/>
        <pt x="1294" y="182" on="0"/>
        <pt x="963" y="-35" on="0"/>
        <pt x="744" y="-35" on="1"/>
        <pt x="553" y="-35" on="0"/>
        <pt x="246" y="124" on="0"/>
        <pt x="68" y="422" on="0"/>
        <pt x="68" y="623" on="1"/>
        <pt x="68" y="837" on="0"/>
        <pt x="241" y="1201" on="0"/>
        <pt x="579" y="1419" on="0"/>
      </contour>
      <contour>
        <pt x="839" y="126" on="1"/>
        <pt x="890" y="126" on="0"/>
        <pt x="985" y="155" on="0"/>
        <pt x="1010" y="188" on="1"/>
        <pt x="1047" y="237" on="0"/>
        <pt x="1089" y="503" on="0"/>
        <pt x="1089" y="618" on="1"/>
        <pt x="1089" y="751" on="0"/>
        <pt x="1073" y="914" on="0"/>
        <pt x="1049" y="986" on="1"/>
        <pt x="1021" y="1067" on="0"/>
        <pt x="914" y="1191" on="0"/>
        <pt x="775" y="1258" on="0"/>
        <pt x="699" y="1258" on="1"/>
        <pt x="649" y="1258" on="0"/>
        <pt x="574" y="1244" on="0"/>
        <pt x="549" y="1219" on="1"/>
        <pt x="498" y="1169" on="0"/>
        <pt x="451" y="897" on="0"/>
        <pt x="451" y="767" on="1"/>
        <pt x="451" y="598" on="0"/>
        <pt x="488" y="371" on="0"/>
        <pt x="547" y="284" on="1"/>
        <pt x="598" y="209" on="0"/>
        <pt x="750" y="126" on="0"/>
      </contour>
    </TTGlyph>
    <TTGlyph name="Omacron" xMin="68" yMin="-35" xMax="1472" yMax="1717">
      <contour>
        <pt x="1118" y="1717" on="1"/>
        <pt x="1086" y="1540" on="1"/>
        <pt x="965" y="1534" on="0"/>
        <pt x="585" y="1528" on="0"/>
        <pt x="446" y="1528" on="1"/>
        <pt x="481" y="1717" on="1"/>
      </contour>
      <contour>
        <pt x="815" y="1419" on="1"/>
        <pt x="994" y="1419" on="0"/>
        <pt x="1295" y="1260" on="0"/>
        <pt x="1472" y="961" on="0"/>
        <pt x="1472" y="762" on="1"/>
        <pt x="1472" y="546" on="0"/>
        <pt x="1294" y="182" on="0"/>
        <pt x="963" y="-35" on="0"/>
        <pt x="744" y="-35" on="1"/>
        <pt x="553" y="-35" on="0"/>
        <pt x="246" y="124" on="0"/>
        <pt x="68" y="422" on="0"/>
        <pt x="68" y="623" on="1"/>
        <pt x="68" y="837" on="0"/>
        <pt x="241" y="1201" on="0"/>
        <pt x="579" y="1419" on="0"/>
      </contour>
      <contour>
        <pt x="839" y="126" on="1"/>
        <pt x="890" y="126" on="0"/>
        <pt x="985" y="155" on="0"/>
        <pt x="1010" y="188" on="1"/>
        <pt x="1047" y="237" on="0"/>
        <pt x="1089" y="503" on="0"/>
        <pt x="1089" y="618" on="1"/>
        <pt x="1089" y="751" on="0"/>
        <pt x="1073" y="914" on="0"/>
        <pt x="1049" y="986" on="1"/>
        <pt x="1021" y="1067" on="0"/>
        <pt x="914" y="1191" on="0"/>
        <pt x="775" y="1258" on="0"/>
        <pt x="699" y="1258" on="1"/>
        <pt x="649" y="1258" on="0"/>
        <pt x="574" y="1244" on="0"/>
        <pt x="549" y="1219" on="1"/>
        <pt x="498" y="1169" on="0"/>
        <pt x="451" y="897" on="0"/>
        <pt x="451" y="767" on="1"/>
        <pt x="451" y="598" on="0"/>
        <pt x="488" y="371" on="0"/>
        <pt x="547" y="284" on="1"/>
        <pt x="598" y="209" on="0"/>
        <pt x="750" y="126" on="0"/>
      </contour>
    </TTGlyph>
    <TTGlyph name="Oslash" xMin="68" yMin="-190" xMax="1472" yMax="1523">
      <contour>
        <pt x="1472" y="762" on="1"/>
        <pt x="1472" y="546" on="0"/>
        <pt x="1294" y="182" on="0"/>
        <pt x="963" y="-35" on="0"/>
        <pt x="744" y="-35" on="1"/>
        <pt x="680" y="-35" on="0"/>
        <pt x="618" y="-26" on="1"/>
        <pt x="547" y="-190" on="1"/>
        <pt x="317" y="-145" on="1"/>
        <pt x="399" y="45" on="1"/>
        <pt x="245" y="124" on="0"/>
        <pt x="68" y="422" on="0"/>
        <pt x="68" y="623" on="1"/>
        <pt x="68" y="837" on="0"/>
        <pt x="241" y="1201" on="0"/>
        <pt x="579" y="1419" on="0"/>
        <pt x="815" y="1419" on="1"/>
        <pt x="898" y="1419" on="0"/>
        <pt x="983" y="1400" on="1"/>
        <pt x="1036" y="1523" on="1"/>
        <pt x="1264" y="1475" on="1"/>
        <pt x="1193" y="1310" on="1"/>
        <pt x="1323" y="1225" on="0"/>
        <pt x="1472" y="944" on="0"/>
      </contour>
      <contour>
        <pt x="509" y="300" on="1"/>
        <pt x="904" y="1216" on="1"/>
        <pt x="858" y="1240" on="0"/>
        <pt x="755" y="1264" on="0"/>
        <pt x="704" y="1264" on="1"/>
        <pt x="654" y="1264" on="0"/>
        <pt x="574" y="1246" on="0"/>
        <pt x="549" y="1218" on="1"/>
        <pt x="498" y="1168" on="0"/>
        <pt x="451" y="896" on="0"/>
        <pt x="451" y="766" on="1"/>
        <pt x="451" y="648" on="0"/>
        <pt x="457" y="501" on="0"/>
        <pt x="482" y="358" on="0"/>
      </contour>
      <contour>
        <pt x="1089" y="617" on="1"/>
        <pt x="1089" y="770" on="0"/>
        <pt x="1081" y="941" on="0"/>
        <pt x="1064" y="1010" on="1"/>
        <pt x="691" y="144" on="1"/>
        <pt x="760" y="120" on="0"/>
        <pt x="839" y="120" on="1"/>
        <pt x="966" y="120" on="0"/>
        <pt x="1010" y="187" on="1"/>
        <pt x="1045" y="239" on="0"/>
        <pt x="1089" y="507" on="0"/>
      </contour>
    </TTGlyph>
    <TTGlyph name="Otilde" xMin="68" yMin="-35" xMax="1472" yMax="1856">
      <contour>
        <pt x="652" y="1856" on="1"/>
        <pt x="707" y="1856" on="0"/>
        <pt x="793" y="1808" on="0"/>
        <pt x="843" y="1765" on="1"/>
        <pt x="876" y="1738" on="0"/>
        <pt x="911" y="1715" on="0"/>
        <pt x="928" y="1715" on="1"/>
        <pt x="962" y="1715" on="0"/>
        <pt x="1085" y="1780" on="0"/>
        <pt x="1150" y="1833" on="1"/>
        <pt x="1173" y="1686" on="1"/>
        <pt x="1120" y="1627" on="0"/>
        <pt x="1049" y="1559" on="0"/>
        <pt x="960" y="1512" on="0"/>
        <pt x="910" y="1512" on="1"/>
        <pt x="856" y="1512" on="0"/>
        <pt x="774" y="1559" on="0"/>
        <pt x="722" y="1602" on="1"/>
        <pt x="692" y="1628" on="0"/>
        <pt x="655" y="1653" on="0"/>
        <pt x="637" y="1653" on="1"/>
        <pt x="601" y="1653" on="0"/>
        <pt x="476" y="1585" on="0"/>
        <pt x="418" y="1533" on="1"/>
        <pt x="390" y="1680" on="1"/>
        <pt x="443" y="1740" on="0"/>
        <pt x="515" y="1810" on="0"/>
        <pt x="602" y="1856" on="0"/>
      </contour>
      <contour>
        <pt x="815" y="1419" on="1"/>
        <pt x="994" y="1419" on="0"/>
        <pt x="1295" y="1260" on="0"/>
        <pt x="1472" y="961" on="0"/>
        <pt x="1472" y="762" on="1"/>
        <pt x="1472" y="546" on="0"/>
        <pt x="1294" y="182" on="0"/>
        <pt x="963" y="-35" on="0"/>
        <pt x="744" y="-35" on="1"/>
        <pt x="553" y="-35" on="0"/>
        <pt x="246" y="124" on="0"/>
        <pt x="68" y="422" on="0"/>
        <pt x="68" y="623" on="1"/>
        <pt x="68" y="837" on="0"/>
        <pt x="241" y="1201" on="0"/>
        <pt x="579" y="1419" on="0"/>
      </contour>
      <contour>
        <pt x="839" y="126" on="1"/>
        <pt x="890" y="126" on="0"/>
        <pt x="985" y="155" on="0"/>
        <pt x="1010" y="188" on="1"/>
        <pt x="1047" y="237" on="0"/>
        <pt x="1089" y="503" on="0"/>
        <pt x="1089" y="618" on="1"/>
        <pt x="1089" y="751" on="0"/>
        <pt x="1073" y="914" on="0"/>
        <pt x="1049" y="986" on="1"/>
        <pt x="1021" y="1067" on="0"/>
        <pt x="914" y="1191" on="0"/>
        <pt x="775" y="1258" on="0"/>
        <pt x="699" y="1258" on="1"/>
        <pt x="649" y="1258" on="0"/>
        <pt x="574" y="1244" on="0"/>
        <pt x="549" y="1219" on="1"/>
        <pt x="498" y="1169" on="0"/>
        <pt x="451" y="897" on="0"/>
        <pt x="451" y="767" on="1"/>
        <pt x="451" y="598" on="0"/>
        <pt x="488" y="371" on="0"/>
        <pt x="547" y="284" on="1"/>
        <pt x="598" y="209" on="0"/>
        <pt x="750" y="126" on="0"/>
      </contour>
    </TTGlyph>
    <TTGlyph name="P" xMin="50" yMin="0" xMax="1335" yMax="1384">
      <contour>
        <pt x="246" y="1221" on="1"/>
        <pt x="59" y="1303" on="1"/>
        <pt x="76" y="1384" on="1"/>
        <pt x="650" y="1384" on="1"/>
        <pt x="786" y="1384" on="0"/>
        <pt x="948" y="1376" on="0"/>
        <pt x="1100" y="1342" on="0"/>
        <pt x="1163" y="1305" on="1"/>
        <pt x="1242" y="1258" on="0"/>
        <pt x="1335" y="1082" on="0"/>
        <pt x="1335" y="975" on="1"/>
        <pt x="1335" y="879" on="0"/>
        <pt x="1252" y="723" on="0"/>
        <pt x="1175" y="672" on="1"/>
        <pt x="1092" y="619" on="0"/>
        <pt x="855" y="573" on="0"/>
        <pt x="738" y="573" on="1"/>
        <pt x="750" y="640" on="1"/>
        <pt x="835" y="688" on="0"/>
        <pt x="930" y="777" on="0"/>
        <pt x="974" y="894" on="0"/>
        <pt x="974" y="982" on="1"/>
        <pt x="974" y="1091" on="0"/>
        <pt x="877" y="1234" on="0"/>
        <pt x="716" y="1301" on="0"/>
        <pt x="615" y="1303" on="1"/>
        <pt x="615" y="163" on="1"/>
        <pt x="867" y="81" on="1"/>
        <pt x="852" y="0" on="1"/>
        <pt x="50" y="0" on="1"/>
        <pt x="67" y="85" on="1"/>
        <pt x="246" y="164" on="1"/>
      </contour>
    </TTGlyph>
    <TTGlyph name="Q" xMin="68" yMin="-325" xMax="1472" yMax="1419">
      <contour>
        <pt x="1146" y="85" on="1"/>
        <pt x="1463" y="-259" on="1"/>
        <pt x="1429" y="-325" on="1"/>
        <pt x="1327" y="-325" on="0"/>
        <pt x="1106" y="-258" on="0"/>
        <pt x="899" y="-125" on="0"/>
        <pt x="821" y="-31" on="1"/>
        <pt x="788" y="-35" on="0"/>
        <pt x="744" y="-35" on="1"/>
        <pt x="553" y="-35" on="0"/>
        <pt x="246" y="124" on="0"/>
        <pt x="68" y="422" on="0"/>
        <pt x="68" y="623" on="1"/>
        <pt x="68" y="837" on="0"/>
        <pt x="241" y="1201" on="0"/>
        <pt x="579" y="1419" on="0"/>
        <pt x="815" y="1419" on="1"/>
        <pt x="994" y="1419" on="0"/>
        <pt x="1295" y="1260" on="0"/>
        <pt x="1472" y="961" on="0"/>
        <pt x="1472" y="762" on="1"/>
        <pt x="1472" y="551" on="0"/>
        <pt x="1301" y="191" on="0"/>
      </contour>
      <contour>
        <pt x="839" y="126" on="1"/>
        <pt x="890" y="126" on="0"/>
        <pt x="985" y="155" on="0"/>
        <pt x="1010" y="188" on="1"/>
        <pt x="1047" y="237" on="0"/>
        <pt x="1089" y="503" on="0"/>
        <pt x="1089" y="618" on="1"/>
        <pt x="1089" y="751" on="0"/>
        <pt x="1073" y="914" on="0"/>
        <pt x="1049" y="986" on="1"/>
        <pt x="1021" y="1067" on="0"/>
        <pt x="914" y="1191" on="0"/>
        <pt x="775" y="1258" on="0"/>
        <pt x="699" y="1258" on="1"/>
        <pt x="649" y="1258" on="0"/>
        <pt x="574" y="1244" on="0"/>
        <pt x="549" y="1219" on="1"/>
        <pt x="498" y="1169" on="0"/>
        <pt x="451" y="897" on="0"/>
        <pt x="451" y="767" on="1"/>
        <pt x="451" y="598" on="0"/>
        <pt x="488" y="371" on="0"/>
        <pt x="547" y="284" on="1"/>
        <pt x="598" y="209" on="0"/>
        <pt x="750" y="126" on="0"/>
      </contour>
    </TTGlyph>
    <TTGlyph name="R" xMin="51" yMin="0" xMax="1525" yMax="1384">
      <contour>
        <pt x="246" y="1221" on="1"/>
        <pt x="59" y="1303" on="1"/>
        <pt x="76" y="1384" on="1"/>
        <pt x="749" y="1384" on="1"/>
        <pt x="1061" y="1384" on="0"/>
        <pt x="1213" y="1283" on="1"/>
        <pt x="1356" y="1187" on="0"/>
        <pt x="1356" y="1007" on="1"/>
        <pt x="1356" y="888" on="0"/>
        <pt x="1211" y="723" on="0"/>
        <pt x="1083" y="679" on="1"/>
        <pt x="1346" y="171" on="1"/>
        <pt x="1525" y="79" on="1"/>
        <pt x="1507" y="0" on="1"/>
        <pt x="990" y="0" on="1"/>
        <pt x="1010" y="87" on="1"/>
        <pt x="730" y="686" on="1"/>
        <pt x="858" y="739" on="0"/>
        <pt x="985" y="920" on="0"/>
        <pt x="985" y="1022" on="1"/>
        <pt x="985" y="1112" on="0"/>
        <pt x="875" y="1236" on="0"/>
        <pt x="706" y="1299" on="0"/>
        <pt x="615" y="1304" on="1"/>
        <pt x="615" y="176" on="1"/>
        <pt x="808" y="94" on="1"/>
        <pt x="782" y="0" on="1"/>
        <pt x="51" y="0" on="1"/>
        <pt x="68" y="83" on="1"/>
        <pt x="246" y="164" on="1"/>
      </contour>
    </TTGlyph>
    <TTGlyph name="Racute" xMin="51" yMin="0" xMax="1525" yMax="1811">
      <contour>
        <pt x="812" y="1811" on="1"/>
        <pt x="984" y="1811" on="1"/>
        <pt x="1020" y="1637" on="1"/>
        <pt x="500" y="1486" on="1"/>
        <pt x="473" y="1596" on="1"/>
      </contour>
      <contour>
        <pt x="246" y="1221" on="1"/>
        <pt x="59" y="1303" on="1"/>
        <pt x="76" y="1384" on="1"/>
        <pt x="749" y="1384" on="1"/>
        <pt x="1061" y="1384" on="0"/>
        <pt x="1213" y="1283" on="1"/>
        <pt x="1356" y="1187" on="0"/>
        <pt x="1356" y="1007" on="1"/>
        <pt x="1356" y="888" on="0"/>
        <pt x="1211" y="723" on="0"/>
        <pt x="1083" y="679" on="1"/>
        <pt x="1346" y="171" on="1"/>
        <pt x="1525" y="79" on="1"/>
        <pt x="1507" y="0" on="1"/>
        <pt x="990" y="0" on="1"/>
        <pt x="1010" y="87" on="1"/>
        <pt x="730" y="686" on="1"/>
        <pt x="858" y="739" on="0"/>
        <pt x="985" y="920" on="0"/>
        <pt x="985" y="1022" on="1"/>
        <pt x="985" y="1112" on="0"/>
        <pt x="875" y="1236" on="0"/>
        <pt x="706" y="1299" on="0"/>
        <pt x="615" y="1304" on="1"/>
        <pt x="615" y="176" on="1"/>
        <pt x="808" y="94" on="1"/>
        <pt x="782" y="0" on="1"/>
        <pt x="51" y="0" on="1"/>
        <pt x="68" y="83" on="1"/>
        <pt x="246" y="164" on="1"/>
      </contour>
    </TTGlyph>
    <TTGlyph name="Rcaron" xMin="51" yMin="0" xMax="1525" yMax="1827">
      <contour>
        <pt x="416" y="1827" on="1"/>
        <pt x="678" y="1702" on="1"/>
        <pt x="941" y="1827" on="1"/>
        <pt x="1035" y="1748" on="1"/>
        <pt x="751" y="1515" on="1"/>
        <pt x="606" y="1515" on="1"/>
        <pt x="322" y="1748" on="1"/>
      </contour>
      <contour>
        <pt x="246" y="1221" on="1"/>
        <pt x="59" y="1303" on="1"/>
        <pt x="76" y="1384" on="1"/>
        <pt x="749" y="1384" on="1"/>
        <pt x="1061" y="1384" on="0"/>
        <pt x="1213" y="1283" on="1"/>
        <pt x="1356" y="1187" on="0"/>
        <pt x="1356" y="1007" on="1"/>
        <pt x="1356" y="888" on="0"/>
        <pt x="1211" y="723" on="0"/>
        <pt x="1083" y="679" on="1"/>
        <pt x="1346" y="171" on="1"/>
        <pt x="1525" y="79" on="1"/>
        <pt x="1507" y="0" on="1"/>
        <pt x="990" y="0" on="1"/>
        <pt x="1010" y="87" on="1"/>
        <pt x="730" y="686" on="1"/>
        <pt x="858" y="739" on="0"/>
        <pt x="985" y="920" on="0"/>
        <pt x="985" y="1022" on="1"/>
        <pt x="985" y="1112" on="0"/>
        <pt x="875" y="1236" on="0"/>
        <pt x="706" y="1299" on="0"/>
        <pt x="615" y="1304" on="1"/>
        <pt x="615" y="176" on="1"/>
        <pt x="808" y="94" on="1"/>
        <pt x="782" y="0" on="1"/>
        <pt x="51" y="0" on="1"/>
        <pt x="68" y="83" on="1"/>
        <pt x="246" y="164" on="1"/>
      </contour>
    </TTGlyph>
    <TTGlyph name="Rcommaaccent" xMin="51" yMin="-561" xMax="1525" yMax="1384">
      <contour>
        <pt x="246" y="1221" on="1"/>
        <pt x="59" y="1303" on="1"/>
        <pt x="76" y="1384" on="1"/>
        <pt x="749" y="1384" on="1"/>
        <pt x="1061" y="1384" on="0"/>
        <pt x="1213" y="1283" on="1"/>
        <pt x="1356" y="1187" on="0"/>
        <pt x="1356" y="1007" on="1"/>
        <pt x="1356" y="888" on="0"/>
        <pt x="1211" y="723" on="0"/>
        <pt x="1083" y="679" on="1"/>
        <pt x="1346" y="171" on="1"/>
        <pt x="1525" y="79" on="1"/>
        <pt x="1507" y="0" on="1"/>
        <pt x="990" y="0" on="1"/>
        <pt x="1010" y="87" on="1"/>
        <pt x="730" y="686" on="1"/>
        <pt x="858" y="739" on="0"/>
        <pt x="985" y="920" on="0"/>
        <pt x="985" y="1022" on="1"/>
        <pt x="985" y="1112" on="0"/>
        <pt x="875" y="1236" on="0"/>
        <pt x="706" y="1299" on="0"/>
        <pt x="615" y="1304" on="1"/>
        <pt x="615" y="176" on="1"/>
        <pt x="808" y="94" on="1"/>
        <pt x="782" y="0" on="1"/>
        <pt x="51" y="0" on="1"/>
        <pt x="68" y="83" on="1"/>
        <pt x="246" y="164" on="1"/>
      </contour>
      <contour>
        <pt x="861" y="-176" on="1"/>
        <pt x="896" y="-205" on="0"/>
        <pt x="929" y="-274" on="0"/>
        <pt x="929" y="-319" on="1"/>
        <pt x="929" y="-394" on="0"/>
        <pt x="825" y="-504" on="0"/>
        <pt x="680" y="-561" on="0"/>
        <pt x="623" y="-561" on="1"/>
        <pt x="593" y="-479" on="1"/>
        <pt x="658" y="-437" on="0"/>
        <pt x="718" y="-390" on="0"/>
        <pt x="737" y="-363" on="0"/>
        <pt x="736" y="-348" on="1"/>
        <pt x="735" y="-328" on="0"/>
        <pt x="664" y="-294" on="0"/>
        <pt x="602" y="-282" on="1"/>
        <pt x="642" y="-106" on="1"/>
        <pt x="703" y="-106" on="0"/>
        <pt x="818" y="-140" on="0"/>
      </contour>
    </TTGlyph>
    <TTGlyph name="S" xMin="53" yMin="-35" xMax="1117" yMax="1419">
      <contour>
        <pt x="728" y="1286" on="1"/>
        <pt x="639" y="1276" on="0"/>
        <pt x="506" y="1209" on="0"/>
        <pt x="469" y="1161" on="1"/>
        <pt x="460" y="1150" on="0"/>
        <pt x="451" y="1127" on="0"/>
        <pt x="451" y="1110" on="1"/>
        <pt x="451" y="1063" on="0"/>
        <pt x="600" y="935" on="0"/>
        <pt x="766" y="845" on="1"/>
        <pt x="879" y="784" on="0"/>
        <pt x="1026" y="673" on="0"/>
        <pt x="1117" y="518" on="0"/>
        <pt x="1117" y="413" on="1"/>
        <pt x="1117" y="278" on="0"/>
        <pt x="967" y="76" on="0"/>
        <pt x="686" y="-35" on="0"/>
        <pt x="494" y="-35" on="1"/>
        <pt x="362" y="-35" on="0"/>
        <pt x="122" y="36" on="0"/>
        <pt x="53" y="86" on="1"/>
        <pt x="134" y="430" on="1"/>
        <pt x="278" y="403" on="1"/>
        <pt x="308" y="121" on="1"/>
        <pt x="384" y="121" on="0"/>
        <pt x="442" y="130" on="1"/>
        <pt x="597" y="154" on="0"/>
        <pt x="689" y="238" on="1"/>
        <pt x="718" y="264" on="0"/>
        <pt x="740" y="308" on="0"/>
        <pt x="740" y="334" on="1"/>
        <pt x="740" y="369" on="0"/>
        <pt x="687" y="429" on="0"/>
        <pt x="576" y="503" on="0"/>
        <pt x="439" y="586" on="1"/>
        <pt x="324" y="656" on="0"/>
        <pt x="187" y="772" on="0"/>
        <pt x="111" y="923" on="0"/>
        <pt x="111" y="1028" on="1"/>
        <pt x="111" y="1150" on="0"/>
        <pt x="251" y="1326" on="0"/>
        <pt x="507" y="1419" on="0"/>
        <pt x="677" y="1419" on="1"/>
        <pt x="780" y="1419" on="0"/>
        <pt x="930" y="1390" on="1"/>
        <pt x="1042" y="1394" on="1"/>
        <pt x="1076" y="1008" on="1"/>
        <pt x="931" y="984" on="1"/>
        <pt x="795" y="1289" on="1"/>
        <pt x="759" y="1289" on="0"/>
      </contour>
    </TTGlyph>
    <TTGlyph name="Sacute" xMin="53" yMin="-35" xMax="1117" yMax="1811">
      <contour>
        <pt x="727" y="1811" on="1"/>
        <pt x="899" y="1811" on="1"/>
        <pt x="935" y="1637" on="1"/>
        <pt x="415" y="1486" on="1"/>
        <pt x="388" y="1596" on="1"/>
      </contour>
      <contour>
        <pt x="728" y="1286" on="1"/>
        <pt x="639" y="1276" on="0"/>
        <pt x="506" y="1209" on="0"/>
        <pt x="469" y="1161" on="1"/>
        <pt x="460" y="1150" on="0"/>
        <pt x="451" y="1127" on="0"/>
        <pt x="451" y="1110" on="1"/>
        <pt x="451" y="1063" on="0"/>
        <pt x="600" y="935" on="0"/>
        <pt x="766" y="845" on="1"/>
        <pt x="879" y="784" on="0"/>
        <pt x="1026" y="673" on="0"/>
        <pt x="1117" y="518" on="0"/>
        <pt x="1117" y="413" on="1"/>
        <pt x="1117" y="278" on="0"/>
        <pt x="967" y="76" on="0"/>
        <pt x="686" y="-35" on="0"/>
        <pt x="494" y="-35" on="1"/>
        <pt x="362" y="-35" on="0"/>
        <pt x="122" y="36" on="0"/>
        <pt x="53" y="86" on="1"/>
        <pt x="134" y="430" on="1"/>
        <pt x="278" y="403" on="1"/>
        <pt x="308" y="121" on="1"/>
        <pt x="384" y="121" on="0"/>
        <pt x="442" y="130" on="1"/>
        <pt x="597" y="154" on="0"/>
        <pt x="689" y="238" on="1"/>
        <pt x="718" y="264" on="0"/>
        <pt x="740" y="308" on="0"/>
        <pt x="740" y="334" on="1"/>
        <pt x="740" y="369" on="0"/>
        <pt x="687" y="429" on="0"/>
        <pt x="576" y="503" on="0"/>
        <pt x="439" y="586" on="1"/>
        <pt x="324" y="656" on="0"/>
        <pt x="187" y="772" on="0"/>
        <pt x="111" y="923" on="0"/>
        <pt x="111" y="1028" on="1"/>
        <pt x="111" y="1150" on="0"/>
        <pt x="251" y="1326" on="0"/>
        <pt x="507" y="1419" on="0"/>
        <pt x="677" y="1419" on="1"/>
        <pt x="780" y="1419" on="0"/>
        <pt x="930" y="1390" on="1"/>
        <pt x="1042" y="1394" on="1"/>
        <pt x="1076" y="1008" on="1"/>
        <pt x="931" y="984" on="1"/>
        <pt x="795" y="1289" on="1"/>
        <pt x="759" y="1289" on="0"/>
      </contour>
    </TTGlyph>
    <TTGlyph name="Scaron" xMin="53" yMin="-35" xMax="1117" yMax="1827">
      <contour>
        <pt x="331" y="1827" on="1"/>
        <pt x="593" y="1702" on="1"/>
        <pt x="856" y="1827" on="1"/>
        <pt x="950" y="1748" on="1"/>
        <pt x="666" y="1515" on="1"/>
        <pt x="521" y="1515" on="1"/>
        <pt x="237" y="1748" on="1"/>
      </contour>
      <contour>
        <pt x="728" y="1286" on="1"/>
        <pt x="639" y="1276" on="0"/>
        <pt x="506" y="1209" on="0"/>
        <pt x="469" y="1161" on="1"/>
        <pt x="460" y="1150" on="0"/>
        <pt x="451" y="1127" on="0"/>
        <pt x="451" y="1110" on="1"/>
        <pt x="451" y="1063" on="0"/>
        <pt x="600" y="935" on="0"/>
        <pt x="766" y="845" on="1"/>
        <pt x="879" y="784" on="0"/>
        <pt x="1026" y="673" on="0"/>
        <pt x="1117" y="518" on="0"/>
        <pt x="1117" y="413" on="1"/>
        <pt x="1117" y="278" on="0"/>
        <pt x="967" y="76" on="0"/>
        <pt x="686" y="-35" on="0"/>
        <pt x="494" y="-35" on="1"/>
        <pt x="362" y="-35" on="0"/>
        <pt x="122" y="36" on="0"/>
        <pt x="53" y="86" on="1"/>
        <pt x="134" y="430" on="1"/>
        <pt x="278" y="403" on="1"/>
        <pt x="308" y="121" on="1"/>
        <pt x="384" y="121" on="0"/>
        <pt x="442" y="130" on="1"/>
        <pt x="597" y="154" on="0"/>
        <pt x="689" y="238" on="1"/>
        <pt x="718" y="264" on="0"/>
        <pt x="740" y="308" on="0"/>
        <pt x="740" y="334" on="1"/>
        <pt x="740" y="369" on="0"/>
        <pt x="687" y="429" on="0"/>
        <pt x="576" y="503" on="0"/>
        <pt x="439" y="586" on="1"/>
        <pt x="324" y="656" on="0"/>
        <pt x="187" y="772" on="0"/>
        <pt x="111" y="923" on="0"/>
        <pt x="111" y="1028" on="1"/>
        <pt x="111" y="1150" on="0"/>
        <pt x="251" y="1326" on="0"/>
        <pt x="507" y="1419" on="0"/>
        <pt x="677" y="1419" on="1"/>
        <pt x="780" y="1419" on="0"/>
        <pt x="930" y="1390" on="1"/>
        <pt x="1042" y="1394" on="1"/>
        <pt x="1076" y="1008" on="1"/>
        <pt x="931" y="984" on="1"/>
        <pt x="795" y="1289" on="1"/>
        <pt x="759" y="1289" on="0"/>
      </contour>
    </TTGlyph>
    <TTGlyph name="Scedilla" xMin="53" yMin="-500" xMax="1117" yMax="1419">
      <contour>
        <pt x="625" y="-28" on="1"/>
        <pt x="606" y="-94" on="1"/>
        <pt x="656" y="-94" on="0"/>
        <pt x="751" y="-133" on="0"/>
        <pt x="811" y="-206" on="0"/>
        <pt x="811" y="-254" on="1"/>
        <pt x="811" y="-336" on="0"/>
        <pt x="686" y="-447" on="0"/>
        <pt x="494" y="-500" on="0"/>
        <pt x="392" y="-500" on="1"/>
        <pt x="376" y="-420" on="1"/>
        <pt x="519" y="-375" on="0"/>
        <pt x="610" y="-306" on="0"/>
        <pt x="610" y="-278" on="1"/>
        <pt x="610" y="-247" on="0"/>
        <pt x="489" y="-209" on="0"/>
        <pt x="378" y="-201" on="1"/>
        <pt x="399" y="-108" on="0"/>
        <pt x="471" y="-35" on="1"/>
        <pt x="345" y="-31" on="0"/>
        <pt x="118" y="38" on="0"/>
        <pt x="53" y="86" on="1"/>
        <pt x="134" y="430" on="1"/>
        <pt x="278" y="403" on="1"/>
        <pt x="308" y="121" on="1"/>
        <pt x="384" y="121" on="0"/>
        <pt x="442" y="130" on="1"/>
        <pt x="597" y="154" on="0"/>
        <pt x="689" y="238" on="1"/>
        <pt x="718" y="264" on="0"/>
        <pt x="740" y="308" on="0"/>
        <pt x="740" y="334" on="1"/>
        <pt x="740" y="369" on="0"/>
        <pt x="687" y="429" on="0"/>
        <pt x="576" y="503" on="0"/>
        <pt x="439" y="586" on="1"/>
        <pt x="324" y="656" on="0"/>
        <pt x="187" y="772" on="0"/>
        <pt x="111" y="923" on="0"/>
        <pt x="111" y="1028" on="1"/>
        <pt x="111" y="1150" on="0"/>
        <pt x="251" y="1326" on="0"/>
        <pt x="507" y="1419" on="0"/>
        <pt x="677" y="1419" on="1"/>
        <pt x="780" y="1419" on="0"/>
        <pt x="930" y="1390" on="1"/>
        <pt x="1042" y="1394" on="1"/>
        <pt x="1076" y="1008" on="1"/>
        <pt x="931" y="984" on="1"/>
        <pt x="795" y="1289" on="1"/>
        <pt x="759" y="1289" on="0"/>
        <pt x="728" y="1286" on="1"/>
        <pt x="639" y="1276" on="0"/>
        <pt x="506" y="1209" on="0"/>
        <pt x="469" y="1161" on="1"/>
        <pt x="460" y="1150" on="0"/>
        <pt x="451" y="1127" on="0"/>
        <pt x="451" y="1110" on="1"/>
        <pt x="451" y="1063" on="0"/>
        <pt x="600" y="935" on="0"/>
        <pt x="766" y="845" on="1"/>
        <pt x="879" y="784" on="0"/>
        <pt x="1026" y="673" on="0"/>
        <pt x="1117" y="518" on="0"/>
        <pt x="1117" y="413" on="1"/>
        <pt x="1117" y="294" on="0"/>
        <pt x="1000" y="108" on="0"/>
        <pt x="778" y="-10" on="0"/>
      </contour>
    </TTGlyph>
    <TTGlyph name="Scommaaccent" xMin="53" yMin="-561" xMax="1117" yMax="1419">
      <contour>
        <pt x="728" y="1286" on="1"/>
        <pt x="639" y="1276" on="0"/>
        <pt x="506" y="1209" on="0"/>
        <pt x="469" y="1161" on="1"/>
        <pt x="460" y="1150" on="0"/>
        <pt x="451" y="1127" on="0"/>
        <pt x="451" y="1110" on="1"/>
        <pt x="451" y="1063" on="0"/>
        <pt x="600" y="935" on="0"/>
        <pt x="766" y="845" on="1"/>
        <pt x="879" y="784" on="0"/>
        <pt x="1026" y="673" on="0"/>
        <pt x="1117" y="518" on="0"/>
        <pt x="1117" y="413" on="1"/>
        <pt x="1117" y="278" on="0"/>
        <pt x="967" y="76" on="0"/>
        <pt x="686" y="-35" on="0"/>
        <pt x="494" y="-35" on="1"/>
        <pt x="362" y="-35" on="0"/>
        <pt x="122" y="36" on="0"/>
        <pt x="53" y="86" on="1"/>
        <pt x="134" y="430" on="1"/>
        <pt x="278" y="403" on="1"/>
        <pt x="308" y="121" on="1"/>
        <pt x="384" y="121" on="0"/>
        <pt x="442" y="130" on="1"/>
        <pt x="597" y="154" on="0"/>
        <pt x="689" y="238" on="1"/>
        <pt x="718" y="264" on="0"/>
        <pt x="740" y="308" on="0"/>
        <pt x="740" y="334" on="1"/>
        <pt x="740" y="369" on="0"/>
        <pt x="687" y="429" on="0"/>
        <pt x="576" y="503" on="0"/>
        <pt x="439" y="586" on="1"/>
        <pt x="324" y="656" on="0"/>
        <pt x="187" y="772" on="0"/>
        <pt x="111" y="923" on="0"/>
        <pt x="111" y="1028" on="1"/>
        <pt x="111" y="1150" on="0"/>
        <pt x="251" y="1326" on="0"/>
        <pt x="507" y="1419" on="0"/>
        <pt x="677" y="1419" on="1"/>
        <pt x="780" y="1419" on="0"/>
        <pt x="930" y="1390" on="1"/>
        <pt x="1042" y="1394" on="1"/>
        <pt x="1076" y="1008" on="1"/>
        <pt x="931" y="984" on="1"/>
        <pt x="795" y="1289" on="1"/>
        <pt x="759" y="1289" on="0"/>
      </contour>
      <contour>
        <pt x="680" y="-176" on="1"/>
        <pt x="715" y="-205" on="0"/>
        <pt x="748" y="-274" on="0"/>
        <pt x="748" y="-319" on="1"/>
        <pt x="748" y="-394" on="0"/>
        <pt x="644" y="-504" on="0"/>
        <pt x="499" y="-561" on="0"/>
        <pt x="442" y="-561" on="1"/>
        <pt x="412" y="-479" on="1"/>
        <pt x="477" y="-437" on="0"/>
        <pt x="537" y="-390" on="0"/>
        <pt x="556" y="-363" on="0"/>
        <pt x="555" y="-348" on="1"/>
        <pt x="554" y="-328" on="0"/>
        <pt x="483" y="-294" on="0"/>
        <pt x="421" y="-282" on="1"/>
        <pt x="461" y="-106" on="1"/>
        <pt x="522" y="-106" on="0"/>
        <pt x="637" y="-140" on="0"/>
      </contour>
    </TTGlyph>
    <TTGlyph name="T" xMin="-1" yMin="0" xMax="1457" yMax="1399">
      <contour>
        <pt x="549" y="1289" on="1"/>
        <pt x="272" y="1238" on="1"/>
        <pt x="141" y="987" on="1"/>
        <pt x="-1" y="1010" on="1"/>
        <pt x="81" y="1394" on="1"/>
        <pt x="215" y="1384" on="1"/>
        <pt x="1281" y="1384" on="1"/>
        <pt x="1410" y="1399" on="1"/>
        <pt x="1457" y="1008" on="1"/>
        <pt x="1307" y="984" on="1"/>
        <pt x="1193" y="1237" on="1"/>
        <pt x="909" y="1289" on="1"/>
        <pt x="909" y="168" on="1"/>
        <pt x="1147" y="89" on="1"/>
        <pt x="1129" y="0" on="1"/>
        <pt x="320" y="0" on="1"/>
        <pt x="339" y="89" on="1"/>
        <pt x="549" y="169" on="1"/>
      </contour>
    </TTGlyph>
    <TTGlyph name="Tcaron" xMin="-1" yMin="0" xMax="1457" yMax="1827">
      <contour>
        <pt x="471" y="1827" on="1"/>
        <pt x="733" y="1702" on="1"/>
        <pt x="996" y="1827" on="1"/>
        <pt x="1090" y="1748" on="1"/>
        <pt x="806" y="1515" on="1"/>
        <pt x="661" y="1515" on="1"/>
        <pt x="377" y="1748" on="1"/>
      </contour>
      <contour>
        <pt x="549" y="1289" on="1"/>
        <pt x="272" y="1238" on="1"/>
        <pt x="141" y="987" on="1"/>
        <pt x="-1" y="1010" on="1"/>
        <pt x="81" y="1394" on="1"/>
        <pt x="215" y="1384" on="1"/>
        <pt x="1281" y="1384" on="1"/>
        <pt x="1410" y="1399" on="1"/>
        <pt x="1457" y="1008" on="1"/>
        <pt x="1307" y="984" on="1"/>
        <pt x="1193" y="1237" on="1"/>
        <pt x="909" y="1289" on="1"/>
        <pt x="909" y="168" on="1"/>
        <pt x="1147" y="89" on="1"/>
        <pt x="1129" y="0" on="1"/>
        <pt x="320" y="0" on="1"/>
        <pt x="339" y="89" on="1"/>
        <pt x="549" y="169" on="1"/>
      </contour>
    </TTGlyph>
    <TTGlyph name="Thorn" xMin="51" yMin="0" xMax="1336" yMax="1384">
      <contour>
        <pt x="1336" y="735" on="1"/>
        <pt x="1336" y="638" on="0"/>
        <pt x="1252" y="481" on="0"/>
        <pt x="1174" y="432" on="1"/>
        <pt x="1089" y="379" on="0"/>
        <pt x="860" y="332" on="0"/>
        <pt x="739" y="332" on="1"/>
        <pt x="751" y="398" on="1"/>
        <pt x="838" y="444" on="0"/>
        <pt x="934" y="542" on="0"/>
        <pt x="975" y="664" on="0"/>
        <pt x="975" y="750" on="1"/>
        <pt x="975" y="906" on="0"/>
        <pt x="774" y="1057" on="0"/>
        <pt x="615" y="1063" on="1"/>
        <pt x="615" y="165" on="1"/>
        <pt x="846" y="81" on="1"/>
        <pt x="829" y="0" on="1"/>
        <pt x="51" y="0" on="1"/>
        <pt x="69" y="85" on="1"/>
        <pt x="246" y="165" on="1"/>
        <pt x="246" y="1221" on="1"/>
        <pt x="59" y="1303" on="1"/>
        <pt x="76" y="1384" on="1"/>
        <pt x="812" y="1384" on="1"/>
        <pt x="797" y="1301" on="1"/>
        <pt x="615" y="1219" on="1"/>
        <pt x="615" y="1144" on="1"/>
        <pt x="795" y="1144" on="0"/>
        <pt x="1003" y="1129" on="0"/>
        <pt x="1156" y="1079" on="0"/>
        <pt x="1217" y="1027" on="1"/>
        <pt x="1336" y="924" on="0"/>
      </contour>
    </TTGlyph>
    <TTGlyph name="U" xMin="39" yMin="-35" xMax="1580" yMax="1384">
      <contour>
        <pt x="919" y="159" on="1"/>
        <pt x="980" y="159" on="0"/>
        <pt x="1083" y="190" on="0"/>
        <pt x="1116" y="223" on="1"/>
        <pt x="1192" y="300" on="0"/>
        <pt x="1192" y="477" on="1"/>
        <pt x="1192" y="1221" on="1"/>
        <pt x="995" y="1303" on="1"/>
        <pt x="1012" y="1384" on="1"/>
        <pt x="1580" y="1384" on="1"/>
        <pt x="1565" y="1300" on="1"/>
        <pt x="1412" y="1217" on="1"/>
        <pt x="1412" y="529" on="1"/>
        <pt x="1412" y="244" on="0"/>
        <pt x="1081" y="-35" on="0"/>
        <pt x="772" y="-35" on="1"/>
        <pt x="488" y="-35" on="0"/>
        <pt x="210" y="217" on="0"/>
        <pt x="210" y="469" on="1"/>
        <pt x="210" y="1221" on="1"/>
        <pt x="39" y="1305" on="1"/>
        <pt x="57" y="1384" on="1"/>
        <pt x="784" y="1384" on="1"/>
        <pt x="762" y="1283" on="1"/>
        <pt x="570" y="1210" on="1"/>
        <pt x="570" y="536" on="1"/>
        <pt x="570" y="425" on="0"/>
        <pt x="647" y="255" on="0"/>
        <pt x="804" y="159" on="0"/>
      </contour>
    </TTGlyph>
    <TTGlyph name="Uacute" xMin="39" yMin="-35" xMax="1580" yMax="1811">
      <contour>
        <pt x="987" y="1811" on="1"/>
        <pt x="1159" y="1811" on="1"/>
        <pt x="1195" y="1637" on="1"/>
        <pt x="675" y="1486" on="1"/>
        <pt x="648" y="1596" on="1"/>
      </contour>
      <contour>
        <pt x="919" y="159" on="1"/>
        <pt x="980" y="159" on="0"/>
        <pt x="1083" y="190" on="0"/>
        <pt x="1116" y="223" on="1"/>
        <pt x="1192" y="300" on="0"/>
        <pt x="1192" y="477" on="1"/>
        <pt x="1192" y="1221" on="1"/>
        <pt x="995" y="1303" on="1"/>
        <pt x="1012" y="1384" on="1"/>
        <pt x="1580" y="1384" on="1"/>
        <pt x="1565" y="1300" on="1"/>
        <pt x="1412" y="1217" on="1"/>
        <pt x="1412" y="529" on="1"/>
        <pt x="1412" y="244" on="0"/>
        <pt x="1081" y="-35" on="0"/>
        <pt x="772" y="-35" on="1"/>
        <pt x="488" y="-35" on="0"/>
        <pt x="210" y="217" on="0"/>
        <pt x="210" y="469" on="1"/>
        <pt x="210" y="1221" on="1"/>
        <pt x="39" y="1305" on="1"/>
        <pt x="57" y="1384" on="1"/>
        <pt x="784" y="1384" on="1"/>
        <pt x="762" y="1283" on="1"/>
        <pt x="570" y="1210" on="1"/>
        <pt x="570" y="536" on="1"/>
        <pt x="570" y="425" on="0"/>
        <pt x="647" y="255" on="0"/>
        <pt x="804" y="159" on="0"/>
      </contour>
    </TTGlyph>
    <TTGlyph name="Ucircumflex" xMin="39" yMin="-35" xMax="1580" yMax="1805">
      <contour>
        <pt x="790" y="1805" on="1"/>
        <pt x="919" y="1805" on="1"/>
        <pt x="1215" y="1554" on="1"/>
        <pt x="1116" y="1475" on="1"/>
        <pt x="855" y="1598" on="1"/>
        <pt x="594" y="1475" on="1"/>
        <pt x="495" y="1554" on="1"/>
      </contour>
      <contour>
        <pt x="919" y="159" on="1"/>
        <pt x="980" y="159" on="0"/>
        <pt x="1083" y="190" on="0"/>
        <pt x="1116" y="223" on="1"/>
        <pt x="1192" y="300" on="0"/>
        <pt x="1192" y="477" on="1"/>
        <pt x="1192" y="1221" on="1"/>
        <pt x="995" y="1303" on="1"/>
        <pt x="1012" y="1384" on="1"/>
        <pt x="1580" y="1384" on="1"/>
        <pt x="1565" y="1300" on="1"/>
        <pt x="1412" y="1217" on="1"/>
        <pt x="1412" y="529" on="1"/>
        <pt x="1412" y="244" on="0"/>
        <pt x="1081" y="-35" on="0"/>
        <pt x="772" y="-35" on="1"/>
        <pt x="488" y="-35" on="0"/>
        <pt x="210" y="217" on="0"/>
        <pt x="210" y="469" on="1"/>
        <pt x="210" y="1221" on="1"/>
        <pt x="39" y="1305" on="1"/>
        <pt x="57" y="1384" on="1"/>
        <pt x="784" y="1384" on="1"/>
        <pt x="762" y="1283" on="1"/>
        <pt x="570" y="1210" on="1"/>
        <pt x="570" y="536" on="1"/>
        <pt x="570" y="425" on="0"/>
        <pt x="647" y="255" on="0"/>
        <pt x="804" y="159" on="0"/>
      </contour>
    </TTGlyph>
    <TTGlyph name="Udieresis" xMin="39" yMin="-35" xMax="1580" yMax="1831">
      <contour>
        <pt x="597" y="1831" on="1"/>
        <pt x="618" y="1831" on="0"/>
        <pt x="701" y="1765" on="0"/>
        <pt x="767" y="1682" on="0"/>
        <pt x="767" y="1658" on="1"/>
        <pt x="767" y="1635" on="0"/>
        <pt x="702" y="1551" on="0"/>
        <pt x="617" y="1485" on="0"/>
        <pt x="591" y="1485" on="1"/>
        <pt x="569" y="1485" on="0"/>
        <pt x="487" y="1552" on="0"/>
        <pt x="421" y="1637" on="0"/>
        <pt x="421" y="1660" on="1"/>
        <pt x="421" y="1684" on="0"/>
        <pt x="487" y="1766" on="0"/>
        <pt x="571" y="1831" on="0"/>
      </contour>
      <contour>
        <pt x="1116" y="1831" on="1"/>
        <pt x="1137" y="1831" on="0"/>
        <pt x="1220" y="1765" on="0"/>
        <pt x="1286" y="1682" on="0"/>
        <pt x="1286" y="1658" on="1"/>
        <pt x="1286" y="1635" on="0"/>
        <pt x="1221" y="1551" on="0"/>
        <pt x="1136" y="1485" on="0"/>
        <pt x="1110" y="1485" on="1"/>
        <pt x="1088" y="1485" on="0"/>
        <pt x="1006" y="1552" on="0"/>
        <pt x="940" y="1637" on="0"/>
        <pt x="940" y="1660" on="1"/>
        <pt x="940" y="1684" on="0"/>
        <pt x="1006" y="1766" on="0"/>
        <pt x="1090" y="1831" on="0"/>
      </contour>
      <contour>
        <pt x="919" y="159" on="1"/>
        <pt x="980" y="159" on="0"/>
        <pt x="1083" y="190" on="0"/>
        <pt x="1116" y="223" on="1"/>
        <pt x="1192" y="300" on="0"/>
        <pt x="1192" y="477" on="1"/>
        <pt x="1192" y="1221" on="1"/>
        <pt x="995" y="1303" on="1"/>
        <pt x="1012" y="1384" on="1"/>
        <pt x="1580" y="1384" on="1"/>
        <pt x="1565" y="1300" on="1"/>
        <pt x="1412" y="1217" on="1"/>
        <pt x="1412" y="529" on="1"/>
        <pt x="1412" y="244" on="0"/>
        <pt x="1081" y="-35" on="0"/>
        <pt x="772" y="-35" on="1"/>
        <pt x="488" y="-35" on="0"/>
        <pt x="210" y="217" on="0"/>
        <pt x="210" y="469" on="1"/>
        <pt x="210" y="1221" on="1"/>
        <pt x="39" y="1305" on="1"/>
        <pt x="57" y="1384" on="1"/>
        <pt x="784" y="1384" on="1"/>
        <pt x="762" y="1283" on="1"/>
        <pt x="570" y="1210" on="1"/>
        <pt x="570" y="536" on="1"/>
        <pt x="570" y="425" on="0"/>
        <pt x="647" y="255" on="0"/>
        <pt x="804" y="159" on="0"/>
      </contour>
    </TTGlyph>
    <TTGlyph name="Ugrave" xMin="39" yMin="-35" xMax="1580" yMax="1811">
      <contour>
        <pt x="616" y="1811" on="1"/>
        <pt x="789" y="1811" on="1"/>
        <pt x="1125" y="1598" on="1"/>
        <pt x="1101" y="1484" on="1"/>
        <pt x="580" y="1638" on="1"/>
      </contour>
      <contour>
        <pt x="919" y="159" on="1"/>
        <pt x="980" y="159" on="0"/>
        <pt x="1083" y="190" on="0"/>
        <pt x="1116" y="223" on="1"/>
        <pt x="1192" y="300" on="0"/>
        <pt x="1192" y="477" on="1"/>
        <pt x="1192" y="1221" on="1"/>
        <pt x="995" y="1303" on="1"/>
        <pt x="1012" y="1384" on="1"/>
        <pt x="1580" y="1384" on="1"/>
        <pt x="1565" y="1300" on="1"/>
        <pt x="1412" y="1217" on="1"/>
        <pt x="1412" y="529" on="1"/>
        <pt x="1412" y="244" on="0"/>
        <pt x="1081" y="-35" on="0"/>
        <pt x="772" y="-35" on="1"/>
        <pt x="488" y="-35" on="0"/>
        <pt x="210" y="217" on="0"/>
        <pt x="210" y="469" on="1"/>
        <pt x="210" y="1221" on="1"/>
        <pt x="39" y="1305" on="1"/>
        <pt x="57" y="1384" on="1"/>
        <pt x="784" y="1384" on="1"/>
        <pt x="762" y="1283" on="1"/>
        <pt x="570" y="1210" on="1"/>
        <pt x="570" y="536" on="1"/>
        <pt x="570" y="425" on="0"/>
        <pt x="647" y="255" on="0"/>
        <pt x="804" y="159" on="0"/>
      </contour>
    </TTGlyph>
    <TTGlyph name="Uhungarumlaut" xMin="39" yMin="-35" xMax="1580" yMax="1820">
      <contour>
        <pt x="924" y="1820" on="1"/>
        <pt x="945" y="1717" on="1"/>
        <pt x="615" y="1470" on="1"/>
        <pt x="532" y="1601" on="1"/>
        <pt x="734" y="1820" on="1"/>
      </contour>
      <contour>
        <pt x="1303" y="1820" on="1"/>
        <pt x="1324" y="1717" on="1"/>
        <pt x="994" y="1470" on="1"/>
        <pt x="911" y="1601" on="1"/>
        <pt x="1113" y="1820" on="1"/>
      </contour>
      <contour>
        <pt x="919" y="159" on="1"/>
        <pt x="980" y="159" on="0"/>
        <pt x="1083" y="190" on="0"/>
        <pt x="1116" y="223" on="1"/>
        <pt x="1192" y="300" on="0"/>
        <pt x="1192" y="477" on="1"/>
        <pt x="1192" y="1221" on="1"/>
        <pt x="995" y="1303" on="1"/>
        <pt x="1012" y="1384" on="1"/>
        <pt x="1580" y="1384" on="1"/>
        <pt x="1565" y="1300" on="1"/>
        <pt x="1412" y="1217" on="1"/>
        <pt x="1412" y="529" on="1"/>
        <pt x="1412" y="244" on="0"/>
        <pt x="1081" y="-35" on="0"/>
        <pt x="772" y="-35" on="1"/>
        <pt x="488" y="-35" on="0"/>
        <pt x="210" y="217" on="0"/>
        <pt x="210" y="469" on="1"/>
        <pt x="210" y="1221" on="1"/>
        <pt x="39" y="1305" on="1"/>
        <pt x="57" y="1384" on="1"/>
        <pt x="784" y="1384" on="1"/>
        <pt x="762" y="1283" on="1"/>
        <pt x="570" y="1210" on="1"/>
        <pt x="570" y="536" on="1"/>
        <pt x="570" y="425" on="0"/>
        <pt x="647" y="255" on="0"/>
        <pt x="804" y="159" on="0"/>
      </contour>
    </TTGlyph>
    <TTGlyph name="Umacron" xMin="39" yMin="-35" xMax="1580" yMax="1717">
      <contour>
        <pt x="1189" y="1717" on="1"/>
        <pt x="1157" y="1540" on="1"/>
        <pt x="1036" y="1534" on="0"/>
        <pt x="656" y="1528" on="0"/>
        <pt x="517" y="1528" on="1"/>
        <pt x="552" y="1717" on="1"/>
      </contour>
      <contour>
        <pt x="919" y="159" on="1"/>
        <pt x="980" y="159" on="0"/>
        <pt x="1083" y="190" on="0"/>
        <pt x="1116" y="223" on="1"/>
        <pt x="1192" y="300" on="0"/>
        <pt x="1192" y="477" on="1"/>
        <pt x="1192" y="1221" on="1"/>
        <pt x="995" y="1303" on="1"/>
        <pt x="1012" y="1384" on="1"/>
        <pt x="1580" y="1384" on="1"/>
        <pt x="1565" y="1300" on="1"/>
        <pt x="1412" y="1217" on="1"/>
        <pt x="1412" y="529" on="1"/>
        <pt x="1412" y="244" on="0"/>
        <pt x="1081" y="-35" on="0"/>
        <pt x="772" y="-35" on="1"/>
        <pt x="488" y="-35" on="0"/>
        <pt x="210" y="217" on="0"/>
        <pt x="210" y="469" on="1"/>
        <pt x="210" y="1221" on="1"/>
        <pt x="39" y="1305" on="1"/>
        <pt x="57" y="1384" on="1"/>
        <pt x="784" y="1384" on="1"/>
        <pt x="762" y="1283" on="1"/>
        <pt x="570" y="1210" on="1"/>
        <pt x="570" y="536" on="1"/>
        <pt x="570" y="425" on="0"/>
        <pt x="647" y="255" on="0"/>
        <pt x="804" y="159" on="0"/>
      </contour>
    </TTGlyph>
    <TTGlyph name="Uogonek" xMin="30" yMin="-504" xMax="1580" yMax="1384">
      <contour>
        <pt x="919" y="159" on="1"/>
        <pt x="1068" y="159" on="0"/>
        <pt x="1192" y="318" on="0"/>
        <pt x="1192" y="477" on="1"/>
        <pt x="1192" y="1221" on="1"/>
        <pt x="997" y="1304" on="1"/>
        <pt x="1014" y="1384" on="1"/>
        <pt x="1580" y="1384" on="1"/>
        <pt x="1565" y="1301" on="1"/>
        <pt x="1412" y="1217" on="1"/>
        <pt x="1412" y="529" on="1"/>
        <pt x="1412" y="363" on="0"/>
        <pt x="1306" y="142" on="0"/>
        <pt x="1184" y="60" on="1"/>
        <pt x="1067" y="-18" on="0"/>
        <pt x="923" y="-160" on="0"/>
        <pt x="923" y="-226" on="1"/>
        <pt x="923" y="-263" on="0"/>
        <pt x="958" y="-333" on="0"/>
        <pt x="988" y="-347" on="1"/>
        <pt x="1006" y="-355" on="0"/>
        <pt x="1022" y="-355" on="1"/>
        <pt x="1053" y="-355" on="0"/>
        <pt x="1160" y="-325" on="0"/>
        <pt x="1198" y="-305" on="1"/>
        <pt x="1227" y="-353" on="1"/>
        <pt x="1165" y="-426" on="0"/>
        <pt x="1005" y="-504" on="0"/>
        <pt x="917" y="-504" on="1"/>
        <pt x="848" y="-504" on="0"/>
        <pt x="728" y="-456" on="0"/>
        <pt x="654" y="-354" on="0"/>
        <pt x="654" y="-277" on="1"/>
        <pt x="654" y="-187" on="0"/>
        <pt x="737" y="-109" on="1"/>
        <pt x="783" y="-66" on="0"/>
        <pt x="843" y="-32" on="1"/>
        <pt x="810" y="-35" on="0"/>
        <pt x="772" y="-35" on="1"/>
        <pt x="487" y="-35" on="0"/>
        <pt x="201" y="218" on="0"/>
        <pt x="201" y="469" on="1"/>
        <pt x="201" y="1221" on="1"/>
        <pt x="30" y="1304" on="1"/>
        <pt x="47" y="1384" on="1"/>
        <pt x="782" y="1384" on="1"/>
        <pt x="763" y="1283" on="1"/>
        <pt x="570" y="1210" on="1"/>
        <pt x="570" y="536" on="1"/>
        <pt x="570" y="425" on="0"/>
        <pt x="647" y="255" on="0"/>
        <pt x="804" y="159" on="0"/>
      </contour>
    </TTGlyph>
    <TTGlyph name="Uring" xMin="39" yMin="-35" xMax="1580" yMax="1863">
      <contour>
        <pt x="634" y="1654" on="1"/>
        <pt x="634" y="1713" on="0"/>
        <pt x="687" y="1809" on="0"/>
        <pt x="785" y="1863" on="0"/>
        <pt x="849" y="1863" on="1"/>
        <pt x="902" y="1863" on="0"/>
        <pt x="995" y="1815" on="0"/>
        <pt x="1052" y="1728" on="0"/>
        <pt x="1052" y="1672" on="1"/>
        <pt x="1052" y="1612" on="0"/>
        <pt x="998" y="1517" on="0"/>
        <pt x="901" y="1464" on="0"/>
        <pt x="840" y="1464" on="1"/>
        <pt x="784" y="1464" on="0"/>
        <pt x="690" y="1511" on="0"/>
        <pt x="634" y="1598" on="0"/>
      </contour>
      <contour>
        <pt x="910" y="1656" on="1"/>
        <pt x="910" y="1691" on="0"/>
        <pt x="870" y="1739" on="0"/>
        <pt x="835" y="1739" on="1"/>
        <pt x="808" y="1739" on="0"/>
        <pt x="774" y="1699" on="0"/>
        <pt x="774" y="1671" on="1"/>
        <pt x="774" y="1638" on="0"/>
        <pt x="813" y="1591" on="0"/>
        <pt x="849" y="1591" on="1"/>
        <pt x="877" y="1591" on="0"/>
        <pt x="910" y="1628" on="0"/>
      </contour>
      <contour>
        <pt x="919" y="159" on="1"/>
        <pt x="980" y="159" on="0"/>
        <pt x="1083" y="190" on="0"/>
        <pt x="1116" y="223" on="1"/>
        <pt x="1192" y="300" on="0"/>
        <pt x="1192" y="477" on="1"/>
        <pt x="1192" y="1221" on="1"/>
        <pt x="995" y="1303" on="1"/>
        <pt x="1012" y="1384" on="1"/>
        <pt x="1580" y="1384" on="1"/>
        <pt x="1565" y="1300" on="1"/>
        <pt x="1412" y="1217" on="1"/>
        <pt x="1412" y="529" on="1"/>
        <pt x="1412" y="244" on="0"/>
        <pt x="1081" y="-35" on="0"/>
        <pt x="772" y="-35" on="1"/>
        <pt x="488" y="-35" on="0"/>
        <pt x="210" y="217" on="0"/>
        <pt x="210" y="469" on="1"/>
        <pt x="210" y="1221" on="1"/>
        <pt x="39" y="1305" on="1"/>
        <pt x="57" y="1384" on="1"/>
        <pt x="784" y="1384" on="1"/>
        <pt x="762" y="1283" on="1"/>
        <pt x="570" y="1210" on="1"/>
        <pt x="570" y="536" on="1"/>
        <pt x="570" y="425" on="0"/>
        <pt x="647" y="255" on="0"/>
        <pt x="804" y="159" on="0"/>
      </contour>
    </TTGlyph>
    <TTGlyph name="V" xMin="-42" yMin="-35" xMax="1494" yMax="1384">
      <contour>
        <pt x="955" y="1293" on="1"/>
        <pt x="973" y="1384" on="1"/>
        <pt x="1494" y="1384" on="1"/>
        <pt x="1476" y="1293" on="1"/>
        <pt x="1337" y="1221" on="1"/>
        <pt x="936" y="0" on="1"/>
        <pt x="552" y="-35" on="1"/>
        <pt x="105" y="1221" on="1"/>
        <pt x="-42" y="1293" on="1"/>
        <pt x="-22" y="1384" on="1"/>
        <pt x="687" y="1384" on="1"/>
        <pt x="672" y="1295" on="1"/>
        <pt x="513" y="1221" on="1"/>
        <pt x="848" y="202" on="1"/>
        <pt x="1127" y="1221" on="1"/>
      </contour>
    </TTGlyph>
    <TTGlyph name="W" xMin="-17" yMin="-35" xMax="2338" yMax="1384">
      <contour>
        <pt x="2320" y="1290" on="1"/>
        <pt x="2184" y="1221" on="1"/>
        <pt x="1813" y="0" on="1"/>
        <pt x="1425" y="-35" on="1"/>
        <pt x="1156" y="806" on="1"/>
        <pt x="881" y="0" on="1"/>
        <pt x="491" y="-35" on="1"/>
        <pt x="133" y="1221" on="1"/>
        <pt x="-17" y="1291" on="1"/>
        <pt x="0" y="1384" on="1"/>
        <pt x="696" y="1384" on="1"/>
        <pt x="681" y="1294" on="1"/>
        <pt x="529" y="1221" on="1"/>
        <pt x="788" y="208" on="1"/>
        <pt x="1069" y="1077" on="1"/>
        <pt x="1023" y="1221" on="1"/>
        <pt x="873" y="1296" on="1"/>
        <pt x="891" y="1384" on="1"/>
        <pt x="1611" y="1384" on="1"/>
        <pt x="1594" y="1291" on="1"/>
        <pt x="1409" y="1221" on="1"/>
        <pt x="1722" y="209" on="1"/>
        <pt x="1971" y="1221" on="1"/>
        <pt x="1775" y="1291" on="1"/>
        <pt x="1796" y="1384" on="1"/>
        <pt x="2338" y="1384" on="1"/>
      </contour>
    </TTGlyph>
    <TTGlyph name="X" xMin="9" yMin="0" xMax="1481" yMax="1384">
      <contour>
        <pt x="1466" y="0" on="1"/>
        <pt x="734" y="0" on="1"/>
        <pt x="749" y="84" on="1"/>
        <pt x="882" y="161" on="1"/>
        <pt x="645" y="524" on="1"/>
        <pt x="421" y="160" on="1"/>
        <pt x="563" y="80" on="1"/>
        <pt x="544" y="0" on="1"/>
        <pt x="9" y="0" on="1"/>
        <pt x="25" y="92" on="1"/>
        <pt x="182" y="161" on="1"/>
        <pt x="550" y="668" on="1"/>
        <pt x="176" y="1221" on="1"/>
        <pt x="15" y="1287" on="1"/>
        <pt x="35" y="1384" on="1"/>
        <pt x="759" y="1384" on="1"/>
        <pt x="745" y="1299" on="1"/>
        <pt x="611" y="1222" on="1"/>
        <pt x="849" y="854" on="1"/>
        <pt x="1067" y="1222" on="1"/>
        <pt x="927" y="1306" on="1"/>
        <pt x="943" y="1384" on="1"/>
        <pt x="1480" y="1384" on="1"/>
        <pt x="1461" y="1288" on="1"/>
        <pt x="1303" y="1221" on="1"/>
        <pt x="944" y="710" on="1"/>
        <pt x="1322" y="157" on="1"/>
        <pt x="1481" y="86" on="1"/>
      </contour>
    </TTGlyph>
    <TTGlyph name="Y" xMin="-41" yMin="0" xMax="1374" yMax="1384">
      <contour>
        <pt x="494" y="558" on="1"/>
        <pt x="102" y="1221" on="1"/>
        <pt x="-41" y="1291" on="1"/>
        <pt x="-23" y="1384" on="1"/>
        <pt x="653" y="1384" on="1"/>
        <pt x="636" y="1297" on="1"/>
        <pt x="490" y="1221" on="1"/>
        <pt x="780" y="704" on="1"/>
        <pt x="874" y="972" on="0"/>
        <pt x="1002" y="1221" on="1"/>
        <pt x="826" y="1304" on="1"/>
        <pt x="844" y="1384" on="1"/>
        <pt x="1374" y="1384" on="1"/>
        <pt x="1359" y="1290" on="1"/>
        <pt x="1214" y="1221" on="1"/>
        <pt x="854" y="560" on="1"/>
        <pt x="854" y="159" on="1"/>
        <pt x="1059" y="81" on="1"/>
        <pt x="1042" y="0" on="1"/>
        <pt x="302" y="0" on="1"/>
        <pt x="318" y="82" on="1"/>
        <pt x="494" y="159" on="1"/>
      </contour>
    </TTGlyph>
    <TTGlyph name="Yacute" xMin="-41" yMin="0" xMax="1374" yMax="1811">
      <contour>
        <pt x="824" y="1811" on="1"/>
        <pt x="996" y="1811" on="1"/>
        <pt x="1032" y="1637" on="1"/>
        <pt x="512" y="1486" on="1"/>
        <pt x="485" y="1596" on="1"/>
      </contour>
      <contour>
        <pt x="494" y="558" on="1"/>
        <pt x="102" y="1221" on="1"/>
        <pt x="-41" y="1291" on="1"/>
        <pt x="-23" y="1384" on="1"/>
        <pt x="653" y="1384" on="1"/>
        <pt x="636" y="1297" on="1"/>
        <pt x="490" y="1221" on="1"/>
        <pt x="780" y="704" on="1"/>
        <pt x="874" y="972" on="0"/>
        <pt x="1002" y="1221" on="1"/>
        <pt x="826" y="1304" on="1"/>
        <pt x="844" y="1384" on="1"/>
        <pt x="1374" y="1384" on="1"/>
        <pt x="1359" y="1290" on="1"/>
        <pt x="1214" y="1221" on="1"/>
        <pt x="854" y="560" on="1"/>
        <pt x="854" y="159" on="1"/>
        <pt x="1059" y="81" on="1"/>
        <pt x="1042" y="0" on="1"/>
        <pt x="302" y="0" on="1"/>
        <pt x="318" y="82" on="1"/>
        <pt x="494" y="159" on="1"/>
      </contour>
    </TTGlyph>
    <TTGlyph name="Ydieresis" xMin="-41" yMin="0" xMax="1374" yMax="1831">
      <contour>
        <pt x="434" y="1831" on="1"/>
        <pt x="455" y="1831" on="0"/>
        <pt x="538" y="1765" on="0"/>
        <pt x="604" y="1682" on="0"/>
        <pt x="604" y="1658" on="1"/>
        <pt x="604" y="1635" on="0"/>
        <pt x="539" y="1551" on="0"/>
        <pt x="454" y="1485" on="0"/>
        <pt x="428" y="1485" on="1"/>
        <pt x="406" y="1485" on="0"/>
        <pt x="324" y="1552" on="0"/>
        <pt x="258" y="1637" on="0"/>
        <pt x="258" y="1660" on="1"/>
        <pt x="258" y="1684" on="0"/>
        <pt x="324" y="1766" on="0"/>
        <pt x="408" y="1831" on="0"/>
      </contour>
      <contour>
        <pt x="953" y="1831" on="1"/>
        <pt x="974" y="1831" on="0"/>
        <pt x="1057" y="1765" on="0"/>
        <pt x="1123" y="1682" on="0"/>
        <pt x="1123" y="1658" on="1"/>
        <pt x="1123" y="1635" on="0"/>
        <pt x="1058" y="1551" on="0"/>
        <pt x="973" y="1485" on="0"/>
        <pt x="947" y="1485" on="1"/>
        <pt x="925" y="1485" on="0"/>
        <pt x="843" y="1552" on="0"/>
        <pt x="777" y="1637" on="0"/>
        <pt x="777" y="1660" on="1"/>
        <pt x="777" y="1684" on="0"/>
        <pt x="843" y="1766" on="0"/>
        <pt x="927" y="1831" on="0"/>
      </contour>
      <contour>
        <pt x="494" y="558" on="1"/>
        <pt x="102" y="1221" on="1"/>
        <pt x="-41" y="1291" on="1"/>
        <pt x="-23" y="1384" on="1"/>
        <pt x="653" y="1384" on="1"/>
        <pt x="636" y="1297" on="1"/>
        <pt x="490" y="1221" on="1"/>
        <pt x="780" y="704" on="1"/>
        <pt x="874" y="972" on="0"/>
        <pt x="1002" y="1221" on="1"/>
        <pt x="826" y="1304" on="1"/>
        <pt x="844" y="1384" on="1"/>
        <pt x="1374" y="1384" on="1"/>
        <pt x="1359" y="1290" on="1"/>
        <pt x="1214" y="1221" on="1"/>
        <pt x="854" y="560" on="1"/>
        <pt x="854" y="159" on="1"/>
        <pt x="1059" y="81" on="1"/>
        <pt x="1042" y="0" on="1"/>
        <pt x="302" y="0" on="1"/>
        <pt x="318" y="82" on="1"/>
        <pt x="494" y="159" on="1"/>
      </contour>
    </TTGlyph>
    <TTGlyph name="Z" xMin="45" yMin="0" xMax="1265" yMax="1394">
      <contour>
        <pt x="1265" y="367" on="1"/>
        <pt x="1185" y="0" on="1"/>
        <pt x="97" y="0" on="1"/>
        <pt x="45" y="150" on="1"/>
        <pt x="844" y="1277" on="1"/>
        <pt x="338" y="1232" on="1"/>
        <pt x="234" y="1017" on="1"/>
        <pt x="89" y="1035" on="1"/>
        <pt x="128" y="1394" on="1"/>
        <pt x="378" y="1384" on="1"/>
        <pt x="1213" y="1384" on="1"/>
        <pt x="1252" y="1262" on="1"/>
        <pt x="446" y="116" on="1"/>
        <pt x="1008" y="172" on="1"/>
        <pt x="1134" y="385" on="1"/>
      </contour>
    </TTGlyph>
    <TTGlyph name="Zacute" xMin="45" yMin="0" xMax="1265" yMax="1811">
      <contour>
        <pt x="815" y="1811" on="1"/>
        <pt x="987" y="1811" on="1"/>
        <pt x="1023" y="1637" on="1"/>
        <pt x="503" y="1486" on="1"/>
        <pt x="476" y="1596" on="1"/>
      </contour>
      <contour>
        <pt x="1265" y="367" on="1"/>
        <pt x="1185" y="0" on="1"/>
        <pt x="97" y="0" on="1"/>
        <pt x="45" y="150" on="1"/>
        <pt x="844" y="1277" on="1"/>
        <pt x="338" y="1232" on="1"/>
        <pt x="234" y="1017" on="1"/>
        <pt x="89" y="1035" on="1"/>
        <pt x="128" y="1394" on="1"/>
        <pt x="378" y="1384" on="1"/>
        <pt x="1213" y="1384" on="1"/>
        <pt x="1252" y="1262" on="1"/>
        <pt x="446" y="116" on="1"/>
        <pt x="1008" y="172" on="1"/>
        <pt x="1134" y="385" on="1"/>
      </contour>
    </TTGlyph>
    <TTGlyph name="Zcaron" xMin="45" yMin="0" xMax="1265" yMax="1827">
      <contour>
        <pt x="419" y="1827" on="1"/>
        <pt x="681" y="1702" on="1"/>
        <pt x="944" y="1827" on="1"/>
        <pt x="1038" y="1748" on="1"/>
        <pt x="754" y="1515" on="1"/>
        <pt x="609" y="1515" on="1"/>
        <pt x="325" y="1748" on="1"/>
      </contour>
      <contour>
        <pt x="1265" y="367" on="1"/>
        <pt x="1185" y="0" on="1"/>
        <pt x="97" y="0" on="1"/>
        <pt x="45" y="150" on="1"/>
        <pt x="844" y="1277" on="1"/>
        <pt x="338" y="1232" on="1"/>
        <pt x="234" y="1017" on="1"/>
        <pt x="89" y="1035" on="1"/>
        <pt x="128" y="1394" on="1"/>
        <pt x="378" y="1384" on="1"/>
        <pt x="1213" y="1384" on="1"/>
        <pt x="1252" y="1262" on="1"/>
        <pt x="446" y="116" on="1"/>
        <pt x="1008" y="172" on="1"/>
        <pt x="1134" y="385" on="1"/>
      </contour>
    </TTGlyph>
    <TTGlyph name="Zdotaccent" xMin="45" yMin="0" xMax="1265" yMax="1831">
      <contour>
        <pt x="504" y="1660" on="1"/>
        <pt x="504" y="1684" on="0"/>
        <pt x="570" y="1766" on="0"/>
        <pt x="654" y="1831" on="0"/>
        <pt x="680" y="1831" on="1"/>
        <pt x="701" y="1831" on="0"/>
        <pt x="784" y="1765" on="0"/>
        <pt x="850" y="1682" on="0"/>
        <pt x="850" y="1658" on="1"/>
        <pt x="850" y="1635" on="0"/>
        <pt x="785" y="1551" on="0"/>
        <pt x="700" y="1485" on="0"/>
        <pt x="674" y="1485" on="1"/>
        <pt x="652" y="1485" on="0"/>
        <pt x="570" y="1552" on="0"/>
        <pt x="504" y="1637" on="0"/>
      </contour>
      <contour>
        <pt x="1265" y="367" on="1"/>
        <pt x="1185" y="0" on="1"/>
        <pt x="97" y="0" on="1"/>
        <pt x="45" y="150" on="1"/>
        <pt x="844" y="1277" on="1"/>
        <pt x="338" y="1232" on="1"/>
        <pt x="234" y="1017" on="1"/>
        <pt x="89" y="1035" on="1"/>
        <pt x="128" y="1394" on="1"/>
        <pt x="378" y="1384" on="1"/>
        <pt x="1213" y="1384" on="1"/>
        <pt x="1252" y="1262" on="1"/>
        <pt x="446" y="116" on="1"/>
        <pt x="1008" y="172" on="1"/>
        <pt x="1134" y="385" on="1"/>
      </contour>
    </TTGlyph>
    <TTGlyph name="a" xMin="50" yMin="-25" xMax="1155" yMax="975">
      <contour>
        <pt x="203" y="509" on="1"/>
        <pt x="288" y="547" on="0"/>
        <pt x="426" y="547" on="1"/>
        <pt x="478" y="547" on="0"/>
        <pt x="593" y="539" on="0"/>
        <pt x="637" y="531" on="1"/>
        <pt x="637" y="585" on="1"/>
        <pt x="637" y="800" on="0"/>
        <pt x="573" y="851" on="1"/>
        <pt x="558" y="863" on="0"/>
        <pt x="509" y="875" on="0"/>
        <pt x="482" y="875" on="1"/>
        <pt x="459" y="875" on="0"/>
        <pt x="438" y="868" on="1"/>
        <pt x="411" y="702" on="1"/>
        <pt x="384" y="671" on="0"/>
        <pt x="308" y="621" on="0"/>
        <pt x="289" y="621" on="1"/>
        <pt x="266" y="621" on="0"/>
        <pt x="165" y="697" on="0"/>
        <pt x="83" y="793" on="0"/>
        <pt x="83" y="825" on="1"/>
        <pt x="83" y="847" on="0"/>
        <pt x="193" y="906" on="0"/>
        <pt x="247" y="923" on="1"/>
        <pt x="343" y="953" on="0"/>
        <pt x="571" y="975" on="0"/>
        <pt x="658" y="975" on="1"/>
        <pt x="828" y="975" on="0"/>
        <pt x="981" y="813" on="0"/>
        <pt x="981" y="674" on="1"/>
        <pt x="981" y="202" on="1"/>
        <pt x="1003" y="163" on="0"/>
        <pt x="1088" y="111" on="0"/>
        <pt x="1155" y="93" on="1"/>
        <pt x="1140" y="35" on="1"/>
        <pt x="1077" y="4" on="0"/>
        <pt x="929" y="-25" on="0"/>
        <pt x="834" y="-25" on="1"/>
        <pt x="799" y="28" on="0"/>
        <pt x="719" y="106" on="0"/>
        <pt x="664" y="132" on="1"/>
        <pt x="622" y="79" on="0"/>
        <pt x="545" y="14" on="0"/>
        <pt x="433" y="-25" on="0"/>
        <pt x="351" y="-25" on="1"/>
        <pt x="242" y="-25" on="0"/>
        <pt x="108" y="55" on="0"/>
        <pt x="50" y="176" on="0"/>
        <pt x="50" y="241" on="1"/>
        <pt x="50" y="441" on="0"/>
      </contour>
      <contour>
        <pt x="453" y="135" on="1"/>
        <pt x="490" y="135" on="0"/>
        <pt x="602" y="154" on="0"/>
        <pt x="637" y="165" on="1"/>
        <pt x="637" y="463" on="1"/>
        <pt x="535" y="441" on="0"/>
        <pt x="405" y="394" on="0"/>
        <pt x="397" y="380" on="1"/>
        <pt x="385" y="360" on="0"/>
        <pt x="385" y="317" on="1"/>
        <pt x="385" y="275" on="0"/>
        <pt x="409" y="176" on="0"/>
        <pt x="425" y="150" on="1"/>
        <pt x="434" y="135" on="0"/>
      </contour>
    </TTGlyph>
    <TTGlyph name="aacute" xMin="51" yMin="-25" xMax="1156" yMax="1472">
      <contour>
        <pt x="204" y="509" on="1"/>
        <pt x="289" y="547" on="0"/>
        <pt x="427" y="547" on="1"/>
        <pt x="479" y="547" on="0"/>
        <pt x="594" y="539" on="0"/>
        <pt x="638" y="531" on="1"/>
        <pt x="638" y="585" on="1"/>
        <pt x="638" y="800" on="0"/>
        <pt x="574" y="851" on="1"/>
        <pt x="559" y="863" on="0"/>
        <pt x="510" y="875" on="0"/>
        <pt x="483" y="875" on="1"/>
        <pt x="460" y="875" on="0"/>
        <pt x="439" y="868" on="1"/>
        <pt x="412" y="702" on="1"/>
        <pt x="385" y="671" on="0"/>
        <pt x="309" y="621" on="0"/>
        <pt x="290" y="621" on="1"/>
        <pt x="267" y="621" on="0"/>
        <pt x="166" y="697" on="0"/>
        <pt x="84" y="793" on="0"/>
        <pt x="84" y="825" on="1"/>
        <pt x="84" y="847" on="0"/>
        <pt x="194" y="906" on="0"/>
        <pt x="248" y="923" on="1"/>
        <pt x="344" y="953" on="0"/>
        <pt x="572" y="975" on="0"/>
        <pt x="659" y="975" on="1"/>
        <pt x="829" y="975" on="0"/>
        <pt x="982" y="813" on="0"/>
        <pt x="982" y="674" on="1"/>
        <pt x="982" y="202" on="1"/>
        <pt x="1004" y="163" on="0"/>
        <pt x="1089" y="111" on="0"/>
        <pt x="1156" y="93" on="1"/>
        <pt x="1141" y="35" on="1"/>
        <pt x="1078" y="4" on="0"/>
        <pt x="930" y="-25" on="0"/>
        <pt x="835" y="-25" on="1"/>
        <pt x="800" y="28" on="0"/>
        <pt x="720" y="106" on="0"/>
        <pt x="665" y="132" on="1"/>
        <pt x="623" y="79" on="0"/>
        <pt x="546" y="14" on="0"/>
        <pt x="434" y="-25" on="0"/>
        <pt x="352" y="-25" on="1"/>
        <pt x="243" y="-25" on="0"/>
        <pt x="109" y="55" on="0"/>
        <pt x="51" y="176" on="0"/>
        <pt x="51" y="241" on="1"/>
        <pt x="51" y="441" on="0"/>
      </contour>
      <contour>
        <pt x="454" y="135" on="1"/>
        <pt x="491" y="135" on="0"/>
        <pt x="603" y="154" on="0"/>
        <pt x="638" y="165" on="1"/>
        <pt x="638" y="463" on="1"/>
        <pt x="536" y="441" on="0"/>
        <pt x="406" y="394" on="0"/>
        <pt x="398" y="380" on="1"/>
        <pt x="386" y="360" on="0"/>
        <pt x="386" y="317" on="1"/>
        <pt x="386" y="275" on="0"/>
        <pt x="410" y="176" on="0"/>
        <pt x="426" y="150" on="1"/>
        <pt x="435" y="135" on="0"/>
      </contour>
      <contour>
        <pt x="795" y="1472" on="1"/>
        <pt x="834" y="1277" on="1"/>
        <pt x="381" y="1042" on="1"/>
        <pt x="352" y="1203" on="1"/>
        <pt x="632" y="1472" on="1"/>
      </contour>
    </TTGlyph>
    <TTGlyph name="aadeva" xMin="25" yMin="-95" xMax="2130" yMax="1210">
      <contour>
        <pt x="1926" y="998" on="1"/>
        <pt x="1926" y="-92" on="1"/>
        <pt x="1629" y="-42" on="1"/>
        <pt x="1629" y="998" on="1"/>
        <pt x="1436" y="998" on="1"/>
        <pt x="1436" y="-95" on="1"/>
        <pt x="1139" y="-42" on="1"/>
        <pt x="1139" y="434" on="1"/>
        <pt x="1113" y="424" on="0"/>
        <pt x="1067" y="417" on="0"/>
        <pt x="1035" y="417" on="1"/>
        <pt x="992" y="417" on="0"/>
        <pt x="933" y="435" on="1"/>
        <pt x="984" y="363" on="0"/>
        <pt x="984" y="275" on="1"/>
        <pt x="984" y="176" on="0"/>
        <pt x="884" y="38" on="0"/>
        <pt x="720" y="-30" on="0"/>
        <pt x="624" y="-30" on="1"/>
        <pt x="437" y="-30" on="0"/>
        <pt x="131" y="228" on="0"/>
        <pt x="25" y="477" on="1"/>
        <pt x="141" y="540" on="1"/>
        <pt x="236" y="374" on="0"/>
        <pt x="425" y="218" on="0"/>
        <pt x="532" y="218" on="1"/>
        <pt x="616" y="218" on="0"/>
        <pt x="722" y="308" on="0"/>
        <pt x="722" y="381" on="1"/>
        <pt x="722" y="460" on="0"/>
        <pt x="674" y="521" on="1"/>
        <pt x="597" y="485" on="0"/>
        <pt x="483" y="460" on="1"/>
        <pt x="349" y="703" on="1"/>
        <pt x="462" y="733" on="0"/>
        <pt x="635" y="819" on="0"/>
        <pt x="731" y="916" on="0"/>
        <pt x="732" y="964" on="1"/>
        <pt x="732" y="993" on="0"/>
        <pt x="725" y="1001" on="1"/>
        <pt x="716" y="1013" on="0"/>
        <pt x="668" y="1013" on="1"/>
        <pt x="603" y="1013" on="0"/>
        <pt x="433" y="906" on="0"/>
        <pt x="359" y="819" on="1"/>
        <pt x="158" y="1024" on="1"/>
        <pt x="236" y="1112" on="0"/>
        <pt x="437" y="1210" on="0"/>
        <pt x="538" y="1210" on="1"/>
        <pt x="632" y="1210" on="0"/>
        <pt x="796" y="1103" on="0"/>
        <pt x="894" y="937" on="0"/>
        <pt x="894" y="854" on="1"/>
        <pt x="894" y="764" on="0"/>
        <pt x="831" y="627" on="0"/>
        <pt x="765" y="576" on="1"/>
        <pt x="818" y="559" on="0"/>
        <pt x="870" y="559" on="1"/>
        <pt x="939" y="559" on="0"/>
        <pt x="1081" y="636" on="0"/>
        <pt x="1139" y="705" on="1"/>
        <pt x="1139" y="998" on="1"/>
        <pt x="991" y="998" on="1"/>
        <pt x="941" y="1187" on="1"/>
        <pt x="2084" y="1187" on="1"/>
        <pt x="2130" y="998" on="1"/>
      </contour>
    </TTGlyph>
    <TTGlyph name="abbreviationsigndeva" xMin="117" yMin="116" xMax="875" yMax="917">
      <contour>
        <pt x="117" y="516" on="1"/>
        <pt x="117" y="629" on="0"/>
        <pt x="212" y="812" on="0"/>
        <pt x="386" y="917" on="0"/>
        <pt x="499" y="917" on="1"/>
        <pt x="682" y="917" on="0"/>
        <pt x="875" y="713" on="0"/>
        <pt x="875" y="516" on="1"/>
        <pt x="875" y="403" on="0"/>
        <pt x="782" y="221" on="0"/>
        <pt x="611" y="116" on="0"/>
        <pt x="499" y="116" on="1"/>
        <pt x="319" y="116" on="0"/>
        <pt x="117" y="322" on="0"/>
      </contour>
      <contour>
        <pt x="602" y="362" on="1"/>
        <pt x="615" y="370" on="0"/>
        <pt x="641" y="438" on="0"/>
        <pt x="641" y="494" on="1"/>
        <pt x="641" y="589" on="0"/>
        <pt x="553" y="689" on="0"/>
        <pt x="471" y="689" on="1"/>
        <pt x="444" y="689" on="0"/>
        <pt x="399" y="679" on="0"/>
        <pt x="392" y="672" on="1"/>
        <pt x="352" y="632" on="0"/>
        <pt x="352" y="536" on="1"/>
        <pt x="352" y="443" on="0"/>
        <pt x="444" y="344" on="0"/>
        <pt x="528" y="344" on="1"/>
        <pt x="584" y="344" on="0"/>
      </contour>
    </TTGlyph>
    <TTGlyph name="abreve" xMin="51" yMin="-25" xMax="1156" yMax="1381">
      <contour>
        <pt x="204" y="509" on="1"/>
        <pt x="289" y="547" on="0"/>
        <pt x="427" y="547" on="1"/>
        <pt x="479" y="547" on="0"/>
        <pt x="594" y="539" on="0"/>
        <pt x="638" y="531" on="1"/>
        <pt x="638" y="585" on="1"/>
        <pt x="638" y="800" on="0"/>
        <pt x="574" y="851" on="1"/>
        <pt x="559" y="863" on="0"/>
        <pt x="510" y="875" on="0"/>
        <pt x="483" y="875" on="1"/>
        <pt x="460" y="875" on="0"/>
        <pt x="439" y="868" on="1"/>
        <pt x="412" y="702" on="1"/>
        <pt x="385" y="671" on="0"/>
        <pt x="309" y="621" on="0"/>
        <pt x="290" y="621" on="1"/>
        <pt x="267" y="621" on="0"/>
        <pt x="166" y="697" on="0"/>
        <pt x="84" y="793" on="0"/>
        <pt x="84" y="825" on="1"/>
        <pt x="84" y="847" on="0"/>
        <pt x="194" y="906" on="0"/>
        <pt x="248" y="923" on="1"/>
        <pt x="344" y="953" on="0"/>
        <pt x="572" y="975" on="0"/>
        <pt x="659" y="975" on="1"/>
        <pt x="829" y="975" on="0"/>
        <pt x="982" y="813" on="0"/>
        <pt x="982" y="674" on="1"/>
        <pt x="982" y="202" on="1"/>
        <pt x="1004" y="163" on="0"/>
        <pt x="1089" y="111" on="0"/>
        <pt x="1156" y="93" on="1"/>
        <pt x="1141" y="35" on="1"/>
        <pt x="1078" y="4" on="0"/>
        <pt x="930" y="-25" on="0"/>
        <pt x="835" y="-25" on="1"/>
        <pt x="800" y="28" on="0"/>
        <pt x="720" y="106" on="0"/>
        <pt x="665" y="132" on="1"/>
        <pt x="623" y="79" on="0"/>
        <pt x="546" y="14" on="0"/>
        <pt x="434" y="-25" on="0"/>
        <pt x="352" y="-25" on="1"/>
        <pt x="243" y="-25" on="0"/>
        <pt x="109" y="55" on="0"/>
        <pt x="51" y="176" on="0"/>
        <pt x="51" y="241" on="1"/>
        <pt x="51" y="441" on="0"/>
      </contour>
      <contour>
        <pt x="454" y="135" on="1"/>
        <pt x="491" y="135" on="0"/>
        <pt x="603" y="154" on="0"/>
        <pt x="638" y="165" on="1"/>
        <pt x="638" y="463" on="1"/>
        <pt x="536" y="441" on="0"/>
        <pt x="406" y="394" on="0"/>
        <pt x="398" y="380" on="1"/>
        <pt x="386" y="360" on="0"/>
        <pt x="386" y="317" on="1"/>
        <pt x="386" y="275" on="0"/>
        <pt x="410" y="176" on="0"/>
        <pt x="426" y="150" on="1"/>
        <pt x="435" y="135" on="0"/>
      </contour>
      <contour>
        <pt x="206" y="1307" on="1"/>
        <pt x="206" y="1343" on="0"/>
        <pt x="218" y="1381" on="1"/>
        <pt x="381" y="1380" on="1"/>
        <pt x="400" y="1294" on="0"/>
        <pt x="483" y="1219" on="0"/>
        <pt x="545" y="1219" on="1"/>
        <pt x="605" y="1219" on="0"/>
        <pt x="683" y="1294" on="0"/>
        <pt x="701" y="1381" on="1"/>
        <pt x="864" y="1381" on="1"/>
        <pt x="876" y="1341" on="0"/>
        <pt x="876" y="1308" on="1"/>
        <pt x="876" y="1241" on="0"/>
        <pt x="790" y="1123" on="0"/>
        <pt x="638" y="1051" on="0"/>
        <pt x="544" y="1051" on="1"/>
        <pt x="448" y="1051" on="0"/>
        <pt x="293" y="1122" on="0"/>
        <pt x="206" y="1240" on="0"/>
      </contour>
    </TTGlyph>
    <TTGlyph name="acircumflex" xMin="51" yMin="-25" xMax="1156" yMax="1413">
      <contour>
        <pt x="204" y="509" on="1"/>
        <pt x="289" y="547" on="0"/>
        <pt x="427" y="547" on="1"/>
        <pt x="479" y="547" on="0"/>
        <pt x="594" y="539" on="0"/>
        <pt x="638" y="531" on="1"/>
        <pt x="638" y="585" on="1"/>
        <pt x="638" y="800" on="0"/>
        <pt x="574" y="851" on="1"/>
        <pt x="559" y="863" on="0"/>
        <pt x="510" y="875" on="0"/>
        <pt x="483" y="875" on="1"/>
        <pt x="460" y="875" on="0"/>
        <pt x="439" y="868" on="1"/>
        <pt x="412" y="702" on="1"/>
        <pt x="385" y="671" on="0"/>
        <pt x="309" y="621" on="0"/>
        <pt x="290" y="621" on="1"/>
        <pt x="267" y="621" on="0"/>
        <pt x="166" y="697" on="0"/>
        <pt x="84" y="793" on="0"/>
        <pt x="84" y="825" on="1"/>
        <pt x="84" y="847" on="0"/>
        <pt x="194" y="906" on="0"/>
        <pt x="248" y="923" on="1"/>
        <pt x="344" y="953" on="0"/>
        <pt x="572" y="975" on="0"/>
        <pt x="659" y="975" on="1"/>
        <pt x="829" y="975" on="0"/>
        <pt x="982" y="813" on="0"/>
        <pt x="982" y="674" on="1"/>
        <pt x="982" y="202" on="1"/>
        <pt x="1004" y="163" on="0"/>
        <pt x="1089" y="111" on="0"/>
        <pt x="1156" y="93" on="1"/>
        <pt x="1141" y="35" on="1"/>
        <pt x="1078" y="4" on="0"/>
        <pt x="930" y="-25" on="0"/>
        <pt x="835" y="-25" on="1"/>
        <pt x="800" y="28" on="0"/>
        <pt x="720" y="106" on="0"/>
        <pt x="665" y="132" on="1"/>
        <pt x="623" y="79" on="0"/>
        <pt x="546" y="14" on="0"/>
        <pt x="434" y="-25" on="0"/>
        <pt x="352" y="-25" on="1"/>
        <pt x="243" y="-25" on="0"/>
        <pt x="109" y="55" on="0"/>
        <pt x="51" y="176" on="0"/>
        <pt x="51" y="241" on="1"/>
        <pt x="51" y="441" on="0"/>
      </contour>
      <contour>
        <pt x="454" y="135" on="1"/>
        <pt x="491" y="135" on="0"/>
        <pt x="603" y="154" on="0"/>
        <pt x="638" y="165" on="1"/>
        <pt x="638" y="463" on="1"/>
        <pt x="536" y="441" on="0"/>
        <pt x="406" y="394" on="0"/>
        <pt x="398" y="380" on="1"/>
        <pt x="386" y="360" on="0"/>
        <pt x="386" y="317" on="1"/>
        <pt x="386" y="275" on="0"/>
        <pt x="410" y="176" on="0"/>
        <pt x="426" y="150" on="1"/>
        <pt x="435" y="135" on="0"/>
      </contour>
      <contour>
        <pt x="158" y="1131" on="1"/>
        <pt x="445" y="1413" on="1"/>
        <pt x="639" y="1413" on="1"/>
        <pt x="927" y="1131" on="1"/>
        <pt x="782" y="1078" on="1"/>
        <pt x="542" y="1215" on="1"/>
        <pt x="303" y="1079" on="1"/>
      </contour>
    </TTGlyph>
    <TTGlyph name="acute" xMin="321" yMin="1042" xMax="803" yMax="1472">
      <contour>
        <pt x="764" y="1472" on="1"/>
        <pt x="803" y="1277" on="1"/>
        <pt x="350" y="1042" on="1"/>
        <pt x="321" y="1203" on="1"/>
        <pt x="601" y="1472" on="1"/>
      </contour>
    </TTGlyph>
    <TTGlyph name="acutedeva" xMin="-849" yMin="1256" xMax="-264" yMax="1793">
      <contour>
        <pt x="-462" y="1793" on="1"/>
        <pt x="-264" y="1637" on="1"/>
        <pt x="-677" y="1256" on="1"/>
        <pt x="-849" y="1405" on="1"/>
      </contour>
    </TTGlyph>
    <TTGlyph name="adeva" xMin="25" yMin="-95" xMax="1671" yMax="1210">
      <contour>
        <pt x="1436" y="998" on="1"/>
        <pt x="1436" y="-95" on="1"/>
        <pt x="1139" y="-42" on="1"/>
        <pt x="1139" y="434" on="1"/>
        <pt x="1113" y="424" on="0"/>
        <pt x="1067" y="417" on="0"/>
        <pt x="1035" y="417" on="1"/>
        <pt x="992" y="417" on="0"/>
        <pt x="933" y="435" on="1"/>
        <pt x="984" y="363" on="0"/>
        <pt x="984" y="275" on="1"/>
        <pt x="984" y="176" on="0"/>
        <pt x="884" y="38" on="0"/>
        <pt x="720" y="-30" on="0"/>
        <pt x="624" y="-30" on="1"/>
        <pt x="437" y="-30" on="0"/>
        <pt x="131" y="228" on="0"/>
        <pt x="25" y="477" on="1"/>
        <pt x="141" y="540" on="1"/>
        <pt x="236" y="374" on="0"/>
        <pt x="425" y="218" on="0"/>
        <pt x="532" y="218" on="1"/>
        <pt x="616" y="218" on="0"/>
        <pt x="722" y="308" on="0"/>
        <pt x="722" y="381" on="1"/>
        <pt x="722" y="460" on="0"/>
        <pt x="674" y="521" on="1"/>
        <pt x="597" y="485" on="0"/>
        <pt x="483" y="460" on="1"/>
        <pt x="349" y="703" on="1"/>
        <pt x="462" y="733" on="0"/>
        <pt x="635" y="819" on="0"/>
        <pt x="731" y="916" on="0"/>
        <pt x="732" y="964" on="1"/>
        <pt x="732" y="993" on="0"/>
        <pt x="725" y="1001" on="1"/>
        <pt x="716" y="1013" on="0"/>
        <pt x="668" y="1013" on="1"/>
        <pt x="603" y="1013" on="0"/>
        <pt x="433" y="906" on="0"/>
        <pt x="359" y="819" on="1"/>
        <pt x="158" y="1024" on="1"/>
        <pt x="236" y="1112" on="0"/>
        <pt x="437" y="1210" on="0"/>
        <pt x="538" y="1210" on="1"/>
        <pt x="632" y="1210" on="0"/>
        <pt x="796" y="1103" on="0"/>
        <pt x="894" y="937" on="0"/>
        <pt x="894" y="854" on="1"/>
        <pt x="894" y="764" on="0"/>
        <pt x="831" y="627" on="0"/>
        <pt x="765" y="576" on="1"/>
        <pt x="818" y="559" on="0"/>
        <pt x="870" y="559" on="1"/>
        <pt x="939" y="559" on="0"/>
        <pt x="1081" y="636" on="0"/>
        <pt x="1139" y="705" on="1"/>
        <pt x="1139" y="998" on="1"/>
        <pt x="991" y="998" on="1"/>
        <pt x="941" y="1187" on="1"/>
        <pt x="1623" y="1187" on="1"/>
        <pt x="1671" y="998" on="1"/>
      </contour>
    </TTGlyph>
    <TTGlyph name="adieresis" xMin="51" yMin="-25" xMax="1156" yMax="1483">
      <contour>
        <pt x="204" y="509" on="1"/>
        <pt x="289" y="547" on="0"/>
        <pt x="427" y="547" on="1"/>
        <pt x="479" y="547" on="0"/>
        <pt x="594" y="539" on="0"/>
        <pt x="638" y="531" on="1"/>
        <pt x="638" y="585" on="1"/>
        <pt x="638" y="800" on="0"/>
        <pt x="574" y="851" on="1"/>
        <pt x="559" y="863" on="0"/>
        <pt x="510" y="875" on="0"/>
        <pt x="483" y="875" on="1"/>
        <pt x="460" y="875" on="0"/>
        <pt x="439" y="868" on="1"/>
        <pt x="412" y="702" on="1"/>
        <pt x="385" y="671" on="0"/>
        <pt x="309" y="621" on="0"/>
        <pt x="290" y="621" on="1"/>
        <pt x="267" y="621" on="0"/>
        <pt x="166" y="697" on="0"/>
        <pt x="84" y="793" on="0"/>
        <pt x="84" y="825" on="1"/>
        <pt x="84" y="847" on="0"/>
        <pt x="194" y="906" on="0"/>
        <pt x="248" y="923" on="1"/>
        <pt x="344" y="953" on="0"/>
        <pt x="572" y="975" on="0"/>
        <pt x="659" y="975" on="1"/>
        <pt x="829" y="975" on="0"/>
        <pt x="982" y="813" on="0"/>
        <pt x="982" y="674" on="1"/>
        <pt x="982" y="202" on="1"/>
        <pt x="1004" y="163" on="0"/>
        <pt x="1089" y="111" on="0"/>
        <pt x="1156" y="93" on="1"/>
        <pt x="1141" y="35" on="1"/>
        <pt x="1078" y="4" on="0"/>
        <pt x="930" y="-25" on="0"/>
        <pt x="835" y="-25" on="1"/>
        <pt x="800" y="28" on="0"/>
        <pt x="720" y="106" on="0"/>
        <pt x="665" y="132" on="1"/>
        <pt x="623" y="79" on="0"/>
        <pt x="546" y="14" on="0"/>
        <pt x="434" y="-25" on="0"/>
        <pt x="352" y="-25" on="1"/>
        <pt x="243" y="-25" on="0"/>
        <pt x="109" y="55" on="0"/>
        <pt x="51" y="176" on="0"/>
        <pt x="51" y="241" on="1"/>
        <pt x="51" y="441" on="0"/>
      </contour>
      <contour>
        <pt x="454" y="135" on="1"/>
        <pt x="491" y="135" on="0"/>
        <pt x="603" y="154" on="0"/>
        <pt x="638" y="165" on="1"/>
        <pt x="638" y="463" on="1"/>
        <pt x="536" y="441" on="0"/>
        <pt x="406" y="394" on="0"/>
        <pt x="398" y="380" on="1"/>
        <pt x="386" y="360" on="0"/>
        <pt x="386" y="317" on="1"/>
        <pt x="386" y="275" on="0"/>
        <pt x="410" y="176" on="0"/>
        <pt x="426" y="150" on="1"/>
        <pt x="435" y="135" on="0"/>
      </contour>
      <contour>
        <pt x="299" y="1483" on="1"/>
        <pt x="324" y="1483" on="0"/>
        <pt x="411" y="1405" on="0"/>
        <pt x="480" y="1306" on="0"/>
        <pt x="480" y="1279" on="1"/>
        <pt x="480" y="1250" on="0"/>
        <pt x="411" y="1151" on="0"/>
        <pt x="322" y="1075" on="0"/>
        <pt x="293" y="1075" on="1"/>
        <pt x="267" y="1075" on="0"/>
        <pt x="170" y="1153" on="0"/>
        <pt x="92" y="1252" on="0"/>
        <pt x="92" y="1281" on="1"/>
        <pt x="92" y="1309" on="0"/>
        <pt x="169" y="1407" on="0"/>
        <pt x="269" y="1483" on="0"/>
      </contour>
      <contour>
        <pt x="789" y="1483" on="1"/>
        <pt x="815" y="1483" on="0"/>
        <pt x="912" y="1405" on="0"/>
        <pt x="990" y="1307" on="0"/>
        <pt x="990" y="1279" on="1"/>
        <pt x="990" y="1250" on="0"/>
        <pt x="914" y="1152" on="0"/>
        <pt x="814" y="1075" on="0"/>
        <pt x="783" y="1075" on="1"/>
        <pt x="756" y="1075" on="0"/>
        <pt x="669" y="1154" on="0"/>
        <pt x="602" y="1254" on="0"/>
        <pt x="602" y="1281" on="1"/>
        <pt x="602" y="1310" on="0"/>
        <pt x="671" y="1408" on="0"/>
        <pt x="761" y="1483" on="0"/>
      </contour>
    </TTGlyph>
    <TTGlyph name="ae" xMin="50" yMin="-25" xMax="1464" yMax="975">
      <contour>
        <pt x="211" y="500" on="1"/>
        <pt x="259" y="519" on="0"/>
        <pt x="378" y="540" on="0"/>
        <pt x="440" y="540" on="1"/>
        <pt x="506" y="540" on="0"/>
        <pt x="612" y="531" on="1"/>
        <pt x="612" y="575" on="1"/>
        <pt x="612" y="796" on="0"/>
        <pt x="548" y="851" on="1"/>
        <pt x="534" y="863" on="0"/>
        <pt x="490" y="875" on="0"/>
        <pt x="467" y="875" on="1"/>
        <pt x="444" y="875" on="0"/>
        <pt x="423" y="868" on="1"/>
        <pt x="396" y="702" on="1"/>
        <pt x="369" y="671" on="0"/>
        <pt x="293" y="621" on="0"/>
        <pt x="274" y="621" on="1"/>
        <pt x="251" y="621" on="0"/>
        <pt x="150" y="697" on="0"/>
        <pt x="68" y="793" on="0"/>
        <pt x="68" y="825" on="1"/>
        <pt x="68" y="847" on="0"/>
        <pt x="178" y="906" on="0"/>
        <pt x="232" y="923" on="1"/>
        <pt x="325" y="953" on="0"/>
        <pt x="548" y="975" on="0"/>
        <pt x="633" y="975" on="1"/>
        <pt x="769" y="975" on="0"/>
        <pt x="850" y="918" on="1"/>
        <pt x="973" y="975" on="0"/>
        <pt x="1121" y="975" on="1"/>
        <pt x="1227" y="975" on="0"/>
        <pt x="1383" y="887" on="0"/>
        <pt x="1464" y="741" on="0"/>
        <pt x="1464" y="657" on="1"/>
        <pt x="1464" y="593" on="0"/>
        <pt x="1422" y="525" on="1"/>
        <pt x="1410" y="507" on="0"/>
        <pt x="1375" y="489" on="0"/>
        <pt x="1341" y="489" on="1"/>
        <pt x="894" y="489" on="1"/>
        <pt x="900" y="407" on="0"/>
        <pt x="978" y="245" on="0"/>
        <pt x="1092" y="142" on="0"/>
        <pt x="1149" y="142" on="1"/>
        <pt x="1195" y="142" on="0"/>
        <pt x="1356" y="172" on="0"/>
        <pt x="1393" y="183" on="1"/>
        <pt x="1409" y="152" on="1"/>
        <pt x="1358" y="63" on="0"/>
        <pt x="1175" y="-25" on="0"/>
        <pt x="1069" y="-25" on="1"/>
        <pt x="950" y="-25" on="0"/>
        <pt x="735" y="67" on="0"/>
        <pt x="673" y="150" on="1"/>
        <pt x="626" y="89" on="0"/>
        <pt x="530" y="14" on="0"/>
        <pt x="405" y="-25" on="0"/>
        <pt x="320" y="-25" on="1"/>
        <pt x="229" y="-25" on="0"/>
        <pt x="107" y="56" on="0"/>
        <pt x="50" y="178" on="0"/>
        <pt x="50" y="241" on="1"/>
        <pt x="50" y="347" on="0"/>
        <pt x="125" y="467" on="0"/>
      </contour>
      <contour>
        <pt x="990" y="859" on="1"/>
        <pt x="951" y="859" on="0"/>
        <pt x="938" y="837" on="1"/>
        <pt x="923" y="806" on="0"/>
        <pt x="897" y="661" on="0"/>
        <pt x="894" y="564" on="1"/>
        <pt x="1146" y="612" on="1"/>
        <pt x="1146" y="691" on="0"/>
        <pt x="1104" y="802" on="0"/>
        <pt x="1033" y="859" on="0"/>
      </contour>
      <contour>
        <pt x="453" y="135" on="1"/>
        <pt x="495" y="135" on="0"/>
        <pt x="588" y="159" on="0"/>
        <pt x="612" y="182" on="1"/>
        <pt x="612" y="458" on="1"/>
        <pt x="522" y="435" on="0"/>
        <pt x="405" y="384" on="0"/>
        <pt x="397" y="370" on="1"/>
        <pt x="389" y="355" on="0"/>
        <pt x="385" y="324" on="0"/>
        <pt x="385" y="301" on="1"/>
        <pt x="385" y="263" on="0"/>
        <pt x="409" y="176" on="0"/>
        <pt x="425" y="150" on="1"/>
        <pt x="434" y="135" on="0"/>
      </contour>
    </TTGlyph>
    <TTGlyph name="agrave" xMin="51" yMin="-25" xMax="1156" yMax="1472">
      <contour>
        <pt x="204" y="509" on="1"/>
        <pt x="289" y="547" on="0"/>
        <pt x="427" y="547" on="1"/>
        <pt x="479" y="547" on="0"/>
        <pt x="594" y="539" on="0"/>
        <pt x="638" y="531" on="1"/>
        <pt x="638" y="585" on="1"/>
        <pt x="638" y="800" on="0"/>
        <pt x="574" y="851" on="1"/>
        <pt x="559" y="863" on="0"/>
        <pt x="510" y="875" on="0"/>
        <pt x="483" y="875" on="1"/>
        <pt x="460" y="875" on="0"/>
        <pt x="439" y="868" on="1"/>
        <pt x="412" y="702" on="1"/>
        <pt x="385" y="671" on="0"/>
        <pt x="309" y="621" on="0"/>
        <pt x="290" y="621" on="1"/>
        <pt x="267" y="621" on="0"/>
        <pt x="166" y="697" on="0"/>
        <pt x="84" y="793" on="0"/>
        <pt x="84" y="825" on="1"/>
        <pt x="84" y="847" on="0"/>
        <pt x="194" y="906" on="0"/>
        <pt x="248" y="923" on="1"/>
        <pt x="344" y="953" on="0"/>
        <pt x="572" y="975" on="0"/>
        <pt x="659" y="975" on="1"/>
        <pt x="829" y="975" on="0"/>
        <pt x="982" y="813" on="0"/>
        <pt x="982" y="674" on="1"/>
        <pt x="982" y="202" on="1"/>
        <pt x="1004" y="163" on="0"/>
        <pt x="1089" y="111" on="0"/>
        <pt x="1156" y="93" on="1"/>
        <pt x="1141" y="35" on="1"/>
        <pt x="1078" y="4" on="0"/>
        <pt x="930" y="-25" on="0"/>
        <pt x="835" y="-25" on="1"/>
        <pt x="800" y="28" on="0"/>
        <pt x="720" y="106" on="0"/>
        <pt x="665" y="132" on="1"/>
        <pt x="623" y="79" on="0"/>
        <pt x="546" y="14" on="0"/>
        <pt x="434" y="-25" on="0"/>
        <pt x="352" y="-25" on="1"/>
        <pt x="243" y="-25" on="0"/>
        <pt x="109" y="55" on="0"/>
        <pt x="51" y="176" on="0"/>
        <pt x="51" y="241" on="1"/>
        <pt x="51" y="441" on="0"/>
      </contour>
      <contour>
        <pt x="454" y="135" on="1"/>
        <pt x="491" y="135" on="0"/>
        <pt x="603" y="154" on="0"/>
        <pt x="638" y="165" on="1"/>
        <pt x="638" y="463" on="1"/>
        <pt x="536" y="441" on="0"/>
        <pt x="406" y="394" on="0"/>
        <pt x="398" y="380" on="1"/>
        <pt x="386" y="360" on="0"/>
        <pt x="386" y="317" on="1"/>
        <pt x="386" y="275" on="0"/>
        <pt x="410" y="176" on="0"/>
        <pt x="426" y="150" on="1"/>
        <pt x="435" y="135" on="0"/>
      </contour>
      <contour>
        <pt x="318" y="1472" on="1"/>
        <pt x="483" y="1472" on="1"/>
        <pt x="764" y="1202" on="1"/>
        <pt x="737" y="1042" on="1"/>
        <pt x="281" y="1278" on="1"/>
      </contour>
    </TTGlyph>
    <TTGlyph name="aideva" xMin="-52" yMin="-337" xMax="1293" yMax="1740">
      <contour>
        <pt x="1123" y="998" on="1"/>
        <pt x="1123" y="610" on="1"/>
        <pt x="1123" y="519" on="0"/>
        <pt x="1082" y="393" on="0"/>
        <pt x="1006" y="307" on="0"/>
        <pt x="948" y="268" on="1"/>
        <pt x="688" y="439" on="1"/>
        <pt x="743" y="471" on="0"/>
        <pt x="792" y="509" on="0"/>
        <pt x="817" y="573" on="0"/>
        <pt x="817" y="631" on="1"/>
        <pt x="817" y="998" on="1"/>
        <pt x="444" y="998" on="1"/>
        <pt x="444" y="506" on="1"/>
        <pt x="444" y="468" on="0"/>
        <pt x="463" y="427" on="0"/>
        <pt x="489" y="410" on="1"/>
        <pt x="600" y="336" on="0"/>
        <pt x="731" y="254" on="1"/>
        <pt x="823" y="197" on="0"/>
        <pt x="872" y="165" on="1"/>
        <pt x="948" y="117" on="0"/>
        <pt x="1005" y="20" on="0"/>
        <pt x="1005" y="-59" on="1"/>
        <pt x="1005" y="-180" on="0"/>
        <pt x="860" y="-337" on="1"/>
        <pt x="623" y="-165" on="1"/>
        <pt x="678" y="-119" on="0"/>
        <pt x="727" y="-49" on="0"/>
        <pt x="727" y="-17" on="1"/>
        <pt x="727" y="12" on="0"/>
        <pt x="703" y="58" on="0"/>
        <pt x="675" y="76" on="1"/>
        <pt x="653" y="90" on="1"/>
        <pt x="456" y="214" on="0"/>
        <pt x="341" y="284" on="1"/>
        <pt x="249" y="341" on="0"/>
        <pt x="171" y="402" on="0"/>
        <pt x="137" y="472" on="0"/>
        <pt x="137" y="530" on="1"/>
        <pt x="137" y="998" on="1"/>
        <pt x="-2" y="998" on="1"/>
        <pt x="-52" y="1187" on="1"/>
        <pt x="862" y="1187" on="1"/>
        <pt x="823" y="1267" on="0"/>
        <pt x="704" y="1435" on="0"/>
        <pt x="657" y="1467" on="1"/>
        <pt x="607" y="1482" on="0"/>
        <pt x="526" y="1482" on="1"/>
        <pt x="472" y="1482" on="0"/>
        <pt x="359" y="1458" on="1"/>
        <pt x="296" y="1709" on="1"/>
        <pt x="340" y="1724" on="0"/>
        <pt x="453" y="1740" on="0"/>
        <pt x="504" y="1740" on="1"/>
        <pt x="583" y="1740" on="0"/>
        <pt x="725" y="1690" on="0"/>
        <pt x="774" y="1654" on="1"/>
        <pt x="858" y="1590" on="0"/>
        <pt x="998" y="1336" on="0"/>
        <pt x="1038" y="1187" on="1"/>
        <pt x="1248" y="1187" on="1"/>
        <pt x="1293" y="998" on="1"/>
      </contour>
    </TTGlyph>
    <TTGlyph name="aivowelsigndeva" xMin="-440" yMin="1133" xMax="380" yMax="1850">
      <contour>
        <pt x="380" y="1133" on="1"/>
        <pt x="300" y="1133" on="1"/>
        <pt x="262" y="1133" on="1"/>
        <pt x="172" y="1133" on="1"/>
        <pt x="83" y="1194" on="0"/>
        <pt x="-34" y="1263" on="0"/>
        <pt x="-92" y="1288" on="1"/>
        <pt x="-140" y="1303" on="0"/>
        <pt x="-200" y="1303" on="1"/>
        <pt x="-271" y="1303" on="0"/>
        <pt x="-366" y="1278" on="1"/>
        <pt x="-440" y="1495" on="1"/>
        <pt x="-391" y="1514" on="0"/>
        <pt x="-308" y="1530" on="0"/>
        <pt x="-259" y="1530" on="1"/>
        <pt x="-185" y="1530" on="0"/>
        <pt x="-69" y="1495" on="0"/>
        <pt x="-17" y="1458" on="1"/>
        <pt x="32" y="1421" on="0"/>
        <pt x="136" y="1316" on="0"/>
        <pt x="226" y="1216" on="1"/>
        <pt x="166" y="1341" on="0"/>
        <pt x="12" y="1557" on="0"/>
        <pt x="-39" y="1592" on="1"/>
        <pt x="-89" y="1607" on="0"/>
        <pt x="-170" y="1607" on="1"/>
        <pt x="-233" y="1607" on="0"/>
        <pt x="-337" y="1581" on="1"/>
        <pt x="-399" y="1817" on="1"/>
        <pt x="-315" y="1850" on="0"/>
        <pt x="-195" y="1850" on="1"/>
        <pt x="-114" y="1850" on="0"/>
        <pt x="30" y="1801" on="0"/>
        <pt x="78" y="1764" on="1"/>
        <pt x="167" y="1697" on="0"/>
        <pt x="320" y="1369" on="0"/>
      </contour>
    </TTGlyph>
    <TTGlyph name="aivowelsigndeva_anusvaradeva" xMin="-440" yMin="1133" xMax="698" yMax="1850">
      <contour>
        <pt x="380" y="1133" on="1"/>
        <pt x="300" y="1133" on="1"/>
        <pt x="262" y="1133" on="1"/>
        <pt x="172" y="1133" on="1"/>
        <pt x="83" y="1194" on="0"/>
        <pt x="-34" y="1263" on="0"/>
        <pt x="-92" y="1288" on="1"/>
        <pt x="-140" y="1303" on="0"/>
        <pt x="-200" y="1303" on="1"/>
        <pt x="-271" y="1303" on="0"/>
        <pt x="-366" y="1278" on="1"/>
        <pt x="-440" y="1495" on="1"/>
        <pt x="-391" y="1514" on="0"/>
        <pt x="-308" y="1530" on="0"/>
        <pt x="-259" y="1530" on="1"/>
        <pt x="-185" y="1530" on="0"/>
        <pt x="-69" y="1495" on="0"/>
        <pt x="-17" y="1458" on="1"/>
        <pt x="32" y="1421" on="0"/>
        <pt x="136" y="1316" on="0"/>
        <pt x="226" y="1216" on="1"/>
        <pt x="166" y="1341" on="0"/>
        <pt x="12" y="1557" on="0"/>
        <pt x="-39" y="1592" on="1"/>
        <pt x="-89" y="1607" on="0"/>
        <pt x="-170" y="1607" on="1"/>
        <pt x="-233" y="1607" on="0"/>
        <pt x="-337" y="1581" on="1"/>
        <pt x="-399" y="1817" on="1"/>
        <pt x="-315" y="1850" on="0"/>
        <pt x="-195" y="1850" on="1"/>
        <pt x="-114" y="1850" on="0"/>
        <pt x="30" y="1801" on="0"/>
        <pt x="78" y="1764" on="1"/>
        <pt x="167" y="1697" on="0"/>
        <pt x="320" y="1369" on="0"/>
      </contour>
      <contour>
        <pt x="333" y="1505" on="1"/>
        <pt x="333" y="1532" on="0"/>
        <pt x="400" y="1619" on="0"/>
        <pt x="488" y="1687" on="0"/>
        <pt x="515" y="1687" on="1"/>
        <pt x="542" y="1687" on="0"/>
        <pt x="630" y="1617" on="0"/>
        <pt x="698" y="1528" on="0"/>
        <pt x="698" y="1505" on="1"/>
        <pt x="698" y="1476" on="0"/>
        <pt x="629" y="1389" on="0"/>
        <pt x="539" y="1322" on="0"/>
        <pt x="515" y="1322" on="1"/>
        <pt x="489" y="1322" on="0"/>
        <pt x="401" y="1389" on="0"/>
        <pt x="333" y="1477" on="0"/>
      </contour>
    </TTGlyph>
    <TTGlyph name="amacron" xMin="51" yMin="-25" xMax="1156" yMax="1335">
      <contour>
        <pt x="204" y="509" on="1"/>
        <pt x="289" y="547" on="0"/>
        <pt x="427" y="547" on="1"/>
        <pt x="479" y="547" on="0"/>
        <pt x="594" y="539" on="0"/>
        <pt x="638" y="531" on="1"/>
        <pt x="638" y="585" on="1"/>
        <pt x="638" y="800" on="0"/>
        <pt x="574" y="851" on="1"/>
        <pt x="559" y="863" on="0"/>
        <pt x="510" y="875" on="0"/>
        <pt x="483" y="875" on="1"/>
        <pt x="460" y="875" on="0"/>
        <pt x="439" y="868" on="1"/>
        <pt x="412" y="702" on="1"/>
        <pt x="385" y="671" on="0"/>
        <pt x="309" y="621" on="0"/>
        <pt x="290" y="621" on="1"/>
        <pt x="267" y="621" on="0"/>
        <pt x="166" y="697" on="0"/>
        <pt x="84" y="793" on="0"/>
        <pt x="84" y="825" on="1"/>
        <pt x="84" y="847" on="0"/>
        <pt x="194" y="906" on="0"/>
        <pt x="248" y="923" on="1"/>
        <pt x="344" y="953" on="0"/>
        <pt x="572" y="975" on="0"/>
        <pt x="659" y="975" on="1"/>
        <pt x="829" y="975" on="0"/>
        <pt x="982" y="813" on="0"/>
        <pt x="982" y="674" on="1"/>
        <pt x="982" y="202" on="1"/>
        <pt x="1004" y="163" on="0"/>
        <pt x="1089" y="111" on="0"/>
        <pt x="1156" y="93" on="1"/>
        <pt x="1141" y="35" on="1"/>
        <pt x="1078" y="4" on="0"/>
        <pt x="930" y="-25" on="0"/>
        <pt x="835" y="-25" on="1"/>
        <pt x="800" y="28" on="0"/>
        <pt x="720" y="106" on="0"/>
        <pt x="665" y="132" on="1"/>
        <pt x="623" y="79" on="0"/>
        <pt x="546" y="14" on="0"/>
        <pt x="434" y="-25" on="0"/>
        <pt x="352" y="-25" on="1"/>
        <pt x="243" y="-25" on="0"/>
        <pt x="109" y="55" on="0"/>
        <pt x="51" y="176" on="0"/>
        <pt x="51" y="241" on="1"/>
        <pt x="51" y="441" on="0"/>
      </contour>
      <contour>
        <pt x="454" y="135" on="1"/>
        <pt x="491" y="135" on="0"/>
        <pt x="603" y="154" on="0"/>
        <pt x="638" y="165" on="1"/>
        <pt x="638" y="463" on="1"/>
        <pt x="536" y="441" on="0"/>
        <pt x="406" y="394" on="0"/>
        <pt x="398" y="380" on="1"/>
        <pt x="386" y="360" on="0"/>
        <pt x="386" y="317" on="1"/>
        <pt x="386" y="275" on="0"/>
        <pt x="410" y="176" on="0"/>
        <pt x="426" y="150" on="1"/>
        <pt x="435" y="135" on="0"/>
      </contour>
      <contour>
        <pt x="879" y="1335" on="1"/>
        <pt x="842" y="1143" on="1"/>
        <pt x="578" y="1131" on="0"/>
        <pt x="266" y="1131" on="1"/>
        <pt x="206" y="1131" on="1"/>
        <pt x="245" y="1335" on="1"/>
      </contour>
    </TTGlyph>
</ttFont>
